<?xml version="1.0" encoding="UTF-8"?>
<svg xmlns="http://www.w3.org/2000/svg" xmlns:xlink="http://www.w3.org/1999/xlink" width="360pt" height="359pt" viewBox="0 0 360 359" version="1.1">
<g id="surface4">
<path style=" stroke:none;fill-rule:evenodd;fill:rgb(99.998474%,0%,0%);fill-opacity:1;" d="M 351.320312 179 C 351.320312 133.296875 333.164062 89.46875 300.847656 57.152344 C 268.53125 24.835938 224.703125 6.679688 179 6.679688 C 133.296875 6.679688 89.46875 24.835938 57.152344 57.152344 C 24.835938 89.46875 6.679688 133.296875 6.679688 179 C 6.679688 224.703125 24.835938 268.53125 57.152344 300.847656 C 89.46875 333.164062 133.296875 351.320312 179 351.320312 C 224.703125 351.320312 268.53125 333.164062 300.847656 300.847656 C 333.164062 268.53125 351.320312 224.703125 351.320312 179 Z M 351.320312 179 "/>
<path style=" stroke:none;fill-rule:evenodd;fill:rgb(0%,0%,0%);fill-opacity:1;" d="M 180.5 352 C 180.5 351.601562 180.34375 351.21875 180.0625 350.9375 C 179.78125 350.65625 179.398438 350.5 179 350.5 C 178.601562 350.5 178.21875 350.65625 177.9375 350.9375 C 177.65625 351.21875 177.5 351.601562 177.5 352 C 177.5 352.398438 177.65625 352.78125 177.9375 353.0625 C 178.21875 353.34375 178.601562 353.5 179 353.5 C 179.398438 353.5 179.78125 353.34375 180.0625 353.0625 C 180.34375 352.78125 180.5 352.398438 180.5 352 Z M 180.5 352 "/>
<path style=" stroke:none;fill-rule:evenodd;fill:rgb(0%,0%,0%);fill-opacity:1;" d="M 180.5 334 C 180.5 333.601562 180.34375 333.21875 180.0625 332.9375 C 179.78125 332.65625 179.398438 332.5 179 332.5 C 178.601562 332.5 178.21875 332.65625 177.9375 332.9375 C 177.65625 333.21875 177.5 333.601562 177.5 334 C 177.5 334.398438 177.65625 334.78125 177.9375 335.0625 C 178.21875 335.34375 178.601562 335.5 179 335.5 C 179.398438 335.5 179.78125 335.34375 180.0625 335.0625 C 180.34375 334.78125 180.5 334.398438 180.5 334 Z M 180.5 334 "/>
<path style=" stroke:none;fill-rule:evenodd;fill:rgb(0%,0%,0%);fill-opacity:1;" d="M 180.5 317 C 180.5 316.601562 180.34375 316.21875 180.0625 315.9375 C 179.78125 315.65625 179.398438 315.5 179 315.5 C 178.601562 315.5 178.21875 315.65625 177.9375 315.9375 C 177.65625 316.21875 177.5 316.601562 177.5 317 C 177.5 317.398438 177.65625 317.78125 177.9375 318.0625 C 178.21875 318.34375 178.601562 318.5 179 318.5 C 179.398438 318.5 179.78125 318.34375 180.0625 318.0625 C 180.34375 317.78125 180.5 317.398438 180.5 317 Z M 180.5 317 "/>
<path style=" stroke:none;fill-rule:evenodd;fill:rgb(0%,0%,0%);fill-opacity:1;" d="M 180.5 300 C 180.5 299.601562 180.34375 299.21875 180.0625 298.9375 C 179.78125 298.65625 179.398438 298.5 179 298.5 C 178.601562 298.5 178.21875 298.65625 177.9375 298.9375 C 177.65625 299.21875 177.5 299.601562 177.5 300 C 177.5 300.398438 177.65625 300.78125 177.9375 301.0625 C 178.21875 301.34375 178.601562 301.5 179 301.5 C 179.398438 301.5 179.78125 301.34375 180.0625 301.0625 C 180.34375 300.78125 180.5 300.398438 180.5 300 Z M 180.5 300 "/>
<path style=" stroke:none;fill-rule:evenodd;fill:rgb(0%,0%,0%);fill-opacity:1;" d="M 180.5 283 C 180.5 282.601562 180.34375 282.21875 180.0625 281.9375 C 179.78125 281.65625 179.398438 281.5 179 281.5 C 178.601562 281.5 178.21875 281.65625 177.9375 281.9375 C 177.65625 282.21875 177.5 282.601562 177.5 283 C 177.5 283.398438 177.65625 283.78125 177.9375 284.0625 C 178.21875 284.34375 178.601562 284.5 179 284.5 C 179.398438 284.5 179.78125 284.34375 180.0625 284.0625 C 180.34375 283.78125 180.5 283.398438 180.5 283 Z M 180.5 283 "/>
<path style=" stroke:none;fill-rule:evenodd;fill:rgb(0%,0%,0%);fill-opacity:1;" d="M 180.5 265 C 180.5 264.601562 180.34375 264.21875 180.0625 263.9375 C 179.78125 263.65625 179.398438 263.5 179 263.5 C 178.601562 263.5 178.21875 263.65625 177.9375 263.9375 C 177.65625 264.21875 177.5 264.601562 177.5 265 C 177.5 265.398438 177.65625 265.78125 177.9375 266.0625 C 178.21875 266.34375 178.601562 266.5 179 266.5 C 179.398438 266.5 179.78125 266.34375 180.0625 266.0625 C 180.34375 265.78125 180.5 265.398438 180.5 265 Z M 180.5 265 "/>
<path style=" stroke:none;fill-rule:evenodd;fill:rgb(0%,0%,0%);fill-opacity:1;" d="M 180.5 248 C 180.5 247.601562 180.34375 247.21875 180.0625 246.9375 C 179.78125 246.65625 179.398438 246.5 179 246.5 C 178.601562 246.5 178.21875 246.65625 177.9375 246.9375 C 177.65625 247.21875 177.5 247.601562 177.5 248 C 177.5 248.398438 177.65625 248.78125 177.9375 249.0625 C 178.21875 249.34375 178.601562 249.5 179 249.5 C 179.398438 249.5 179.78125 249.34375 180.0625 249.0625 C 180.34375 248.78125 180.5 248.398438 180.5 248 Z M 180.5 248 "/>
<path style=" stroke:none;fill-rule:evenodd;fill:rgb(0%,0%,0%);fill-opacity:1;" d="M 180.5 231 C 180.5 230.601562 180.34375 230.21875 180.0625 229.9375 C 179.78125 229.65625 179.398438 229.5 179 229.5 C 178.601562 229.5 178.21875 229.65625 177.9375 229.9375 C 177.65625 230.21875 177.5 230.601562 177.5 231 C 177.5 231.398438 177.65625 231.78125 177.9375 232.0625 C 178.21875 232.34375 178.601562 232.5 179 232.5 C 179.398438 232.5 179.78125 232.34375 180.0625 232.0625 C 180.34375 231.78125 180.5 231.398438 180.5 231 Z M 180.5 231 "/>
<path style=" stroke:none;fill-rule:evenodd;fill:rgb(0%,0%,0%);fill-opacity:1;" d="M 180.5 214 C 180.5 213.601562 180.34375 213.21875 180.0625 212.9375 C 179.78125 212.65625 179.398438 212.5 179 212.5 C 178.601562 212.5 178.21875 212.65625 177.9375 212.9375 C 177.65625 213.21875 177.5 213.601562 177.5 214 C 177.5 214.398438 177.65625 214.78125 177.9375 215.0625 C 178.21875 215.34375 178.601562 215.5 179 215.5 C 179.398438 215.5 179.78125 215.34375 180.0625 215.0625 C 180.34375 214.78125 180.5 214.398438 180.5 214 Z M 180.5 214 "/>
<path style=" stroke:none;fill-rule:evenodd;fill:rgb(0%,0%,0%);fill-opacity:1;" d="M 180.5 196 C 180.5 195.601562 180.34375 195.21875 180.0625 194.9375 C 179.78125 194.65625 179.398438 194.5 179 194.5 C 178.601562 194.5 178.21875 194.65625 177.9375 194.9375 C 177.65625 195.21875 177.5 195.601562 177.5 196 C 177.5 196.398438 177.65625 196.78125 177.9375 197.0625 C 178.21875 197.34375 178.601562 197.5 179 197.5 C 179.398438 197.5 179.78125 197.34375 180.0625 197.0625 C 180.34375 196.78125 180.5 196.398438 180.5 196 Z M 180.5 196 "/>
<path style=" stroke:none;fill-rule:evenodd;fill:rgb(0%,0%,0%);fill-opacity:1;" d="M 180.5 179 C 180.5 178.601562 180.34375 178.21875 180.0625 177.9375 C 179.78125 177.65625 179.398438 177.5 179 177.5 C 178.601562 177.5 178.21875 177.65625 177.9375 177.9375 C 177.65625 178.21875 177.5 178.601562 177.5 179 C 177.5 179.398438 177.65625 179.78125 177.9375 180.0625 C 178.21875 180.34375 178.601562 180.5 179 180.5 C 179.398438 180.5 179.78125 180.34375 180.0625 180.0625 C 180.34375 179.78125 180.5 179.398438 180.5 179 Z M 180.5 179 "/>
<path style=" stroke:none;fill-rule:evenodd;fill:rgb(0%,0%,0%);fill-opacity:1;" d="M 180.5 162 C 180.5 161.601562 180.34375 161.21875 180.0625 160.9375 C 179.78125 160.65625 179.398438 160.5 179 160.5 C 178.601562 160.5 178.21875 160.65625 177.9375 160.9375 C 177.65625 161.21875 177.5 161.601562 177.5 162 C 177.5 162.398438 177.65625 162.78125 177.9375 163.0625 C 178.21875 163.34375 178.601562 163.5 179 163.5 C 179.398438 163.5 179.78125 163.34375 180.0625 163.0625 C 180.34375 162.78125 180.5 162.398438 180.5 162 Z M 180.5 162 "/>
<path style=" stroke:none;fill-rule:evenodd;fill:rgb(0%,0%,0%);fill-opacity:1;" d="M 180.5 145 C 180.5 144.601562 180.34375 144.21875 180.0625 143.9375 C 179.78125 143.65625 179.398438 143.5 179 143.5 C 178.601562 143.5 178.21875 143.65625 177.9375 143.9375 C 177.65625 144.21875 177.5 144.601562 177.5 145 C 177.5 145.398438 177.65625 145.78125 177.9375 146.0625 C 178.21875 146.34375 178.601562 146.5 179 146.5 C 179.398438 146.5 179.78125 146.34375 180.0625 146.0625 C 180.34375 145.78125 180.5 145.398438 180.5 145 Z M 180.5 145 "/>
<path style=" stroke:none;fill-rule:evenodd;fill:rgb(0%,0%,0%);fill-opacity:1;" d="M 180.5 128 C 180.5 127.601562 180.34375 127.21875 180.0625 126.9375 C 179.78125 126.65625 179.398438 126.5 179 126.5 C 178.601562 126.5 178.21875 126.65625 177.9375 126.9375 C 177.65625 127.21875 177.5 127.601562 177.5 128 C 177.5 128.398438 177.65625 128.78125 177.9375 129.0625 C 178.21875 129.34375 178.601562 129.5 179 129.5 C 179.398438 129.5 179.78125 129.34375 180.0625 129.0625 C 180.34375 128.78125 180.5 128.398438 180.5 128 Z M 180.5 128 "/>
<path style=" stroke:none;fill-rule:evenodd;fill:rgb(0%,0%,0%);fill-opacity:1;" d="M 180.5 110 C 180.5 109.601562 180.34375 109.21875 180.0625 108.9375 C 179.78125 108.65625 179.398438 108.5 179 108.5 C 178.601562 108.5 178.21875 108.65625 177.9375 108.9375 C 177.65625 109.21875 177.5 109.601562 177.5 110 C 177.5 110.398438 177.65625 110.78125 177.9375 111.0625 C 178.21875 111.34375 178.601562 111.5 179 111.5 C 179.398438 111.5 179.78125 111.34375 180.0625 111.0625 C 180.34375 110.78125 180.5 110.398438 180.5 110 Z M 180.5 110 "/>
<path style=" stroke:none;fill-rule:evenodd;fill:rgb(0%,0%,0%);fill-opacity:1;" d="M 180.5 93 C 180.5 92.601562 180.34375 92.21875 180.0625 91.9375 C 179.78125 91.65625 179.398438 91.5 179 91.5 C 178.601562 91.5 178.21875 91.65625 177.9375 91.9375 C 177.65625 92.21875 177.5 92.601562 177.5 93 C 177.5 93.398438 177.65625 93.78125 177.9375 94.0625 C 178.21875 94.34375 178.601562 94.5 179 94.5 C 179.398438 94.5 179.78125 94.34375 180.0625 94.0625 C 180.34375 93.78125 180.5 93.398438 180.5 93 Z M 180.5 93 "/>
<path style=" stroke:none;fill-rule:evenodd;fill:rgb(0%,0%,0%);fill-opacity:1;" d="M 180.5 76 C 180.5 75.601562 180.34375 75.21875 180.0625 74.9375 C 179.78125 74.65625 179.398438 74.5 179 74.5 C 178.601562 74.5 178.21875 74.65625 177.9375 74.9375 C 177.65625 75.21875 177.5 75.601562 177.5 76 C 177.5 76.398438 177.65625 76.78125 177.9375 77.0625 C 178.21875 77.34375 178.601562 77.5 179 77.5 C 179.398438 77.5 179.78125 77.34375 180.0625 77.0625 C 180.34375 76.78125 180.5 76.398438 180.5 76 Z M 180.5 76 "/>
<path style=" stroke:none;fill-rule:evenodd;fill:rgb(0%,0%,0%);fill-opacity:1;" d="M 180.5 59 C 180.5 58.601562 180.34375 58.21875 180.0625 57.9375 C 179.78125 57.65625 179.398438 57.5 179 57.5 C 178.601562 57.5 178.21875 57.65625 177.9375 57.9375 C 177.65625 58.21875 177.5 58.601562 177.5 59 C 177.5 59.398438 177.65625 59.78125 177.9375 60.0625 C 178.21875 60.34375 178.601562 60.5 179 60.5 C 179.398438 60.5 179.78125 60.34375 180.0625 60.0625 C 180.34375 59.78125 180.5 59.398438 180.5 59 Z M 180.5 59 "/>
<path style=" stroke:none;fill-rule:evenodd;fill:rgb(0%,0%,0%);fill-opacity:1;" d="M 180.5 41 C 180.5 40.601562 180.34375 40.21875 180.0625 39.9375 C 179.78125 39.65625 179.398438 39.5 179 39.5 C 178.601562 39.5 178.21875 39.65625 177.9375 39.9375 C 177.65625 40.21875 177.5 40.601562 177.5 41 C 177.5 41.398438 177.65625 41.78125 177.9375 42.0625 C 178.21875 42.34375 178.601562 42.5 179 42.5 C 179.398438 42.5 179.78125 42.34375 180.0625 42.0625 C 180.34375 41.78125 180.5 41.398438 180.5 41 Z M 180.5 41 "/>
<path style=" stroke:none;fill-rule:evenodd;fill:rgb(0%,0%,0%);fill-opacity:1;" d="M 180.5 24 C 180.5 23.601562 180.34375 23.21875 180.0625 22.9375 C 179.78125 22.65625 179.398438 22.5 179 22.5 C 178.601562 22.5 178.21875 22.65625 177.9375 22.9375 C 177.65625 23.21875 177.5 23.601562 177.5 24 C 177.5 24.398438 177.65625 24.78125 177.9375 25.0625 C 178.21875 25.34375 178.601562 25.5 179 25.5 C 179.398438 25.5 179.78125 25.34375 180.0625 25.0625 C 180.34375 24.78125 180.5 24.398438 180.5 24 Z M 180.5 24 "/>
<path style=" stroke:none;fill-rule:evenodd;fill:rgb(0%,0%,0%);fill-opacity:1;" d="M 180.5 7 C 180.5 6.601562 180.34375 6.21875 180.0625 5.9375 C 179.78125 5.65625 179.398438 5.5 179 5.5 C 178.601562 5.5 178.21875 5.65625 177.9375 5.9375 C 177.65625 6.21875 177.5 6.601562 177.5 7 C 177.5 7.398438 177.65625 7.78125 177.9375 8.0625 C 178.21875 8.34375 178.601562 8.5 179 8.5 C 179.398438 8.5 179.78125 8.34375 180.0625 8.0625 C 180.34375 7.78125 180.5 7.398438 180.5 7 Z M 180.5 7 "/>
</g>
</svg>
