<?xml version="1.0" encoding="UTF-8" standalone="no"?>
<svg
   xmlns:dc="http://purl.org/dc/elements/1.1/"
   xmlns:cc="http://creativecommons.org/ns#"
   xmlns:rdf="http://www.w3.org/1999/02/22-rdf-syntax-ns#"
   xmlns:svg="http://www.w3.org/2000/svg"
   xmlns="http://www.w3.org/2000/svg"
   xmlns:sodipodi="http://sodipodi.sourceforge.net/DTD/sodipodi-0.dtd"
   xmlns:inkscape="http://www.inkscape.org/namespaces/inkscape"
   width="1000pt"
   height="1000pt"
   viewBox="0 0 1000 1000"
   version="1.1"
   id="svg5"
   sodipodi:docname="plant.svg"
   inkscape:version="0.92.4 5da689c313, 2019-01-14">
  <metadata
     id="metadata11">
    <rdf:RDF>
      <cc:Work
         rdf:about="">
        <dc:format>image/svg+xml</dc:format>
        <dc:type
           rdf:resource="http://purl.org/dc/dcmitype/StillImage" />
        <dc:title></dc:title>
      </cc:Work>
    </rdf:RDF>
  </metadata>
  <defs
     id="defs9">
    <filter
       style="color-interpolation-filters:sRGB;"
       inkscape:menu-tooltip="Adds a small scale crossy graininess"
       inkscape:menu="Overlays"
       inkscape:label="Cross Noise B"
       id="filter285">
      <feColorMatrix
         result="result6"
         values="1 0 0 0 0 0 1 0 0 0 0 0 1 0 0 0 0 0 1 1 "
         id="feColorMatrix271" />
      <feTurbulence
         result="result0"
         seed="0"
         baseFrequency="1"
         numOctaves="5"
         type="fractalNoise"
         id="feTurbulence273" />
      <feConvolveMatrix
         result="result5"
         order="5 5"
         kernelMatrix="-2 0 0 0 -2 0 -2 0 -2 0 0 0 -10 0 0 0 -2 0 -2 0 -2 0 0 0 -2 "
         targetX="2"
         targetY="2"
         id="feConvolveMatrix275" />
      <feColorMatrix
         in="result5"
         type="saturate"
         values="0"
         result="result4"
         id="feColorMatrix277" />
      <feComposite
         in2="result6"
         result="result2"
         k3="0.5"
         k2="0.5"
         k1="1.5"
         operator="arithmetic"
         in="result4"
         id="feComposite279" />
      <feBlend
         result="result7"
         mode="normal"
         in2="result4"
         id="feBlend281" />
      <feComposite
         in2="SourceGraphic"
         result="result3"
         operator="in"
         in="result7"
         id="feComposite283" />
    </filter>
  </defs>
  <sodipodi:namedview
     pagecolor="#ffffff"
     bordercolor="#666666"
     borderopacity="1"
     objecttolerance="10"
     gridtolerance="10"
     guidetolerance="10"
     inkscape:pageopacity="0"
     inkscape:pageshadow="2"
     inkscape:window-width="2219"
     inkscape:window-height="1392"
     id="namedview7"
     showgrid="true"
     showguides="true"
     inkscape:zoom="0.70710678"
     inkscape:cx="664.43943"
     inkscape:cy="694.54069"
     inkscape:window-x="339"
     inkscape:window-y="46"
     inkscape:window-maximized="1"
     inkscape:current-layer="svg5">
    <inkscape:grid
       type="xygrid"
       id="grid17"
       empcolor="#ff543f"
       empopacity="0.25098039"
       units="pt"
       spacingx="9.9999997"
       spacingy="9.9999997" />
  </sodipodi:namedview>
  <rect
     style="fill:#003380;stroke:none;stroke-width:3.0348587;stroke-linecap:round;stroke-linejoin:round;stroke-miterlimit:4;stroke-dasharray:none;stroke-dashoffset:0"
     id="rect23"
     width="1000"
     height="229.24994"
     x="0"
     y="770.75006" />
  <ellipse
     style="fill:#ffcc00;stroke:#d4aa00;stroke-width:2.83464575;stroke-linecap:round;stroke-linejoin:round;stroke-miterlimit:4;stroke-dasharray:none;stroke-dashoffset:0;filter:url(#filter285)"
     id="path13"
     cx="515.75"
     cy="900.58691"
     rx="360.67795"
     ry="60.745758" />
  <rect
     style="fill:#d7eef4;stroke:none;stroke-width:2.83464575;stroke-linecap:round;stroke-linejoin:round;stroke-miterlimit:4;stroke-dasharray:none;stroke-dashoffset:0"
     id="rect39"
     width="1000"
     height="770"
     x="0"
     y="3.0000001e-05" />
  <g
     id="surface21"
     transform="translate(-41.157005,389.79881)"
     style="stroke:#338000">
    <path
       style="fill:none;stroke:#338000;stroke-width:1.02400005;stroke-linecap:butt;stroke-linejoin:miter;stroke-miterlimit:10;stroke-opacity:1"
       d="M 541.15699,510.20119 V 346.32638 l -34.62451,-74.25024 -31.37536,-26.34343 -19.78163,-5.29715 -10.08538,1.78176 -4.19533,2.93683 m 0,0 -4.19532,2.93786 -5.0432,0.89088 m 13.43385,-6.76557 -5.0432,0.88986 m 0,0 -5.0432,0.89088 -4.94489,-1.32403 m 15.03129,-0.45671 -10.0864,1.78074 -14.83571,-3.97312 m 0,0 -4.9449,-1.32403 -3.92192,-3.29319 m 23.70253,8.59034 -4.19533,2.93785 m 0,0 -4.19532,2.93684 -5.0432,0.89088 m 33.60563,-10.32807 -9.89082,-2.64806 -5.04217,0.88985 m 0,0 -5.0432,0.89088 -4.94592,-1.32403 m 15.03129,-0.4567 -4.94489,-1.32506 m 0,0 -4.9449,-1.32403 -3.92192,-3.29318 m 13.81171,5.94227 -9.88979,-2.64909 -11.76576,-9.87853 m 0,0 -3.92192,-3.29318 -2.16474,-4.64077 m 17.85242,17.81248 -5.0432,0.89088 m 0,0 -5.0432,0.89088 -4.9449,-1.32403 m 34.81191,4.83942 -19.78061,-5.29715 -23.53152,-19.75706 -4.94592,-1.32505 m 0,0 -4.9449,-1.32403 -3.92192,-3.29319 m 13.81274,5.94227 -3.92192,-3.29318 m 0,0 -3.92192,-3.29318 -2.16371,-4.64077 m 10.00755,11.22713 -7.84384,-6.58636 -6.49216,-13.92231 m 0,0 -2.16371,-4.63974 v -5.12205 m 8.65587,23.6841 -4.9449,-1.32404 m 0,0 -4.94592,-1.32403 -3.92192,-3.29318 m 45.1881,32.28467 -10.0864,1.78176 -4.19533,2.93683 m 0,0 -4.19533,2.93786 -5.0432,0.89088 m 13.43386,-6.76557 -5.0432,0.89088 m 0,0 -5.04218,0.88986 -4.94592,-1.32404 m 15.0313,-0.4567 -10.08538,1.78074 -14.83673,-3.9721 m 0,0 -4.9449,-1.32403 -3.92192,-3.29319 m 23.70355,8.58932 -4.19532,2.93785 m 0,0 -4.19533,2.93786 -5.0432,0.88985 m 73.16787,0.26624 -15.68768,-13.17171 -9.89082,-2.64909 -5.0432,0.89088 m 0,0 -5.04217,0.89088 -4.94592,-1.32403 m 15.03129,-0.45773 -4.94489,-1.32403 m 0,0 -4.94592,-1.32403 -3.92192,-3.29318 m 13.81273,5.94124 -9.89081,-2.64806 -11.76474,-9.87955 m 0,0 -3.92192,-3.29216 -2.16473,-4.64077 m 17.85139,17.81248 -5.04218,0.89088 m 0,0 -5.0432,0.88986 -4.94592,-1.32404 m 34.81293,4.84045 -7.84384,-6.58637 -4.9449,-1.32403 m 0,0 -4.94592,-1.32403 -3.92192,-3.29318 m 13.81274,5.94124 -3.92192,-3.29318 m 0,0 -3.92192,-3.29318 -2.16371,-4.63975 m 10.00755,11.22611 -7.84384,-6.58636 -6.49216,-13.92128 m 0,0 -2.16371,-4.64077 v -5.12103 m 8.65587,23.68308 -4.9449,-1.32404 m 0,0 -4.94592,-1.32403 -3.92192,-3.29318 m 29.50042,19.11398 -15.68768,-13.17273 -12.98432,-27.84359 -3.92192,-3.29318 m 0,0 -3.92192,-3.29216 -2.16371,-4.64077 m 10.00755,11.22611 -2.16371,-4.64077 m 0,0 -2.16474,-4.63974 v -5.12205 m 4.32845,14.40256 -4.32845,-9.28051 v -15.3641 m 0,0 v -5.12102 l 2.16474,-4.64077 m -2.16474,25.12589 -3.92089,-3.29318 m 0,0 -3.92192,-3.29319 -2.16474,-4.64077 m 27.32032,48.35124 -9.89082,-2.64807 -5.04217,0.89088 m 0,0 -5.0432,0.89088 -4.94592,-1.32505 m 15.03129,-0.45671 -4.94489,-1.32403 m 0,0 -4.9449,-1.32403 -3.92192,-3.29319 m 13.81171,5.94125 -9.88979,-2.64806 -11.76576,-9.87955 m 0,0 -3.92192,-3.29216 -2.16473,-4.64077 m 17.85241,17.81248 -5.0432,0.88985 m 0,0 -5.0432,0.89088 -4.94489,-1.32403 m 66.18726,31.18387 -31.37536,-26.34444 -25.96864,-55.68717 -7.84384,-6.58535 -4.9449,-1.32505 m 0,0 -4.94592,-1.32403 -3.92192,-3.29319 m 13.81274,5.94227 -3.92192,-3.29318 m 0,0 -3.92192,-3.29318 -2.16371,-4.64077 m 10.00755,11.22713 -7.84384,-6.58636 -6.49216,-13.92231 m 0,0 -2.16371,-4.64077 v -5.12102 m 8.65587,23.6841 -4.9449,-1.32404 m 0,0 -4.94592,-1.32403 -3.92089,-3.29318 m 29.49939,19.11296 -4.32845,-9.28154 -3.92192,-3.29216 m 0,0 -3.92089,-3.29318 -2.16474,-4.64077 m 10.00755,11.22611 -2.16371,-4.63974 m 0,0 -2.16371,-4.64077 v -5.12102 m 4.32742,14.40153 -4.32742,-9.28051 v -15.3641 m 0,0 v -5.12102 l 2.16371,-4.63974 m -2.16371,25.12486 -3.92192,-3.29318 m 0,0 -3.92192,-3.29319 -2.16474,-4.64077 m 18.66445,29.78919 -8.65587,-18.56205 v -30.72717 l -2.16474,-4.64077 m 0,0 -2.16371,-4.63974 v -5.12154 m 4.32845,14.40205 v -5.12102 m 0,0 v -5.12103 l 2.16371,-4.640558 m -2.16371,14.882608 v -10.24205 l 6.49216,-13.921787 m 0,0 2.16371,-4.640563 3.92192,-3.29298 m -12.57779,21.85533 -2.16474,-4.640558 m 0,0 -2.16371,-4.640564 v -5.121126 m 4.32845,55.371468 -7.84384,-6.58637 -4.94592,-1.32403 m 0,0 -4.9449,-1.32403 -3.92192,-3.29319 m 13.81274,5.94125 -3.92192,-3.29318 m 0,0 -3.92192,-3.29319 -2.16371,-4.63974 m 10.00755,11.22611 -7.84384,-6.58637 -6.49216,-13.92128 m 0,0 -2.16371,-4.64076 v -5.12103 m 8.65587,23.68307 -4.9449,-1.32403 m 0,0 -4.94592,-1.32403 -3.92192,-3.29318 m 64.12493,93.3632 -19.78061,-5.29613 -10.0864,1.78073 -4.19533,2.93786 m 0,0 -4.19532,2.93683 -5.0432,0.89088 m 13.43385,-6.76557 -5.0432,0.89088 m 0,0 -5.04217,0.89088 -4.94592,-1.32403 m 15.03129,-0.45773 -10.08537,1.78176 -14.83674,-3.97312 m 0,0 -4.9449,-1.32403 -3.92192,-3.29318 m 23.70356,8.59033 -4.19533,2.93684 m 0,0 -4.19533,2.93785 -5.0432,0.89088 m 33.60563,-10.32806 -9.89081,-2.64909 -5.0432,0.89088 m 0,0 -5.0432,0.89088 -4.9449,-1.32403 m 15.0313,-0.45773 -4.94592,-1.32403 m 0,0 -4.9449,-1.32403 -3.92192,-3.29319 m 13.81274,5.94125 -9.89082,-2.64806 -11.76576,-9.87853 m 0,0 -3.92192,-3.29319 -2.16371,-4.64076 m 17.85139,17.81248 -5.0432,0.89088 m 0,0 -5.0432,0.88985 -4.9449,-1.32403 m 34.81293,4.84045 -19.78163,-5.29715 -23.53152,-19.75808 -4.9449,-1.32404 m 0,0 -4.94592,-1.32403 -3.92192,-3.29318 m 13.81274,5.94125 -3.92192,-3.29319 m 0,0 -3.92192,-3.29216 -2.16371,-4.64077 m 10.00755,11.22612 -7.84384,-6.58535 -6.49216,-13.9223 m 0,0 -2.16371,-4.64077 v -5.12102 m 8.65587,23.68409 -4.9449,-1.32505 m 0,0 -4.94489,-1.32404 -3.92192,-3.29318 m 45.18707,32.2857 -10.0864,1.78073 -4.19533,2.93786 m 0,0 -4.19533,2.93785 -5.04217,0.89088 m 13.43283,-6.76659 -5.04218,0.89088 m 0,0 -5.0432,0.89088 -4.94592,-1.32403 m 15.0313,-0.45773 -10.08538,1.78176 -14.83571,-3.97312 m 0,0 -4.94592,-1.32403 -3.92192,-3.29318 m 23.70355,8.59033 -4.19532,2.93786 m 0,0 -4.19533,2.93683 -5.0432,0.89088 m 135.91859,52.95309 -17.31277,-37.12512 -15.68768,-13.17171 -9.89081,-2.64807 -5.0432,0.88986 m 0,0 -5.04218,0.89088 -4.94592,-1.32403 m 15.0313,-0.45671 -4.9449,-1.32505 m 0,0 -4.94592,-1.32404 -3.92192,-3.29318 m 13.81274,5.94227 -9.89082,-2.64909 -11.76576,-9.87852 m 0,0 -3.9209,-3.29319 -2.16473,-4.64077 m 17.85139,17.81248 -5.04218,0.89088 m 0,0 -5.0432,0.89088 -4.94592,-1.32403 m 34.81293,4.83943 -7.84384,-6.58637 -4.94489,-1.32403 m 0,0 -4.94592,-1.32404 -3.92192,-3.29318 m 13.81273,5.94125 -3.92192,-3.29216 m 0,0 -3.92192,-3.29319 -2.16371,-4.64076 m 10.00755,11.22611 -7.84384,-6.58535 -6.49216,-13.9223 m 0,0 -2.16371,-4.64077 v -5.12102 m 8.65587,23.68409 -4.94489,-1.32403 m 0,0 -4.94592,-1.32505 -3.92192,-3.29216 m 29.50041,19.11296 -15.68768,-13.17172 -12.98432,-27.84358 -3.92192,-3.29318 m 0,0 -3.92192,-3.29319 -2.16371,-4.64077 m 10.00755,11.22714 -2.16371,-4.64077 m 0,0 -2.16474,-4.64077 v -5.12102 m 4.32845,14.40256 -4.32845,-9.28154 V 156.1194 m 0,0 v -5.12102 l 2.16474,-4.64077 m -2.16474,25.12486 -3.92192,-3.29318 m 0,0 -3.92192,-3.29318 -2.16371,-4.63975 m 27.32032,48.35123 -9.89081,-2.64908 -5.04218,0.89088 m 0,0 -5.0432,0.89088 -4.94592,-1.32404 m 15.0313,-0.45772 -4.9449,-1.32404 m 0,0 -4.9449,-1.32403 -3.92192,-3.29318 m 13.81172,5.94125 -9.8898,-2.64807 -11.76576,-9.87853 m 0,0 -3.92192,-3.29318 -2.16473,-4.64077 m 17.85241,17.81248 -5.0432,0.89088 m 0,0 -5.0432,0.89088 -4.94489,-1.32505 m 66.18726,31.18387 -8.65689,-18.56205 -7.84282,-6.58637 -4.94592,-1.32403 m 0,0 -4.9449,-1.32403 -3.92192,-3.29319 m 13.81274,5.94125 -3.92192,-3.29318 m 0,0 -3.92192,-3.29216 -2.16474,-4.64077 M 472.72,209.8026 464.87616,203.21726 458.384,189.29495 m 0,0 -2.16474,-4.64076 v -5.12103 m 8.6569,23.6841 -4.94592,-1.32506 m 0,0 -4.9449,-1.32403 -3.92192,-3.29318 m 29.4994,19.11398 -4.32743,-9.28154 -3.92192,-3.29318 m 0,0 -3.92192,-3.29318 -2.16473,-4.63975 m 10.00857,11.22611 -2.16473,-4.64076 m 0,0 -2.16372,-4.64077 v -5.12103 m 4.32845,14.40256 -4.32845,-9.28153 v -15.36307 m 0,0 v -5.12103 l 2.16372,-4.64077 m -2.16372,25.12487 -3.92192,-3.29319 m 0,0 -3.92192,-3.29216 -2.16371,-4.64076 m 18.66343,29.78918 -8.65588,-18.56307 v -30.72615 l -2.16371,-4.64076 m 0,0 -2.16473,-4.64077 v -5.12103 m 4.32844,14.40256 v -5.12102 m 0,0 v -5.12102 l 2.16372,-4.64077 m -2.16372,14.88281 v -10.24204 l 6.49216,-13.92231 m 0,0 2.16372,-4.64077 3.92192,-3.29216 m -12.5778,21.85524 -2.16371,-4.64077 m 0,0 -2.16473,-4.64077 v -5.12102 m 4.32844,55.37075 -7.84384,-6.58535 -4.94489,-1.32403 m 0,0 -4.94592,-1.32505 -3.92192,-3.29216 m 13.81273,5.94124 -3.92192,-3.29318 m 0,0 -3.92192,-3.29318 -2.16371,-4.64077 m 10.00755,11.22713 -7.84384,-6.58636 -6.49216,-13.92128 m 0,0 -2.16371,-4.64077 v -5.12103 m 8.65587,23.68308 -4.94489,-1.32404 m 0,0 -4.94592,-1.32403 -3.92192,-3.29318 m 46.81318,56.23808 -17.31277,-37.12512 v -61.45331 l -4.32844,-9.28052 -3.92192,-3.29318 m 0,0 -3.92192,-3.29318 -2.16372,-4.64077 m 10.00756,11.22713 -2.16372,-4.64076 m 0,0 -2.16371,-4.64077 v -5.12103 m 4.32743,14.40256 -4.32743,-9.28153 v -15.36307 m 0,0 v -5.121232 l 2.16371,-4.640666 m -2.16371,25.124968 -3.92192,-3.29319 m 0,0 -3.92192,-3.29318 -2.16473,-4.63974 m 18.66444,29.78816 v -10.24205 l -2.16371,-4.64077 m 0,0 -2.16473,-4.63974 V 111.729 m 4.32844,14.40154 v -5.12103 m 0,0 v -5.12102 l 2.16372,-4.64077 m -2.16372,14.88282 v -10.24205 l 6.49216,-13.92128 m 0,0 2.16372,-4.640972 3.92192,-3.292979 m -12.5778,21.855231 -2.16371,-4.64077 m 0,0 -2.16473,-4.64077 v -5.12102 m 4.32844,34.88666 v -20.4841 l 12.98432,-27.843583 v -5.121024 m 0,0 v -5.121127 l 2.16372,-4.640665 m -2.16372,14.882816 2.16372,-4.640563 m 0,0 2.16473,-4.640666 3.92192,-3.292979 m -8.25037,12.574208 4.32845,-9.281229 11.76576,-9.878938 m 0,0 3.92192,-3.292876 4.9449,-1.324237 m -20.63258,14.496051 v -5.121126 m 0,0 v -5.121024 l 2.16371,-4.640666 m -19.47648,52.007628 -4.32844,-9.28154 -3.92192,-3.29216 m 0,0 -3.92192,-3.29328 -2.16372,-4.640667 m 10.00756,11.226107 -2.16372,-4.63974 m 0,0 -2.16371,-4.640972 v -5.121126 m 4.32743,14.401838 -4.32743,-9.280712 V 81.962961 m 0,0 v -5.121126 l 2.16371,-4.640666 m -2.16371,25.125069 -3.92192,-3.292979 m 0,0 -3.92192,-3.292979 -2.16473,-4.640666 m 18.66444,111.726286 -15.68768,-13.17171 -9.89081,-2.64807 -5.04218,0.89088 m 0,0 -5.0432,0.88986 -4.94592,-1.32403 m 15.0313,-0.45671 -4.9449,-1.32403 m 0,0 -4.94489,-1.32506 -3.92192,-3.29216 m 13.81171,5.94125 -9.88979,-2.64909 -11.76576,-9.87852 m 0,0 -3.92192,-3.29319 -2.16474,-4.64077 m 17.85242,17.81248 -5.0432,0.89088 m 0,0 -5.0432,0.89088 -4.9449,-1.32403 m 34.8119,4.83943 -7.84384,-6.58535 -4.94489,-1.32505 m 0,0 -4.94592,-1.32404 -3.9209,-3.29318 m 13.81171,5.94227 -3.92192,-3.29318 m 0,0 -3.92192,-3.29319 -2.16371,-4.64076 m 10.00755,11.22713 -7.84384,-6.58637 -6.49216,-13.9223 m 0,0 -2.16371,-4.63974 v -5.12205 m 8.65587,23.68409 -4.94489,-1.32403 m 0,0 -4.9449,-1.32403 -3.92192,-3.29318 m 29.49939,19.11296 -15.68768,-13.17172 -12.98432,-27.84358 -3.92192,-3.29318 m 0,0 -3.92192,-3.29319 -2.16371,-4.64077 m 10.00755,11.22714 -2.16371,-4.64077 m 0,0 -2.16371,-4.64077 v -5.12102 m 4.32742,14.40256 -4.32742,-9.28154 v -15.36307 m 0,0 v -5.12102 l 2.16371,-4.64077 m -2.16371,25.12486 -3.92192,-3.29318 m 0,0 -3.92192,-3.29216 -2.16474,-4.64077 m 27.32032,48.35123 -9.88979,-2.64806 -5.0432,0.88986 m 0,0 -5.0432,0.89088 -4.94489,-1.32404 m 15.03129,-0.4567 -4.94592,-1.32506 m 0,0 -4.94489,-1.32403 -3.92192,-3.29318 m 13.81273,5.94227 -9.89081,-2.64909 -11.76576,-9.87853 m 0,0 -3.92192,-3.29318 -2.16372,-4.64077 m 17.8514,17.81248 -5.0432,0.89088 m 0,0 -5.0432,0.89088 -4.9449,-1.32403 M 506.53248,272.07614 471.90694,197.8259 V 74.919992 l -8.65587,-18.56256 -7.84384,-6.585959 -4.94592,-1.324134 m 0,0 -4.94489,-1.324237 -3.92192,-3.292979 m 13.81273,5.94135 -3.92192,-3.292979 m 0,0 -3.92192,-3.292877 -2.16371,-4.640665 m 10.00755,11.226521 -7.84384,-6.585856 -6.49216,-13.921894 m 0,0 -2.16473,-4.640666 v -5.121126 m 8.65689,23.683686 -4.94592,-1.324237 m 0,0 -4.94489,-1.324236 -3.92192,-3.29298 m 29.50041,19.113268 -4.32845,-9.281229 -3.92192,-3.292979 m 0,0 -3.92192,-3.29298 -2.16371,-4.640563 m 10.00755,11.226522 -2.16371,-4.640666 m 0,0 -2.16473,-4.640563 v -5.121126 m 4.32844,14.402355 -4.32844,-9.281229 V 22.431697 m 0,0 v -5.121126 l 2.16473,-4.640666 m -2.16473,25.125069 -3.92192,-3.292979 m 0,0 -3.92192,-3.292979 -2.16372,-4.640666 m 18.66445,29.789082 -8.65689,-18.562458 V 7.0683793 l -2.16372,-4.6406246 m 0,0 -2.16371,-4.6406226 v -5.1210977 m 4.32743,14.4023449 V 1.9472837 m 0,0 v -5.1210855 l 2.16473,-4.6406246 M 454.59418,7.0683793 V -3.1738018 l 6.49216,-13.9219252 m 0,0 2.16473,-4.640563 3.92192,-3.292979 m -12.57881,21.8554672 -2.16372,-4.6406246 m 0,0 -2.16371,-4.6406346 v -5.121127 m 4.32743,55.371162 -7.84384,-6.585958 -4.9449,-1.324237 m 0,0 -4.9449,-1.324237 -3.92192,-3.292979 m 13.81172,5.941453 -3.92192,-3.29298 m 0,0 -3.92192,-3.292979 -2.16372,-4.640563 m 10.00756,11.226522 -7.84384,-6.585959 -6.49216,-13.921894 m 0,0 -2.16372,-4.6405942 V 0.9394731 m 8.65588,23.6835839 -4.9449,-1.324237 m 0,0 -4.9449,-1.324236 -3.92192,-3.292877 m 46.81216,56.238285 V 54.435588 l -4.32844,-9.281228 -3.92192,-3.29298 m 0,0 -3.92192,-3.292979 -2.16372,-4.640665 m 10.00756,11.226624 -2.16372,-4.640666 m 0,0 -2.16371,-4.640666 v -5.121024 m 4.32743,14.402356 -4.32743,-9.281332 V 20.509752 m 0,0 v -5.121024 l 2.16371,-4.640666 m -2.16371,25.124966 -3.92192,-3.292876 m 0,0 -3.92192,-3.29298 -2.16473,-4.640665 m 18.66444,29.789081 V 44.193336 l -2.16371,-4.640564 m 0,0 -2.16473,-4.640665 v -5.121024 m 4.32844,14.402253 v -5.121024 m 0,0 v -5.121127 l 2.16372,-4.640665 m -2.16372,14.882816 V 33.951185 l 6.49216,-13.921894 m 0,0 2.16372,-4.640563 3.92192,-3.29298 m -12.5778,21.855437 -2.16371,-4.640665 m 0,0 -2.16473,-4.640564 V 19.54883 m 4.32844,34.886758 V 33.951185 L 484.89126,6.1074475 V 0.98635182 m 0,0 V -4.1347439 l 2.16372,-4.6406246 m -2.16372,14.882816 2.16372,-4.6406246 m 0,0 2.16473,-4.6406247 3.92192,-3.2929689 m -8.25037,12.5742182 4.32845,-9.2812493 11.76576,-9.8788662 m 0,0 3.92192,-3.292979 4.9449,-1.324237 m -20.63258,14.4960822 v -5.1210957 m 0,0 v -5.1210855 l 2.16371,-4.640665 m -19.47648,52.007833 -4.32844,-9.281229 -3.92192,-3.292979 m 0,0 -3.92192,-3.292979 -2.16372,-4.640666 m 10.00756,11.226624 -2.16372,-4.640665 m 0,0 -2.16371,-4.640563 v -5.121127 m 4.32743,14.402355 -4.32743,-9.281228 V 0.02540974 m 0,0 V -5.0956757 l 2.16371,-4.6406246 m -2.16371,25.1250283 -3.92192,-3.29298 m 0,0 -3.92192,-3.2929789 -2.16473,-4.6406349 M 471.90694,74.919992 V 33.951185 l 25.96864,-55.687475 v -10.242253 l -2.16371,-4.640563 m 0,0 -2.16473,-4.640666 v -5.121024 m 4.32844,14.402253 v -5.121024 m 0,0 v -5.121126 l 2.16372,-4.640563 m -2.16372,14.882713 v -10.24215 l 6.49216,-13.921895 m 0,0 2.16474,-4.640563 3.9209,-3.292979 m -12.5778,21.855437 -2.16371,-4.640563 m 0,0 -2.16473,-4.640666 v -5.121126 m 4.32844,34.886758 4.32845,-9.281229 v -5.121126 m 0,0 v -5.121127 l 2.16371,-4.640563 m -2.16371,14.882816 2.16371,-4.640665 m 0,0 2.16474,-4.640666 3.9209,-3.292877 m -8.24935,12.574208 4.32845,-9.281331 11.76474,-9.878835 m 0,0 3.92192,-3.292979 4.94592,-1.324237 m -20.63258,14.496051 v -5.121024 m 0,0 V -50.541 l 2.16371,-4.640666 m -10.82061,33.445376 8.6569,-18.56256 23.5305,-19.757773 2.16473,-4.640665 m 0,0 2.16371,-4.640564 3.92192,-3.292979 m -8.25036,12.574208 3.92192,-3.292979 m 0,0 3.92192,-3.292979 4.94592,-1.324237 m -12.78976,7.910195 7.84384,-6.585958 14.83571,-3.972608 m 0,0 4.94592,-1.324237 5.0432,0.890573 m -24.82483,4.406272 2.16473,-4.640563 m 0,0 2.16371,-4.640666 3.92192,-3.292979 m -39.6247,38.917939 V -50.541 l -2.16474,-4.640666 m 0,0 -2.16371,-4.640563 v -5.121127 m 4.32845,14.402356 v -5.121127 m 0,0 v -5.121024 l 2.16371,-4.640665 M 506.53248,-50.541 v -10.242151 l 6.49216,-13.921894 m 0,0 2.16371,-4.640666 3.92192,-3.292979 m -12.57779,21.855539 -2.16474,-4.640665 m 0,0 -2.16371,-4.640564 v -5.121126 M 471.90694,33.951185 463.25107,15.388728 455.40723,8.8027691 450.46131,7.4785425 m 0,0 -4.94489,-1.3242265 -3.92192,-3.292969 m 13.81273,5.9414221 -3.92192,-3.2929792 m 0,0 -3.92192,-3.292969 -2.16371,-4.6406266 m 10.00755,11.2265748 -7.84384,-6.5859482 -6.49216,-13.9218739 m 0,0 -2.16473,-4.640594 v -5.121126 m 8.65689,23.6835939 -4.94592,-1.32421628 m 0,0 -4.94489,-1.32422656 -3.92192,-3.29296896 m 29.50041,19.1133189 -4.32845,-9.2812805 -3.92192,-3.292969 m 0,0 -3.92192,-3.29296892 -2.16371,-4.64062468 m 10.00755,11.2265626 -2.16371,-4.6406246 m 0,0 -2.16473,-4.6406247 v -5.1210957 m 4.32844,14.402345 -4.32844,-9.2812493 V -18.537109 m 0,0 v -5.121024 l 2.16473,-4.640666 m -2.16473,25.1249972 -3.92192,-3.2929689 m 0,0 -3.92192,-3.292969 -2.16372,-4.6406143 m 18.66445,29.789082 -8.65689,-18.5625298 V -33.900386 l -2.16372,-4.640563 m 0,0 -2.16371,-4.640666 v -5.121126 m 4.32743,14.402355 v -5.121126 m 0,0 v -5.121024 l 2.16473,-4.640666 m -2.16473,14.882816 v -10.24215 l 6.49216,-13.921895 m 0,0 2.16473,-4.640665 3.92192,-3.292877 m -12.57881,21.855437 -2.16372,-4.640666 m 0,0 -2.16371,-4.640563 v -5.121127 m 4.32743,55.3710902 -7.84384,-6.5859379 -4.9449,-1.3242263 m 0,0 -4.9449,-1.324196 -3.92192,-3.292979 m 13.81172,5.9414013 -3.92192,-3.2929283 m 0,0 -3.92192,-3.292979 -2.16372,-4.640665 m 10.00756,11.2265723 -7.84384,-6.5859073 -6.49216,-13.921894 m 0,0 -2.16372,-4.640666 v -5.121024 m 8.65588,23.683584 -4.9449,-1.324237 m 0,0 -4.9449,-1.324236 -3.92192,-3.29298 m 46.81216,220.113 -31.37536,-26.34343 -19.7806,-5.29715 -10.0864,1.78176 -4.19533,2.93683 m 0,0 -4.19533,2.93786 -5.0432,0.89088 m 13.43386,-6.76557 -5.0432,0.88986 m 0,0 -5.04218,0.89088 -4.94592,-1.32403 m 15.0313,-0.45671 -10.08538,1.78074 -14.83674,-3.9721 m 0,0 -4.94489,-1.32403 -3.92192,-3.29318 m 23.70355,8.58931 -4.19533,2.93785 m 0,0 -4.19533,2.93786 -5.0432,0.88986 m 33.60564,-10.32807 -9.89082,-2.64806 -5.0432,0.89088 m 0,0 -5.0432,0.88985 -4.9449,-1.32403 m 15.0313,-0.4567 -4.9449,-1.32403 m 0,0 -4.94592,-1.32404 -3.92192,-3.29318 m 13.81274,5.94125 -9.89082,-2.64807 -11.76576,-9.87955 m 0,0 -3.92192,-3.29318 -2.16371,-4.64077 m 17.85139,17.8135 -5.0432,0.88986 m 0,0 -5.04217,0.89088 -4.94592,-1.32403 m 34.81293,4.83942 -19.78164,-5.29613 -23.53152,-19.75808 -4.94489,-1.32403 m 0,0 -4.9449,-1.32505 -3.92192,-3.29216 m 13.81171,5.94124 -3.92192,-3.29318 m 0,0 -3.92192,-3.29318 -2.16371,-4.64077 m 10.00755,11.22713 -7.84384,-6.58636 -6.49216,-13.92128 m 0,0 -2.16371,-4.64077 v -5.12103 m 8.65587,23.68308 -4.94489,-1.32404 m 0,0 -4.9449,-1.32403 -3.92192,-3.29318 m 45.18707,32.28569 -10.08537,1.78074 -4.19533,2.93786 m 0,0 -4.19533,2.93683 -5.0432,0.89088 m 13.43386,-6.76557 -5.0432,0.89088 m 0,0 -5.0432,0.89088 -4.9449,-1.32506 m 15.0313,-0.4567 -10.0864,1.78176 -14.83571,-3.97312 m 0,0 -4.94592,-1.32403 -3.92192,-3.29319 m 23.70355,8.59034 -4.19533,2.93683 m 0,0 -4.19533,2.93786 -5.0432,0.89088 m 73.16787,0.26521 -15.68665,-13.17171 -9.89082,-2.64909 -5.0432,0.89088 m 0,0 -5.0432,0.89088 -4.94489,-1.32403 m 15.03129,-0.45773 -4.94592,-1.32403 m 0,0 -4.94489,-1.32403 -3.92192,-3.29318 m 13.81273,5.94124 -9.89081,-2.64806 -11.76576,-9.87853 m 0,0 -3.92192,-3.29318 -2.16372,-4.64077 m 17.8514,17.81248 -5.0432,0.89088 m 0,0 -5.0432,0.89088 -4.9449,-1.32506 m 34.81293,4.84045 -7.84384,-6.58637 -4.94592,-1.32403 m 0,0 -4.9449,-1.32403 -3.92192,-3.29318 m 13.81274,5.94124 -3.92192,-3.29318 m 0,0 -3.92192,-3.29216 -2.16474,-4.64077 m 10.00858,11.22611 -7.84384,-6.58534 -6.49216,-13.9223 m 0,0 -2.16474,-4.64077 v -5.12103 m 8.6569,23.6841 -4.94592,-1.32506 m 0,0 -4.9449,-1.32403 -3.92192,-3.29318 m 29.50042,19.11398 -15.68768,-13.17171 -12.98432,-27.84461 -3.92192,-3.29216 m 0,0 -3.92192,-3.29318 -2.16474,-4.64077 m 10.00858,11.22611 -2.16474,-4.63974 m 0,0 -2.16371,-4.64077 v -5.12102 m 4.32845,14.40153 -4.32845,-9.28051 V 92.650449 m 0,0 v -5.121126 l 2.16371,-4.640666 m -2.16371,25.125273 -3.92192,-3.29318 m 0,0 -3.92192,-3.29319 -2.16371,-4.640458 m 27.32032,48.351948 -9.89082,-2.64909 -5.0432,0.89088 m 0,0 -5.0432,0.89088 -4.94489,-1.32403 m 15.03129,-0.45773 -4.94489,-1.32403 m 0,0 -4.94592,-1.32403 -3.92192,-3.29319 m 13.81273,5.94125 -9.89081,-2.64806 -11.76576,-9.87853 m 0,0 -3.92192,-3.29318 -2.16372,-4.64077 m 17.8514,17.81248 -5.0432,0.89088 m 0,0 -5.04218,0.88985 -4.94592,-1.32403 m 66.18726,31.18387 -31.37433,-26.34342 -25.96864,-55.687884 -7.84384,-6.585958 -4.94592,-1.324135 m 0,0 -4.9449,-1.324237 -3.92192,-3.292979 m 13.81274,5.941351 -3.92192,-3.292877 m 0,0 -3.92192,-3.292979 -2.16474,-4.640666 m 10.00858,11.226522 -7.84384,-6.585856 -6.49216,-13.921895 m 0,0 -2.16474,-4.640665 v -5.121024 m 8.6569,23.683584 -4.94592,-1.324237 m 0,0 -4.9449,-1.324237 -3.92192,-3.292979 m 29.50042,19.113267 -4.32845,-9.281229 -3.92192,-3.292979 m 0,0 -3.92192,-3.292979 -2.16371,-4.640563 m 10.00755,11.226521 -2.16371,-4.640665 m 0,0 -2.16474,-4.640564 v -5.121126 m 4.32845,14.402355 -4.32845,-9.281229 V 55.525432 m 0,0 v -5.121127 l 2.16474,-4.640563 m -2.16474,25.124966 -3.92192,-3.292979 m 0,0 -3.92192,-3.292979 -2.16371,-4.640666 m 18.66445,29.789082 -8.6569,-18.562458 V 40.162155 L 372.368,35.521489 m 0,0 -2.16371,-4.640563 V 25.7598 m 4.32742,14.402355 v -5.121127 m 0,0 v -5.121126 l 2.16474,-4.640563 m -2.16474,14.882816 V 29.919902 l 6.49216,-13.921792 m 0,0 2.16474,-4.640666 3.92192,-3.2929687 M 374.53171,29.919902 372.368,25.279339 m 0,0 -2.16371,-4.640666 v -5.121024 m 4.32742,55.371059 -7.84384,-6.585958 -4.94489,-1.324237 m 0,0 -4.9449,-1.324237 -3.92192,-3.292876 m 13.81171,5.94135 -3.92192,-3.292979 m 0,0 -3.92192,-3.292979 -2.16371,-4.640564 m 10.00755,11.226522 -7.84384,-6.585958 -6.49216,-13.921895 m 0,0 -2.16371,-4.640563 v -5.121126 m 8.65587,23.683584 -4.94489,-1.324237 m 0,0 -4.9449,-1.324135 -3.92192,-3.292979 m 64.12493,93.363609 -19.78163,-5.29715 -10.08538,1.78073 -4.19533,2.93786 m 0,0 -4.19533,2.93786 -5.0432,0.88985 m 13.43386,-6.76557 -5.0432,0.89088 m 0,0 -5.0432,0.89088 -4.9449,-1.32403 m 15.0313,-0.45773 -10.0864,1.78176 -14.83571,-3.97312 m 0,0 -4.94592,-1.32403 -3.92192,-3.29318 m 23.70355,8.59033 -4.19533,2.93786 m 0,0 -4.19533,2.93683 -5.0432,0.89088 m 33.60564,-10.32806 -9.89082,-2.64807 -5.04218,0.88986 m 0,0 -5.0432,0.89088 -4.94592,-1.32403 m 15.0313,-0.45671 -4.9449,-1.32505 m 0,0 -4.94592,-1.32403 -3.92089,-3.29319 m 13.81171,5.94227 -9.89082,-2.64908 -11.76473,-9.87853 m 0,0 -3.92192,-3.29319 -2.16474,-4.64076 m 17.85139,17.81248 -5.04217,0.89088 m 0,0 -5.0432,0.89088 -4.9449,-1.32404 m 34.81191,4.83943 -19.78164,-5.29715 -23.53049,-19.75808 -4.94592,-1.32404 m 0,0 -4.9449,-1.32403 -3.92192,-3.29318 m 13.81274,5.94125 -3.92192,-3.29216 m 0,0 -3.92192,-3.29319 -2.16371,-4.64077 m 10.00755,11.22612 -7.84384,-6.58535 -6.49216,-13.921994 m 0,0 -2.16474,-4.640666 v -5.121024 m 8.6569,23.683684 -4.94592,-1.32403 m 0,0 -4.9449,-1.32403 -3.92192,-3.29319 m 45.18707,32.28468 -10.08537,1.78176 -4.19533,2.93683 m 0,0 -4.19533,2.93785 -5.0432,0.89088 m 13.43386,-6.76556 -5.0432,0.88985 m 0,0 -5.0432,0.89088 -4.9449,-1.32403 m 15.0313,-0.4567 -10.0864,1.78073 -14.83571,-3.97209 m 0,0 -4.9449,-1.32506 -3.92192,-3.29216 m 23.70253,8.58931 -4.19533,2.93786 m 0,0 -4.19533,2.93785 -5.04217,0.88986 m 205.16761,201.45357 v -81.93741 l -17.31277,-37.12512 -15.68768,-13.17171 -9.88979,-2.64909 -5.0432,0.89088 m 0,0 -5.0432,0.89088 -4.94489,-1.32403 m 15.03129,-0.45773 -4.94592,-1.32403 m 0,0 -4.94489,-1.32403 -3.92192,-3.29319 m 13.81273,5.94125 -9.89081,-2.64806 -11.76576,-9.87853 m 0,0 -3.92192,-3.29319 -2.16372,-4.64076 m 17.8514,17.81248 -5.0432,0.89088 m 0,0 -5.0432,0.88985 -4.9449,-1.32403 m 34.8119,4.84045 -7.84281,-6.58637 -4.94592,-1.32403 m 0,0 -4.9449,-1.32403 -3.92192,-3.29319 m 13.81274,5.94125 -3.92192,-3.29318 m 0,0 -3.92192,-3.29216 -2.16474,-4.64077 m 10.00858,11.22611 -7.84384,-6.58534 -6.49216,-13.92231 m 0,0 -2.16474,-4.64077 v -5.12102 m 8.6569,23.6841 -4.94592,-1.32506 m 0,0 -4.9449,-1.32403 -3.92192,-3.29319 m 29.49939,19.11399 -15.68665,-13.17171 -12.98432,-27.84461 -3.92192,-3.29216 m 0,0 -3.92192,-3.29319 -2.16474,-4.64076 m 10.00858,11.22611 -2.16474,-4.63975 m 0,0 -2.16371,-4.64076 v -5.12103 m 4.32845,14.40154 -4.32845,-9.28051 v -15.3641 m 0,0 v -5.12102 l 2.16371,-4.63975 m -2.16371,25.12487 -3.92192,-3.29319 m 0,0 -3.92192,-3.29318 -2.16371,-4.64077 m 27.32032,48.35226 -9.89082,-2.64909 -5.0432,0.89088 m 0,0 -5.0432,0.89088 -4.94489,-1.32506 m 15.03129,-0.4567 -4.94592,-1.32403 m 0,0 -4.94489,-1.32404 -3.92192,-3.29318 m 13.81273,5.94125 -9.89081,-2.64807 -11.76576,-9.87955 m 0,0 -3.92192,-3.29216 -2.16372,-4.64077 m 17.8514,17.81248 -5.0432,0.89088 m 0,0 -5.0432,0.88986 -4.9449,-1.32403 m 66.18726,31.18387 -8.65587,-18.56307 -7.84384,-6.58535 -4.94489,-1.32403 m 0,0 -4.94592,-1.32505 -3.92192,-3.29216 m 13.81273,5.94124 -3.92192,-3.29318 m 0,0 -3.92192,-3.29318 -2.16371,-4.64077 m 10.00755,11.22713 -7.84384,-6.58636 -6.49216,-13.92128 m 0,0 -2.16371,-4.64077 v -5.12103 m 8.65587,23.68308 -4.94489,-1.32404 m 0,0 -4.94592,-1.32403 -3.92192,-3.29318 m 29.50041,19.11296 -4.32845,-9.28051 -3.92192,-3.29319 m 0,0 -3.92192,-3.29318 -2.16371,-4.64077 m 10.00755,11.22714 -2.16371,-4.64077 m 0,0 -2.16371,-4.64077 v -5.12102 m 4.32742,14.40256 -4.32742,-9.28154 v -15.36307 m 0,0 v -5.12103 l 2.16371,-4.64076 m -2.16371,25.12486 -3.92192,-3.29318 m 0,0 -3.92192,-3.29319 -2.16474,-4.63974 m 18.66445,29.78816 -8.65587,-18.56205 v -30.72614 l -2.16474,-4.64077 m 0,0 -2.16371,-4.64077 v -5.12102 m 4.32845,14.40256 v -5.12205 m 0,0 v -5.12103 l 2.16371,-4.63974 m -2.16371,14.88282 v -10.24308 l 6.49216,-13.92128 m 0,0 2.16371,-4.64076 3.92192,-3.29319 m -12.57779,21.85523 -2.16474,-4.63974 m 0,0 -2.16371,-4.64077 v -5.12102 m 4.32845,55.37075 -7.84384,-6.58637 -4.94592,-1.32403 m 0,0 -4.9449,-1.32403 -3.92192,-3.29319 m 13.81274,5.94125 -3.92192,-3.29216 m 0,0 -3.92192,-3.29318 -2.16474,-4.64077 m 10.00858,11.22611 -7.84384,-6.58534 -6.49216,-13.92231 m 0,0 -2.16474,-4.64076 v -5.12103 m 8.6569,23.6841 -4.94592,-1.32403 m 0,0 -4.9449,-1.32506 -3.92192,-3.29216 m 46.81216,56.23808 -17.31174,-37.12512 v -61.45331 l -4.32845,-9.28154 -3.92192,-3.29216 m 0,0 -3.92192,-3.29318 -2.16371,-4.64077 m 10.00755,11.22611 -2.16473,-4.63974 m 0,0 -2.16372,-4.64077 v -5.12102 m 4.32845,14.40153 -4.32845,-9.28051 V 94.759787 m 0,0 V 89.63866 l 2.16372,-4.640563 m -2.16372,25.125273 -3.92192,-3.29318 m 0,0 -3.92192,-3.29319 -2.16371,-4.640458 m 18.66445,29.788878 v -10.24205 l -2.16474,-4.64077 m 0,0 -2.16371,-4.64077 v -5.12102 m 4.32845,14.40256 v -5.12102 m 0,0 v -5.12103 l 2.16371,-4.64077 m -2.16371,14.88282 v -10.24205 l 6.49216,-13.921994 m 0,0 2.16371,-4.640666 3.92192,-3.292979 m -12.57779,21.855639 -2.16474,-4.64077 m 0,0 -2.16371,-4.640558 v -5.121127 m 4.32845,34.886555 v -20.4841 L 519.5168,80.357432 v -5.121127 m 0,0 v -5.121024 l 2.16371,-4.640665 m -2.16371,14.882816 2.16371,-4.640564 m 0,0 2.16371,-4.640665 3.92192,-3.292979 m -8.24934,12.574208 4.32742,-9.281229 11.76576,-9.878938 m 0,0 3.92192,-3.292979 4.9449,-1.324134 m -20.63258,14.496051 v -5.121127 m 0,0 v -5.121024 l 2.16474,-4.640665 m -19.47648,52.007933 -4.32845,-9.281328 -3.92192,-3.29298 m 0,0 -3.92192,-3.292979 -2.16371,-4.640665 m 10.00755,11.226624 -2.16473,-4.640666 m 0,0 -2.16372,-4.640666 v -5.121024 m 4.32845,14.402356 -4.32845,-9.281332 V 74.275384 m 0,0 V 69.15436 l 2.16372,-4.640666 m -2.16372,25.124966 -3.92192,-3.292979 m 0,0 -3.92192,-3.292877 -2.16371,-4.640665 m 18.66445,111.726591 -15.68768,-13.17171 -9.89082,-2.64909 -5.0432,0.89088 m 0,0 -5.0432,0.89088 -4.94489,-1.32403 m 15.03129,-0.45773 -4.94592,-1.32403 m 0,0 -4.94489,-1.32403 -3.92192,-3.29319 m 13.81273,5.94125 -9.89081,-2.64806 -11.76576,-9.87853 m 0,0 -3.92192,-3.29319 -2.16371,-4.64076 m 17.85139,17.81248 -5.0432,0.89088 m 0,0 -5.04218,0.89088 -4.94592,-1.32506 m 34.81293,4.84045 -7.84384,-6.58637 -4.94592,-1.32403 m 0,0 -4.9449,-1.32403 -3.92192,-3.29319 m 13.81274,5.94125 -3.92192,-3.29318 m 0,0 -3.92192,-3.29216 -2.16371,-4.64077 m 10.00755,11.22611 -7.84384,-6.58534 -6.49216,-13.92231 m 0,0 -2.16371,-4.64077 v -5.12102 m 8.65587,23.6841 -4.94592,-1.32506 m 0,0 -4.9449,-1.32403 -3.92192,-3.29319 m 29.50042,19.11399 -15.68768,-13.17171 -12.98432,-27.84461 -3.92192,-3.29216 m 0,0 -3.92192,-3.29319 -2.16371,-4.64076 m 10.00755,11.22611 -2.16474,-4.63975 m 0,0 -2.16371,-4.64076 v -5.12103 m 4.32845,14.40154 -4.32845,-9.28051 v -15.36308 m 0,0 v -5.12204 l 2.16371,-4.63975 m -2.16371,25.12487 -3.92192,-3.29319 m 0,0 -3.92192,-3.29318 -2.16371,-4.64077 m 27.32032,48.35226 -9.89082,-2.64909 -5.0432,0.89088 m 0,0 -5.04217,0.89088 -4.94592,-1.32403 m 15.03129,-0.45773 -4.94489,-1.32403 m 0,0 -4.94592,-1.32404 -3.92192,-3.29318 m 13.81273,5.94125 -9.89081,-2.64807 -11.76576,-9.87852 m 0,0 -3.92192,-3.29319 -2.16371,-4.64077 m 17.85139,17.81248 -5.0432,0.89088 m 0,0 -5.04218,0.88986 -4.94592,-1.32403 m 100.8128,105.43411 v -40.96922 l -8.65587,-18.56204 -7.84384,-6.58637 -4.94592,-1.32403 m 0,0 -4.9449,-1.32404 -3.92192,-3.29318 m 13.81274,5.94125 -3.92192,-3.29319 m 0,0 -3.92192,-3.29216 -2.16474,-4.64076 m 10.00858,11.22611 -7.84384,-6.58535 -6.49216,-13.9223 m 0,0 -2.16474,-4.64077 v -5.12102 m 8.6569,23.68409 -4.94592,-1.32505 m 0,0 -4.9449,-1.32403 -3.92192,-3.29319 m 29.50042,19.11399 -4.32845,-9.28154 -3.92192,-3.29318 m 0,0 -3.92192,-3.29319 -2.16371,-4.63974 m 10.00755,11.22611 -2.16371,-4.64077 m 0,0 -2.16474,-4.64077 v -5.12102 m 4.32845,14.40256 -4.32845,-9.28154 v -15.36307 m 0,0 v -5.12102 l 2.16474,-4.64077 m -2.16474,25.12486 -3.92192,-3.29216 m 0,0 -3.92192,-3.29318 -2.16371,-4.64077 m 18.66445,29.78919 -8.6569,-18.56308 v -30.72614 l -2.16371,-4.64077 m 0,0 -2.16371,-4.64077 v -5.12102 m 4.32742,14.40256 v -5.12102 m 0,0 v -5.12103 l 2.16474,-4.64077 m -2.16474,14.88282 v -10.24205 l 6.49216,-13.9223 m 0,0 2.16474,-4.64077 3.92192,-3.29216 m -12.57882,21.85523 -2.16371,-4.64077 m 0,0 -2.16371,-4.64076 v -5.12103 m 4.32742,55.37075 -7.84384,-6.58534 -4.94489,-1.32403 m 0,0 -4.9449,-1.32506 -3.92192,-3.29216 m 13.81171,5.94125 -3.92192,-3.29318 m 0,0 -3.92192,-3.29319 -2.16371,-4.64077 m 10.00755,11.22714 -7.84384,-6.58637 -6.49216,-13.92128 m 0,0 -2.16371,-4.64077 v -5.12102 m 8.65587,23.68307 -4.94489,-1.32403 m 0,0 -4.9449,-1.32403 -3.92192,-3.29319 m 46.81216,56.23808 v -20.48409 l -4.32845,-9.28154 -3.92192,-3.29318 m 0,0 -3.92192,-3.29216 -2.16371,-4.64077 m 10.00755,11.22611 -2.16371,-4.64077 m 0,0 -2.16371,-4.64076 v -5.12103 m 4.32742,14.40256 -4.32742,-9.28153 v -15.36308 m 0,0 v -5.12102 l 2.16371,-4.64077 m -2.16371,25.12487 -3.92192,-3.29216 m 0,0 -3.92192,-3.29319 -2.16474,-4.64077 m 18.66445,29.78919 v -10.24205 l -2.16371,-4.64077 m 0,0 -2.16474,-4.64077 v -5.12102 m 4.32845,14.40256 v -5.12102 m 0,0 v -5.12103 l 2.16371,-4.64077 m -2.16371,14.88282 v -10.24205 l 6.49216,-13.9223 m 0,0 2.16371,-4.64077 3.92192,-3.29318 m -12.57779,21.85625 -2.16371,-4.64077 m 0,0 -2.16474,-4.64076 V 168.049 m 4.32845,34.88666 v -20.4841 l 12.98432,-27.84461 v -5.12102 m 0,0 v -5.12102 l 2.16371,-4.64077 m -2.16371,14.88281 2.16371,-4.63974 m 0,0 2.16474,-4.64077 3.92192,-3.29318 m -8.25037,12.57369 4.32845,-9.28051 11.76576,-9.87955 m 0,0 3.92192,-3.29216 4.9449,-1.32506 m -20.63258,14.49677 v -5.12102 m 0,0 v -5.12103 l 2.16371,-4.64076 m -19.47648,52.00793 -4.32845,-9.28153 -3.92192,-3.29319 m 0,0 -3.92192,-3.29318 -2.16371,-4.64077 m 10.00755,11.22714 -2.16371,-4.64077 m 0,0 -2.16371,-4.64077 v -5.12102 m 4.32742,14.40256 -4.32742,-9.28154 v -15.36307 m 0,0 v -5.12103 l 2.16371,-4.64076 m -2.16371,25.12486 -3.92192,-3.29318 m 0,0 -3.92192,-3.29216 -2.16474,-4.64077 m 18.66445,70.75737 v -40.96819 l 25.96864,-55.68819 v -10.24205 l -2.16371,-4.64077 m 0,0 -2.16474,-4.64076 v -5.12103 m 4.32845,14.40256 v -5.12102 m 0,0 v -5.12103 l 2.16371,-4.64076 m -2.16371,14.88281 v -10.24205 l 6.49216,-13.921787 m 0,0 2.16371,-4.640666 3.92192,-3.292979 m -12.57779,21.855432 -2.16371,-4.64076 m 0,0 -2.16474,-4.640464 v -5.121024 m 4.32845,34.886348 4.32845,-9.28051 v -5.12103 m 0,0 v -5.12204 l 2.16371,-4.63975 m -2.16371,14.88282 2.16371,-4.64077 m 0,0 2.16371,-4.64077 3.92192,-3.29318 m -8.24934,12.57472 4.32742,-9.28154 11.76576,-9.879037 m 0,0 3.92192,-3.292979 4.94592,-1.324237 m -20.6336,14.496253 v -5.12102 m 0,0 v -5.121332 l 2.16474,-4.640564 m -10.82061,33.444966 8.65587,-18.56205 23.53152,-19.757975 2.16474,-4.640563 m 0,0 2.16371,-4.640666 3.92192,-3.292979 m -8.25037,12.574208 3.92192,-3.292979 m 0,0 3.92192,-3.292877 4.94592,-1.324237 m -12.78976,7.910093 7.84384,-6.585856 14.83572,-3.97271 m 0,0 4.94592,-1.324237 5.0432,0.890675 m -24.82484,4.406272 2.16372,-4.640665 m 0,0 2.16473,-4.640666 3.92192,-3.292979 M 575.7815,108.20132 V 97.958968 l -2.16371,-4.640564 m 0,0 -2.16371,-4.640665 v -5.121127 m 4.32742,14.402356 v -5.121024 m 0,0 v -5.121127 l 2.16474,-4.640665 M 575.7815,97.958968 V 87.716817 l 6.49319,-13.921894 m 0,0 2.16371,-4.640563 3.92192,-3.29298 m -12.57882,21.855437 -2.16371,-4.640665 m 0,0 -2.16371,-4.640564 v -5.121126 m -30.29709,109.137098 -8.65587,-18.56307 -7.84384,-6.58534 -4.94592,-1.32506 m 0,0 -4.9449,-1.32403 -3.92192,-3.29319 m 13.81274,5.94228 -3.92192,-3.29319 m 0,0 -3.92192,-3.29318 -2.16474,-4.64077 m 10.00858,11.22714 -7.84384,-6.58637 -6.49216,-13.92231 m 0,0 -2.16474,-4.63974 v -5.12102 m 8.6569,23.68307 -4.94592,-1.32403 m 0,0 -4.9449,-1.32404 -3.92192,-3.29318 m 29.50042,19.11296 -4.32845,-9.28154 -3.92192,-3.29216 m 0,0 -3.92192,-3.29318 -2.16371,-4.64077 m 10.00755,11.22611 -2.16371,-4.63974 m 0,0 -2.16474,-4.64077 v -5.12102 m 4.32845,14.40153 -4.32845,-9.28051 v -15.36307 m 0,0 v -5.12205 l 2.16474,-4.63974 m -2.16474,25.12486 -3.92192,-3.29318 m 0,0 -3.92192,-3.29319 -2.16371,-4.64076 m 18.66445,29.78918 -8.6569,-18.56205 v -30.72717 l -2.16371,-4.64076 m 0,0 -2.16371,-4.63975 v -5.12143 m 4.32742,14.40194 v -5.12102 m 0,0 v -5.12102 l 2.16474,-4.640362 m -2.16474,14.882402 v -10.24204 l 6.49216,-13.921693 m 0,0 2.16474,-4.640563 3.92192,-3.292979 m -12.57882,21.855235 -2.16371,-4.640362 m 0,0 -2.16371,-4.640665 v -5.121127 m 4.32742,55.371364 -7.84384,-6.58637 -4.94489,-1.32403 m 0,0 -4.9449,-1.32403 -3.92192,-3.29318 m 13.81171,5.94124 -3.92192,-3.29318 m 0,0 -3.92192,-3.29216 -2.16371,-4.64077 m 10.00755,11.22611 -7.84384,-6.58534 -6.49216,-13.9223 m 0,0 -2.16371,-4.64077 v -5.12103 m 8.65587,23.6841 -4.94489,-1.32506 m 0,0 -4.9449,-1.32403 -3.92192,-3.29318 m 46.81216,138.17651 V 182.45156 L 593.09427,71.076203 V 50.5918 l -4.32742,-9.281229 -3.92192,-3.292979 m 0,0 -3.92192,-3.29298 -2.16474,-4.640563 m 10.00858,11.226522 -2.16474,-4.640666 m 0,0 -2.16371,-4.640563 v -5.121126 m 4.32845,14.402355 -4.32845,-9.281229 V 16.666065 m 0,0 v -5.121126 l 2.16371,-4.6406147 m -2.16371,25.1250177 -3.92192,-3.292979 m 0,0 -3.92192,-3.292979 -2.16371,-4.640666 M 593.09427,50.5918 V 40.349649 l -2.16371,-4.640665 m 0,0 -2.16371,-4.640564 v -5.121126 m 4.32742,14.402355 v -5.121126 m 0,0 v -5.121127 l 2.16474,-4.640563 m -2.16474,14.882816 V 30.107396 l 6.49216,-13.921792 m 0,0 2.16474,-4.640665 3.92192,-3.292959 m -12.57882,21.855416 -2.16371,-4.640563 m 0,0 -2.16371,-4.640665 V 15.705144 M 593.09427,50.5918 V 30.107396 L 606.07859,2.2636997 V -2.857396 m 0,0 v -5.1210957 l 2.16474,-4.6406143 m -2.16474,14.8828057 2.16474,-4.6406298 m 0,0 2.16371,-4.6406298 3.92192,-3.2929691 m -8.25037,12.5742287 4.32845,-9.2812596 11.76576,-9.8788961 m 0,0 3.92192,-3.29298 4.9449,-1.324236 m -20.63258,14.4961121 v -5.1210851 m 0,0 v -5.121127 l 2.16371,-4.640563 m -19.47648,52.007731 -4.32742,-9.281228 -3.92192,-3.29298 m 0,0 -3.92192,-3.292979 -2.16474,-4.6405631 m 10.00858,11.2265221 -2.16474,-4.640564 m 0,0 -2.16371,-4.640665 V 6.4238533 m 4.32845,14.4023147 -4.32845,-9.281229 V -3.8183381 m 0,0 v -5.1210957 l 2.16371,-4.6405942 M 584.4384,11.544939 580.51648,8.25198 m 0,0 -3.92192,-3.292969 -2.16371,-4.64062462 m 18.66342,70.75781662 8.6569,-18.562458 V 42.271492 l -2.16474,-4.640563 m 0,0 -2.16371,-4.640665 v -5.121127 m 4.32845,14.402355 v -5.121126 m 0,0 v -5.121024 l 2.16371,-4.640666 m -2.16371,14.882816 v -10.24215 l 6.49216,-13.921894 m 0,0 2.16371,-4.640666 3.92192,-3.292979 m -12.57779,21.855539 -2.16474,-4.640666 m 0,0 -2.16371,-4.640563 v -5.121126 m 4.32845,34.886758 4.32742,-9.281331 V 38.11139 m 0,0 v -5.121126 l 2.16474,-4.640666 m -2.16474,14.882816 2.16474,-4.640563 m 0,0 2.16371,-4.640666 3.92192,-3.292979 m -8.25037,12.574208 4.32845,-9.281229 11.76576,-9.878937 m 0,0 3.92192,-3.292877 4.9449,-1.324237 m -20.63258,14.496051 v -5.121126 m 0,0 v -5.121024 l 2.16371,-4.640666 m -10.81958,33.445376 8.65587,-18.56256 23.53152,-19.757773 2.16371,-4.6406653 m 0,0 2.16371,-4.6406144 3.92192,-3.292969 m -8.24934,12.5742487 3.92192,-3.292979 m 0,0 3.92192,-3.2929893 4.9449,-1.3242164 m -12.78874,7.9101847 7.84384,-6.5859683 14.83571,-3.9726592 m 0,0 4.9449,-1.3242164 5.0432,0.890624 M 641.7824,7.6074437 643.94611,2.966819 m 0,0 2.16371,-4.6406246 3.92192,-3.292969 m -39.6247,38.9179596 v -10.24215 l -2.16371,-4.640666 m 0,0 -2.16474,-4.640563 V 9.3066795 m 4.32845,14.4023555 v -5.121127 m 0,0 v -5.121126 l 2.16371,-4.6405633 M 610.40704,23.709035 V 13.466782 l 6.49216,-13.92183306 m 0,0 2.16371,-4.64062464 3.92192,-3.292969 M 610.40704,13.466782 608.24333,8.8262187 m 0,0 -2.16474,-4.6406451 V -0.93552415 M 593.09427,71.076203 610.40704,33.951185 657.46906,-5.5644322 661.7975,-14.845692 v -5.121126 m 0,0 v -5.121024 l 2.16372,-4.640666 m -2.16372,14.882816 2.16372,-4.640563 m 0,0 2.16473,-4.640665 3.92192,-3.29298 m -8.25037,12.574208 4.32845,-9.281228 11.76576,-9.878938 m 0,0 3.92192,-3.292979 4.9449,-1.324237 m -20.63258,14.496154 v -5.121127 m 0,0 v -5.121024 l 2.16371,-4.640665 m -10.8206,33.4453038 7.84384,-6.5858868 2.16473,-4.640665 m 0,0 2.16371,-4.640666 3.92192,-3.292979 m -8.25036,12.57431 3.92192,-3.292979 m 0,0 3.92192,-3.292979 4.94592,-1.324237 m -12.78976,7.910195 7.84384,-6.585958 14.83571,-3.972711 m 0,0 4.94592,-1.324236 5.0432,0.890675 m -24.82483,4.406272 2.16473,-4.640666 m 0,0 2.16371,-4.640563 3.92192,-3.292979 m -23.93804,25.7460528 15.68768,-13.1718448 29.67244,-7.945319 3.92192,-3.292979 m 0,0 3.92192,-3.292979 4.9449,-1.324237 m -12.78874,7.910195 4.9449,-1.324236 m 0,0 4.94592,-1.324237 5.04218,0.890675 m -14.933,1.757798 9.89082,-2.648473 15.12858,2.671923 m 0,0 5.0432,0.890573 4.19532,2.937549 m -24.3671,-6.500045 3.9209,-3.292979 m 0,0 3.92192,-3.29298 4.94592,-1.324134 m -52.352,18.503885 4.32844,-9.281229 v -5.121126 m 0,0 v -5.121127 l 2.16372,-4.640563 m -2.16372,14.882816 2.16372,-4.640666 m 0,0 2.16473,-4.640665 3.92192,-3.292979 m -8.25037,12.57431 4.32845,-9.281331 11.76474,-9.878835 m 0,0 3.92192,-3.29298 4.94592,-1.324236 m -20.63258,14.496051 v -5.121024 m 0,0 v -5.121127 l 2.16371,-4.640665 m -73.5703,86.132838 V 13.466782 l -4.32845,-9.2812084 -3.92192,-3.29296898 m 0,0 -3.92192,-3.29297202 -2.16371,-4.6406216 m 10.00755,11.2265626 -2.16371,-4.64062466 m 0,0 -2.16371,-4.64062464 v -5.1210953 m 4.32742,14.4023446 -4.32742,-9.2812493 V -20.458952 m 0,0 v -5.121127 l 2.16371,-4.640563 m -2.16371,25.1249663 -3.92192,-3.292969 m 0,0 -3.92192,-3.2929693 -2.16474,-4.640583 m 18.66445,29.788979 V 3.2246315 l -2.16371,-4.6406246 m 0,0 -2.16474,-4.6406247 v -5.1210952 m 4.32845,14.4023445 v -5.121093 m 0,0 v -5.1210984 l 2.16371,-4.6406241 M 610.40704,3.2246315 V -7.0175599 l 6.49216,-13.9218531 m 0,0 2.16371,-4.640666 3.92192,-3.292979 m -12.57779,21.8554981 -2.16371,-4.6406241 m 0,0 -2.16474,-4.640666 v -5.121024 m 4.32845,34.886656 V -7.0175599 l 12.98432,-27.8437481 v -5.121126 m 0,0 v -5.121024 l 2.16371,-4.640666 m -2.16371,14.882816 2.16371,-4.640665 m 0,0 2.16474,-4.640563 3.92192,-3.29298 m -8.25037,12.574208 4.32845,-9.281228 11.76576,-9.878938 m 0,0 3.92192,-3.292979 4.94489,-1.324237 m -20.63257,14.496154 v -5.121127 m 0,0 v -5.121126 l 2.16371,-4.640563 m -19.47648,52.0077921 -4.32845,-9.2812901 -3.92192,-3.292877 m 0,0 -3.92192,-3.292979 -2.16371,-4.640666 m 10.00755,11.226522 -2.16371,-4.640563 m 0,0 -2.16371,-4.640666 v -5.121024 m 4.32742,14.402253 -4.32742,-9.281229 v -15.363277 m 0,0 v -5.121024 l 2.16371,-4.640665 m -2.16371,25.124966 -3.92192,-3.292979 m 0,0 -3.92192,-3.292979 -2.16474,-4.640563 m -50.5856,219.25816 -17.31277,-37.12512 -15.68768,-13.17171 -9.88979,-2.64909 -5.0432,0.89088 m 0,0 -5.0432,0.89088 -4.94489,-1.32403 m 15.03129,-0.45773 -4.94592,-1.32403 m 0,0 -4.94489,-1.32403 -3.92192,-3.29319 m 13.81273,5.94125 -9.89081,-2.64806 -11.76576,-9.87955 m 0,0 -3.92192,-3.29216 -2.16372,-4.64077 m 17.8514,17.81248 -5.0432,0.89088 m 0,0 -5.0432,0.88985 -4.9449,-1.32403 m 34.8119,4.84045 -7.84281,-6.58637 -4.94592,-1.32403 m 0,0 -4.9449,-1.32403 -3.92192,-3.29319 m 13.81274,5.94125 -3.92192,-3.29318 m 0,0 -3.92192,-3.29319 -2.16474,-4.63974 m 10.00858,11.22611 -7.84384,-6.58637 -6.49216,-13.92128 m 0,0 -2.16474,-4.64076 v -5.12113 m 8.6569,23.68317 -4.94592,-1.32403 m 0,0 -4.9449,-1.32403 -3.92192,-3.29318 m 29.49939,19.11398 -15.68665,-13.17274 -12.98432,-27.843272 -3.92192,-3.292979 m 0,0 -3.92192,-3.292979 -2.16474,-4.640666 m 10.00858,11.226624 -2.16474,-4.640666 m 0,0 -2.16371,-4.640563 v -5.121126 m 4.32845,14.402355 -4.32845,-9.281229 V 66.494212 m 0,0 v -5.121126 l 2.16371,-4.640666 m -2.16371,25.125069 -3.92192,-3.292979 m 0,0 -3.92192,-3.292979 -2.16371,-4.640666 m 27.32032,48.351125 -9.89082,-2.64806 -5.0432,0.89088 m 0,0 -5.0432,0.89088 -4.94489,-1.32506 m 15.03129,-0.4567 -4.94592,-1.32403 m 0,0 -4.94489,-1.32403 -3.92192,-3.29319 m 13.81273,5.94125 -9.89081,-2.64806 -11.76576,-9.87956 m 0,0 -3.92192,-3.29256 -2.16372,-4.64067 m 17.8514,17.81279 -5.0432,0.88985 m 0,0 -5.0432,0.89088 -4.9449,-1.32403 m 66.18726,31.18387 -8.65587,-18.56307 -7.84384,-6.58534 -4.94489,-1.32404 m 0,0 -4.94592,-1.32505 -3.92192,-3.29216 m 13.81273,5.94125 -3.92192,-3.29319 m 0,0 -3.92192,-3.29318 -2.16371,-4.64077 m 10.00755,11.22714 -7.84384,-6.58637 -6.49216,-13.921691 m 0,0 -2.16371,-4.640665 v -5.121127 m 8.65587,23.683483 -4.94489,-1.32403 m 0,0 -4.94592,-1.32404 -3.92192,-3.29318 m 29.50041,19.11296 -4.32845,-9.28051 -3.92192,-3.29319 m 0,0 -3.92192,-3.29318 -2.16371,-4.64077 m 10.00755,11.22714 -2.16371,-4.64077 m 0,0 -2.16371,-4.64077 v -5.12102 m 4.32742,14.40256 -4.32742,-9.28154 V 92.837944 m 0,0 v -5.121127 l 2.16371,-4.640665 m -2.16371,25.125168 -3.92192,-3.29318 m 0,0 -3.92192,-3.29319 -2.16474,-4.640354 m 18.66445,29.788774 -8.65587,-18.56205 V 77.474667 l -2.16474,-4.640666 m 0,0 -2.16371,-4.640665 v -5.121024 m 4.32845,14.402355 V 72.35354 m 0,0 v -5.121126 l 2.16371,-4.640563 m -2.16371,14.882816 V 67.232414 l 6.49216,-13.921894 m 0,0 2.16371,-4.640564 3.92192,-3.292979 m -12.57779,21.855437 -2.16474,-4.640563 m 0,0 -2.16371,-4.640666 v -5.121126 m 4.32845,55.371261 -7.84384,-6.58637 -4.94592,-1.32392 m 0,0 -4.9449,-1.324242 -3.92192,-3.292979 m 13.81274,5.941141 -3.92192,-3.292667 m 0,0 -3.92192,-3.292979 -2.16474,-4.640564 m 10.00858,11.22621 -7.84384,-6.585646 -6.49216,-13.921895 m 0,0 -2.16474,-4.640563 V 71.34572 m 8.6569,23.683584 -4.94592,-1.324237 m 0,0 -4.9449,-1.324135 -3.92192,-3.292979 m 46.81216,56.238487 -17.31174,-37.12512 V 46.748113 l -4.32845,-9.281331 -3.92192,-3.292979 m 0,0 -3.92192,-3.292877 -2.16371,-4.640666 m 10.00755,11.226522 -2.16473,-4.640563 m 0,0 -2.16372,-4.640666 v -5.121126 m 4.32845,14.402355 -4.32845,-9.281229 V 12.822276 m 0,0 V 7.7011909 l 2.16372,-4.6406247 m -2.16372,25.1249868 -3.92192,-3.292979 m 0,0 -3.92192,-3.292979 -2.16371,-4.640563 m 18.66445,29.789081 V 36.50586 l -2.16474,-4.640563 m 0,0 -2.16371,-4.640665 v -5.121127 m 4.32845,14.402355 v -5.121024 m 0,0 V 26.26371 l 2.16371,-4.640666 M 506.53248,36.50586 V 26.26371 l 6.49216,-13.921894 m 0,0 2.16371,-4.6406251 3.92192,-3.292969 M 506.53248,26.26371 504.36774,21.623044 m 0,0 -2.16371,-4.640563 v -5.121126 m 4.32845,34.886758 V 26.26371 L 519.5168,-1.5800553 v -5.1210988 m 0,0 V -11.82224 l 2.16371,-4.640655 m -2.16371,14.8828397 2.16371,-4.6406278 m 0,0 2.16371,-4.6406249 3.92192,-3.292979 m -8.24934,12.5742317 4.32742,-9.2812527 11.76576,-9.878937 m 0,0 3.92192,-3.292979 4.9449,-1.324135 m -20.63258,14.496051 v -5.121126 m 0,0 v -5.121024 l 2.16474,-4.640666 m -19.47648,52.007834 -4.32845,-9.281229 -3.92192,-3.292979 m 0,0 -3.92192,-3.292979 -2.16371,-4.6406454 m 10.00755,11.2266034 -2.16473,-4.640665 m 0,0 -2.16372,-4.6406251 V 2.5801054 m 4.32845,14.4023756 -4.32845,-9.2812901 V -7.6620859 m 0,0 v -5.1210651 l 2.16372,-4.640665 m -2.16372,25.1250069 -3.92192,-3.292969 m 0,0 -3.92192,-3.292969 -2.16371,-4.6406246 M 506.53248,108.20132 490.8448,95.029304 l -9.89082,-2.648372 -5.0432,0.890573 m 0,0 -5.0432,0.890675 -4.94489,-1.324236 m 15.03129,-0.457012 -4.94592,-1.324236 m 0,0 -4.94489,-1.324237 -3.92192,-3.292979 m 13.81273,5.941452 -9.89081,-2.648473 -11.76576,-9.878938 m 0,0 -3.92192,-3.292979 -2.16371,-4.640563 m 17.85139,17.81248 -5.0432,0.890573 m 0,0 -5.04218,0.890675 -4.94592,-1.324237 m 34.81293,4.839834 -7.84384,-6.585959 -4.94592,-1.324134 m 0,0 -4.9449,-1.324237 -3.92192,-3.292979 m 13.81274,5.94135 -3.92192,-3.292979 m 0,0 -3.92192,-3.292877 -2.16371,-4.640665 m 10.00755,11.226521 -7.84384,-6.585856 -6.49216,-13.921894 m 0,0 -2.16371,-4.640666 v -5.121126 m 8.65587,23.683686 -4.94592,-1.324237 m 0,0 -4.9449,-1.324236 -3.92192,-3.29298 M 490.8448,95.029304 475.15712,81.857489 462.1728,54.0137 458.25088,50.720721 m 0,0 -3.92192,-3.292979 -2.16371,-4.640563 M 462.1728,54.0137 460.00806,49.373035 m 0,0 -2.16371,-4.640563 V 39.611345 M 462.1728,54.0137 457.84435,44.732472 V 29.369195 m 0,0 v -5.121127 l 2.16371,-4.640665 m -2.16371,25.125069 -3.92192,-3.29298 m 0,0 -3.92192,-3.292979 -2.16371,-4.640665 m 27.32032,48.351641 -9.89082,-2.648473 -5.0432,0.890572 m 0,0 -5.04217,0.890676 -4.94592,-1.324237 m 15.03129,-0.457011 -4.94489,-1.324237 m 0,0 -4.94592,-1.324237 -3.92192,-3.292979 m 13.81273,5.941453 -9.89081,-2.648474 -11.76576,-9.878835 m 0,0 -3.92192,-3.292979 -2.16371,-4.640666 m 17.85139,17.81248 -5.0432,0.890675 m 0,0 -5.04218,0.890573 -4.94592,-1.324237 M 541.15699,346.32638 V 182.45156 L 645.03155,-40.29885 v -40.968704 l -8.65587,-18.562458 -7.84384,-6.585758 -4.9449,-1.32403 m 0,0 -4.94592,-1.32505 -3.92192,-3.29216 m 13.81274,5.94124 -3.92192,-3.29318 m 0,0 -3.92192,-3.29318 -2.16371,-4.64077 m 10.00755,11.22713 -7.84384,-6.58636 -6.49216,-13.92128 m 0,0 -2.16371,-4.64077 v -5.12103 m 8.65587,23.68308 -4.9449,-1.32404 m 0,0 -4.94592,-1.32403 -3.92192,-3.29318 m 29.50042,19.113368 -4.32845,-9.280918 -3.92192,-3.29319 m 0,0 -3.92192,-3.29318 -2.16371,-4.64077 m 10.00755,11.22714 -2.16371,-4.64077 m 0,0 -2.16371,-4.64077 v -5.12102 m 4.32742,14.40256 -4.32742,-9.28154 v -15.36307 m 0,0 v -5.12103 l 2.16371,-4.64076 m -2.16371,25.12486 -3.92192,-3.29318 m 0,0 -3.92192,-3.29319 -2.16474,-4.64077 m 18.66445,29.789598 -8.65587,-18.562458 v -30.72614 l -2.16474,-4.64077 m 0,0 -2.16371,-4.64077 v -5.12102 m 4.32845,14.40256 v -5.12205 m 0,0 v -5.12103 l 2.16371,-4.63974 m -2.16371,14.88282 v -10.24308 l 6.49216,-13.92128 m 0,0 2.16371,-4.64076 3.92192,-3.29319 m -12.57779,21.85523 -2.16474,-4.63974 m 0,0 -2.16371,-4.64077 v -5.12102 m 4.32845,55.37075 -7.84384,-6.58637 -4.94592,-1.32403 m 0,0 -4.9449,-1.32403 -3.92192,-3.29319 m 13.81274,5.94125 -3.92192,-3.29216 m 0,0 -3.92192,-3.29318 -2.16371,-4.64077 m 10.00755,11.22611 -7.84384,-6.58534 -6.49216,-13.92231 m 0,0 -2.16474,-4.64076 v -5.12103 m 8.6569,23.6841 -4.94592,-1.32403 m 0,0 -4.9449,-1.32506 -3.92192,-3.29216 m 46.81216,56.237876 v -20.484406 l -4.32742,-9.28102 -3.92192,-3.29319 m 0,0 -3.92192,-3.29318 -2.16474,-4.64077 m 10.00858,11.22714 -2.16474,-4.64077 m 0,0 -2.16371,-4.64077 v -5.12102 m 4.32845,14.40256 -4.32845,-9.28154 v -15.36307 m 0,0 v -5.12102 l 2.16371,-4.64077 m -2.16371,25.12486 -3.92192,-3.29318 m 0,0 -3.92192,-3.29216 -2.16371,-4.64077 m 18.66342,29.78867 v -10.24256 l -2.16371,-4.63974 m 0,0 -2.16371,-4.64077 v -5.12102 m 4.32742,14.40153 v -5.12102 m 0,0 v -5.12103 l 2.16474,-4.64076 m -2.16474,14.88281 v -10.24205 l 6.49216,-13.92128 m 0,0 2.16474,-4.64076 3.92192,-3.29319 m -12.57882,21.85523 -2.16371,-4.64076 m 0,0 -2.16371,-4.63975 v -5.12205 m 4.32742,34.88717 v -20.48461 l 12.98432,-27.84358 v -5.12102 m 0,0 v -5.12103 l 2.16474,-4.64077 m -2.16474,14.88282 2.16474,-4.64077 m 0,0 2.16371,-4.64077 3.92192,-3.29216 m -8.25037,12.5737 4.32845,-9.28154 11.76576,-9.87852 m 0,0 3.92192,-3.29319 4.9449,-1.32403 m -20.63258,14.49574 v -5.12102 m 0,0 v -5.12102 l 2.16474,-4.64077 m -19.47751,52.00793 -4.32742,-9.28051 -3.92192,-3.29318 m 0,0 -3.92192,-3.29319 -2.16474,-4.64076 m 10.00858,11.22713 -2.16474,-4.64077 m 0,0 -2.16371,-4.64076 v -5.12103 m 4.32845,14.40256 -4.32845,-9.28153 v -15.36308 m 0,0 v -5.12102 l 2.16371,-4.64077 m -2.16371,25.12487 -3.92192,-3.29319 m 0,0 -3.92192,-3.29318 -2.16371,-4.64077 m 18.66342,70.758196 v -40.969016 l 25.96967,-55.68716 v -10.24205 l -2.16474,-4.64077 m 0,0 -2.16371,-4.64077 v -5.12102 m 4.32845,14.40256 v -5.12103 m 0,0 v -5.12102 l 2.16371,-4.64077 m -2.16371,14.88282 v -10.24205 l 6.49216,-13.9223 m 0,0 2.16371,-4.64077 3.92192,-3.29319 m -12.57779,21.85626 -2.16474,-4.64077 m 0,0 -2.16371,-4.64077 v -5.12102 m 4.32845,34.88666 4.32742,-9.28154 v -5.12102 m 0,0 v -5.12103 l 2.16474,-4.64077 m -2.16474,14.88282 2.16474,-4.64077 m 0,0 2.16371,-4.64077 3.92192,-3.29216 m -8.25037,12.5737 4.32845,-9.28154 11.76576,-9.87852 m 0,0 3.92192,-3.29319 4.94489,-1.32403 m -20.63257,14.49574 v -5.12102 m 0,0 v -5.12102 l 2.16371,-4.64077 m -10.81958,33.44589 8.65587,-18.56308 23.53152,-19.75705 2.16371,-4.64077 m 0,0 2.16371,-4.64077 3.92192,-3.29318 m -8.24934,12.57472 3.92192,-3.29319 m 0,0 3.92192,-3.29318 4.94489,-1.32403 m -12.78873,7.9104 7.84384,-6.58637 14.83571,-3.9721 m 0,0 4.9449,-1.32505 5.0432,0.89088 m -24.82381,4.40627 2.16371,-4.64077 m 0,0 2.16371,-4.64077 3.92192,-3.29216 m -39.6247,38.91712 v -10.24204 l -2.16371,-4.64077 m 0,0 -2.16474,-4.63975 v -5.12102 m 4.32845,14.40154 v -5.12103 m 0,0 v -5.12102 l 2.16371,-4.64077 m -2.16371,14.88282 v -10.24205 l 6.49216,-13.92128 m 0,0 2.16371,-4.64077 3.92192,-3.29318 m -12.57779,21.85523 -2.16371,-4.64077 m 0,0 -2.16474,-4.64077 v -5.12102 m -30.29709,109.13689 -8.65587,-18.56204 -7.84384,-6.58637 -4.9449,-1.32403 m 0,0 -4.94592,-1.32404 -3.92192,-3.29318 m 13.81274,5.94125 -3.92192,-3.29319 m 0,0 -3.92192,-3.29216 -2.16371,-4.64076 m 10.00755,11.22611 -7.84384,-6.58535 -6.49216,-13.9223 m 0,0 -2.16371,-4.64077 v -5.12102 m 8.65587,23.68409 -4.9449,-1.32505 m 0,0 -4.94592,-1.32403 -3.92192,-3.29319 m 29.50042,19.11399 -4.32845,-9.28154 -3.92192,-3.29318 m 0,0 -3.92192,-3.29216 -2.16371,-4.64077 m 10.00755,11.22611 -2.16371,-4.64077 m 0,0 -2.16371,-4.64077 v -5.12102 m 4.32742,14.40256 -4.32742,-9.28154 v -15.36307 m 0,0 v -5.12102 l 2.16371,-4.64077 m -2.16371,25.12486 -3.92192,-3.29216 m 0,0 -3.92192,-3.29318 -2.16474,-4.64077 m 18.66445,29.78919 -8.65587,-18.56308 v -30.72614 l -2.16474,-4.64077 m 0,0 -2.16371,-4.64077 v -5.12102 m 4.32845,14.40256 v -5.12102 m 0,0 v -5.12103 l 2.16371,-4.64077 m -2.16371,14.88282 v -10.24205 l 6.49216,-13.9223 m 0,0 2.16371,-4.64077 3.92192,-3.29216 m -12.57779,21.85523 -2.16474,-4.64077 m 0,0 -2.16371,-4.64076 v -5.12103 m 4.32845,55.37075 -7.84384,-6.58534 -4.94592,-1.32403 m 0,0 -4.9449,-1.32506 -3.92192,-3.29216 m 13.81274,5.94125 -3.92192,-3.29318 m 0,0 -3.92192,-3.29319 -2.16371,-4.64077 m 10.00755,11.22714 -7.84384,-6.58637 -6.49216,-13.92128 m 0,0 -2.16474,-4.64077 v -5.12102 m 8.6569,23.68307 -4.94592,-1.32403 m 0,0 -4.9449,-1.32403 -3.92192,-3.29319 m 46.81216,138.1758 17.31277,-37.124915 v -20.484403 l -4.32845,-9.281742 -3.92089,-3.29216 m 0,0 -3.92192,-3.29318 -2.16474,-4.64077 m 10.00755,11.22611 -2.16371,-4.63974 m 0,0 -2.16371,-4.64077 v -5.12103 m 4.32742,14.40154 -4.32742,-9.28051 v -15.36307 m 0,0 v -5.12205 l 2.16371,-4.63975 m -2.16371,25.12487 -3.92192,-3.29319 m 0,0 -3.92192,-3.29318 -2.16371,-4.64077 m 18.66342,29.789392 v -10.242252 l -2.16371,-4.64077 m 0,0 -2.16474,-4.64077 v -5.12102 m 4.32845,14.40256 v -5.12103 m 0,0 v -5.12102 l 2.16474,-4.64077 m -2.16474,14.88282 v -10.24205 l 6.49216,-13.9223 m 0,0 2.16474,-4.64077 3.92089,-3.29216 m -12.57779,21.85523 -2.16371,-4.64077 m 0,0 -2.16474,-4.64077 v -5.12102 m 4.32845,34.886862 v -20.484302 l 12.98432,-27.84358 v -5.12103 m 0,0 v -5.12102 l 2.16474,-4.64077 m -2.16474,14.88282 2.16474,-4.64077 m 0,0 2.16371,-4.64077 3.92192,-3.29318 m -8.25037,12.57472 4.32845,-9.28154 11.76576,-9.87853 m 0,0 3.92192,-3.29318 4.94489,-1.32403 m -20.63257,14.49574 v -5.12102 m 0,0 v -5.12103 l 2.16371,-4.64077 m -19.47648,52.00794 -4.32845,-9.28154 -3.92089,-3.29318 m 0,0 -3.92192,-3.29216 -2.16474,-4.64077 m 10.00755,11.22611 -2.16371,-4.64076 m 0,0 -2.16371,-4.64077 v -5.12103 m 4.32742,14.40256 -4.32742,-9.28153 v -15.36307 m 0,0 v -5.12103 l 2.16371,-4.64077 m -2.16371,25.12487 -3.92192,-3.29216 m 0,0 -3.92192,-3.29319 -2.16371,-4.64076 m 18.66342,70.757885 8.6569,-18.56256 v -10.242045 l -2.16474,-4.64077 m 0,0 -2.16371,-4.64077 v -5.12102 m 4.32845,14.40256 v -5.12103 m 0,0 v -5.12102 l 2.16371,-4.64077 m -2.16371,14.88282 v -10.24205 l 6.49216,-13.92231 m 0,0 2.16371,-4.64076 3.92192,-3.29216 m -12.57779,21.85523 -2.16474,-4.64077 m 0,0 -2.16371,-4.64077 v -5.12102 m 4.32845,34.886655 4.32742,-9.281535 v -5.12103 m 0,0 v -5.12102 l 2.16474,-4.64077 m -2.16474,14.88282 2.16474,-4.64077 m 0,0 2.16371,-4.63974 3.92192,-3.29319 m -8.25037,12.5737 4.32845,-9.28051 11.76576,-9.87956 m 0,0 3.92192,-3.29318 4.94489,-1.32403 m -20.63257,14.49677 v -5.12103 m 0,0 v -5.12205 l 2.16371,-4.63974 m -10.81958,33.444865 8.65587,-18.562045 23.53152,-19.75808 2.16371,-4.64077 m 0,0 2.16371,-4.64077 3.92192,-3.29318 m -8.24934,12.57472 3.92192,-3.29319 m 0,0 3.92192,-3.29318 4.94489,-1.32403 m -12.78873,7.9104 7.84384,-6.58637 14.83571,-3.9721 m 0,0 4.9449,-1.32403 5.0432,0.88986 m -24.82381,4.40627 2.16371,-4.64077 m 0,0 2.16371,-4.63974 3.92192,-3.29319 m -39.6247,38.91815 v -10.24308 l -2.16371,-4.63974 m 0,0 -2.16474,-4.64077 v -5.12102 m 4.32845,14.40153 v -5.12102 m 0,0 v -5.12102 l 2.16371,-4.64077 m -2.16371,14.88281 v -10.24204 l 6.49216,-13.92128 m 0,0 2.16371,-4.64077 3.92192,-3.29319 m -12.57779,21.85524 -2.16371,-4.64077 m 0,0 -2.16474,-4.63975 v -5.12102 m -12.98432,72.011265 17.31277,-37.124605 47.06201,-39.51616 4.32845,-9.28154 v -5.12102 m 0,0 v -5.12103 l 2.16371,-4.64077 m -2.16371,14.88282 2.16371,-4.63974 m 0,0 2.16474,-4.64077 3.92192,-3.29319 m -8.25037,12.5737 4.32845,-9.28051 11.76576,-9.87955 m 0,0 3.92192,-3.29319 4.9449,-1.32403 m -20.63258,14.49677 v -5.12103 m 0,0 v -5.12102 l 2.16371,-4.64077 m -10.82061,33.44487 7.84384,-6.58535 2.16474,-4.64077 m 0,0 2.16371,-4.64076 3.92192,-3.29319 m -8.25037,12.57472 3.92192,-3.29318 m 0,0 3.92192,-3.29319 4.94592,-1.32403 m -12.78976,7.9104 7.84384,-6.58637 14.83572,-3.97312 m 0,0 4.94592,-1.32403 5.0432,0.89088 m -24.82484,4.40627 2.16474,-4.64076 m 0,0 2.16371,-4.64077 3.92192,-3.29319 m -23.93805,25.74644 15.68768,-13.17172 29.67245,-7.94521 3.92192,-3.29319 m 0,0 3.92192,-3.29318 4.9449,-1.32403 m -12.78874,7.9104 4.9449,-1.32403 m 0,0 4.94489,-1.32506 5.0432,0.89088 m -14.93299,1.75821 9.88979,-2.64909 15.1296,2.67264 m 0,0 5.0432,0.88986 4.19533,2.93785 m -24.36813,-6.50035 3.92192,-3.29216 m 0,0 3.92192,-3.29318 4.94592,-1.32404 m -52.352,18.50368 4.32845,-9.28153 v -5.12103 m 0,0 v -5.12102 l 2.16371,-4.64077 m -2.16371,14.88282 2.16371,-4.64077 m 0,0 2.16474,-4.64077 3.92192,-3.29216 m -8.25037,12.5737 4.32845,-9.28154 11.76474,-9.87853 m 0,0 3.92192,-3.29318 4.94592,-1.32403 m -20.63258,14.49574 v -5.12102 m 0,0 v -5.12103 l 2.16371,-4.63974 m -73.5703,86.13274 v -20.48512 l -4.32845,-9.28052 -3.92192,-3.29318 m 0,0 -3.92192,-3.29318 -2.16371,-4.64077 m 10.00755,11.22713 -2.16371,-4.64076 m 0,0 -2.16371,-4.64077 v -5.12103 m 4.32742,14.40256 -4.32742,-9.28153 v -15.36307 m 0,0 v -5.12103 l 2.16371,-4.64077 m -2.16371,25.12487 -3.92192,-3.29319 m 0,0 -3.92192,-3.29318 -2.16474,-4.64077 m 18.66445,29.78919 v -10.24205 l -2.16371,-4.64077 m 0,0 -2.16474,-4.64077 v -5.12102 m 4.32845,14.40256 v -5.12103 m 0,0 v -5.12102 l 2.16371,-4.64077 m -2.16371,14.88282 v -10.24205 l 6.49216,-13.9223 m 0,0 2.16371,-4.63975 3.92192,-3.29318 m -12.57779,21.85523 -2.16371,-4.64077 m 0,0 -2.16474,-4.64077 v -5.12102 m 4.32845,34.88666 v -20.4841 l 12.98432,-27.84358 v -5.12103 m 0,0 v -5.12102 l 2.16371,-4.64077 m -2.16371,14.88282 2.16371,-4.64077 m 0,0 2.16474,-4.64077 3.92192,-3.29318 m -8.25037,12.57472 4.32845,-9.28154 11.76576,-9.87853 m 0,0 3.92089,-3.29318 4.94592,-1.32403 m -20.63257,14.49574 v -5.12102 m 0,0 v -5.12103 l 2.16371,-4.64077 m -19.47648,52.00794 -4.32845,-9.28154 -3.92192,-3.29216 m 0,0 -3.92192,-3.29318 -2.16371,-4.64077 m 10.00755,11.22611 -2.16371,-4.64076 m 0,0 -2.16371,-4.63975 v -5.12102 m 4.32742,14.40153 -4.32742,-9.28051 v -15.36409 m 0,0 v -5.12103 l 2.16371,-4.64077 m -2.16371,25.12589 -3.92192,-3.29318 m 0,0 -3.92192,-3.29319 -2.16474,-4.64076 m -15.96109,145.00792 34.62554,-74.24952 94.12505,-79.0313 8.65588,-18.56307 v -10.24205 l -2.16372,-4.64077 m 0,0 -2.16371,-4.64077 v -5.12102 m 4.32743,14.40256 v -5.12102 m 0,0 v -5.12103 l 2.16473,-4.64077 m -2.16473,14.88282 v -10.24205 l 6.49216,-13.9223 m 0,0 2.16473,-4.64077 3.92192,-3.29216 m -12.57881,21.85523 -2.16372,-4.64077 m 0,0 -2.16371,-4.64076 v -5.12103 m 4.32743,34.88666 4.32844,-9.28154 v -5.12102 m 0,0 v -5.12103 l 2.16372,-4.64076 m -2.16372,14.88281 2.16372,-4.63974 m 0,0 2.16473,-4.64077 3.92192,-3.29318 m -8.25037,12.57369 4.32845,-9.28051 11.76474,-9.87955 m 0,0 3.92192,-3.29216 4.94592,-1.32506 m -20.63258,14.49677 v -5.12102 m 0,0 v -5.12103 l 2.16371,-4.64077 m -10.8206,33.44487 8.65689,-18.56205 23.5305,-19.75808 2.16473,-4.64077 m 0,0 2.16372,-4.64077 3.92192,-3.29318 m -8.25037,12.57472 3.92192,-3.29318 m 0,0 3.92192,-3.29319 4.94592,-1.32403 m -12.78976,7.9104 7.84384,-6.58637 14.83571,-3.97209 m 0,0 4.94592,-1.32404 5.0432,0.88986 m -24.82483,4.40627 2.16473,-4.63974 m 0,0 2.16372,-4.64077 3.92192,-3.29318 m -39.62471,38.91814 v -10.24205 l -2.16473,-4.64077 m 0,0 -2.16372,-4.64076 v -5.12103 m 4.32845,14.40256 v -5.12102 m 0,0 v -5.12205 l 2.16371,-4.63974 m -2.16371,14.88281 v -10.24307 l 6.49216,-13.92128 m 0,0 2.16371,-4.64077 3.92192,-3.29318 m -12.57779,21.85523 -2.16473,-4.63974 m 0,0 -2.16372,-4.64077 v -5.12103 m -12.98432,72.01178 15.68768,-13.17274 4.32743,-9.28051 v -5.12102 m 0,0 v -5.12103 l 2.16473,-4.64076 m -2.16473,14.88281 2.16473,-4.64077 m 0,0 2.16372,-4.64076 3.92192,-3.29319 m -8.25037,12.57472 4.32845,-9.28153 11.76576,-9.87853 m 0,0 3.92192,-3.29319 4.94489,-1.32403 m -20.63257,14.49575 v -5.12103 m 0,0 v -5.12102 l 2.16371,-4.64077 m -10.81959,33.44486 7.84384,-6.58534 2.16372,-4.64077 m 0,0 2.16371,-4.64077 3.92192,-3.29318 m -8.24935,12.57472 3.92192,-3.29318 m 0,0 3.9209,-3.29319 4.94592,-1.32403 m -12.78874,7.9104 7.84282,-6.58637 14.83674,-3.97209 m 0,0 4.94489,-1.32404 5.0432,0.88986 m -24.82483,4.40627 2.16474,-4.64077 m 0,0 2.16371,-4.63974 3.92192,-3.29318 m -23.93703,25.7454 15.68666,-13.17171 29.67245,-7.94521 3.92192,-3.29319 m 0,0 3.92192,-3.29216 4.94489,-1.32505 m -12.78873,7.9104 4.94489,-1.32404 m 0,0 4.94592,-1.32403 5.0432,0.89088 m -14.93401,1.75719 9.89081,-2.64807 15.12858,2.67162 m 0,0 5.0432,0.89088 4.19533,2.93785 m -24.36711,-6.50035 3.92192,-3.29318 m 0,0 3.92192,-3.29319 4.9449,-1.32403 m -52.352,18.50368 4.32845,-9.28051 v -5.12102 m 0,0 v -5.12205 l 2.16473,-4.63975 m -2.16473,14.88282 2.16473,-4.64077 m 0,0 2.16372,-4.64077 3.92192,-3.29318 m -8.25037,12.57472 4.32845,-9.28154 11.76576,-9.87955 m 0,0 3.92192,-3.29216 4.94489,-1.32403 m -20.63257,14.49574 v -5.12102 m 0,0 v -5.12102 l 2.16371,-4.64077 m -42.19495,59.78931 31.37434,-26.34445 59.34387,-15.89043 7.84384,-6.58534 2.16474,-4.64077 m 0,0 2.16371,-4.64077 3.92192,-3.29318 m -8.25037,12.57472 3.92192,-3.29319 m 0,0 3.92192,-3.29318 4.94592,-1.32403 m -12.78976,7.9104 7.84384,-6.58637 14.83571,-3.97312 m 0,0 4.94592,-1.32403 5.0432,0.89088 m -24.82483,4.40627 2.16474,-4.64077 m 0,0 2.16371,-4.64077 3.92192,-3.29318 m -23.93805,25.74643 9.89082,-2.64806 3.92192,-3.29319 m 0,0 3.92192,-3.29318 4.94592,-1.32403 m -12.78976,7.9104 4.94592,-1.32404 m 0,0 4.94489,-1.32505 5.0432,0.89088 m -14.93401,1.75821 9.89081,-2.64909 15.12858,2.67264 m 0,0 5.0432,0.88985 4.19533,2.93786 m -24.36711,-6.50035 3.92192,-3.29216 m 0,0 3.92192,-3.29319 4.9449,-1.32403 m -32.57037,13.20653 19.78163,-5.29715 30.25818,5.34425 4.9449,-1.32403 m 0,0 4.94489,-1.32403 5.0432,0.88986 m -14.93299,1.7582 5.04218,0.89088 m 0,0 5.0432,0.88986 4.19532,2.93786 m -14.2807,-4.7186 10.08538,1.78074 12.58598,8.81254 m 0,0 4.19533,2.93786 2.55897,4.43392 m -19.34028,-16.18432 4.94592,-1.32403 m 0,0 4.94489,-1.32403 5.0432,0.89088 m -55.27757,-5.36781 7.84384,-6.58535 2.16372,-4.64076 m 0,0 2.16473,-4.64077 3.92192,-3.29319 m -8.25037,12.57472 3.92192,-3.29318 m 0,0 3.92192,-3.29318 4.9449,-1.32404 m -12.78874,7.9104 7.84384,-6.58636 14.83572,-3.9721 m 0,0 4.94489,-1.32506 5.0432,0.89088 m -24.82381,4.40628 2.16372,-4.64077 m 0,0 2.16473,-4.63975 3.9209,-3.29318 m -103.06253,46.93299 8.6569,-18.56205 v -10.24204 l -2.16372,-4.64077 m 0,0 -2.16473,-4.64077 v -5.12102 m 4.32845,14.40256 v -5.12103 m 0,0 v -5.12102 l 2.16371,-4.64077 m -2.16371,14.88282 v -10.24205 l 6.49216,-13.92231 m 0,0 2.16371,-4.64076 3.92192,-3.29319 m -12.57779,21.85626 -2.16372,-4.64077 m 0,0 -2.16473,-4.64077 v -5.12102 m 4.32845,34.88665 4.32844,-9.28153 v -5.12103 m 0,0 v -5.12102 l 2.16372,-4.64077 m -2.16372,14.88282 2.16372,-4.64077 m 0,0 2.16371,-4.64077 3.92192,-3.29216 m -8.24935,12.5737 4.32743,-9.28154 11.76576,-9.87853 m 0,0 3.92192,-3.29318 4.94489,-1.32403 m -20.63257,14.49574 v -5.12102 m 0,0 v -5.12103 l 2.16473,-4.64076 m -10.8206,33.44588 8.65587,-18.56307 23.53152,-19.75705 2.16371,-4.64077 m 0,0 2.16474,-4.64077 3.92192,-3.29318 m -8.25037,12.57472 3.92192,-3.29319 m 0,0 3.92192,-3.29318 4.94489,-1.32403 m -12.78873,7.9104 7.84384,-6.58637 14.83571,-3.9721 m 0,0 4.94592,-1.32505 5.04218,0.89088 m -24.82381,4.40627 2.16371,-4.64077 m 0,0 2.16474,-4.64077 3.92192,-3.29216 m -39.62573,38.91712 v -10.24205 l -2.16371,-4.64076 m 0,0 -2.16372,-4.63975 v -5.12205 m 4.32743,14.40256 v -5.12102 m 0,0 v -5.12102 l 2.16473,-4.64077 m -2.16473,14.88281 v -10.24204 l 6.49216,-13.92128 m 0,0 2.16473,-4.64077 3.92192,-3.29319 m -12.57881,21.85524 -2.16371,-4.64077 m 0,0 -2.16372,-4.64077 v -5.12102 m -138.48473,177.38752 v -40.96922 l -8.65587,-18.56205 -7.84384,-6.58637 -4.94592,-1.32403 m 0,0 -4.9449,-1.32403 -3.92192,-3.29318 m 13.81274,5.94124 -3.92192,-3.29318 m 0,0 -3.92192,-3.29318 -2.16474,-4.63975 m 10.00858,11.22611 -7.84384,-6.58636 -6.49216,-13.92128 m 0,0 -2.16474,-4.64077 v -5.12103 m 8.6569,23.68308 -4.94592,-1.32404 m 0,0 -4.9449,-1.32403 -3.92192,-3.29318 m 29.50042,19.11398 -4.32845,-9.28153 -3.92192,-3.29319 m 0,0 -3.92192,-3.29318 -2.16371,-4.64077 m 10.00755,11.22714 -2.16371,-4.64077 m 0,0 -2.16474,-4.64077 v -5.12102 m 4.32845,14.40256 -4.32845,-9.28154 v -15.36307 m 0,0 v -5.12103 l 2.16474,-4.64076 m -2.16474,25.12486 -3.92192,-3.29318 m 0,0 -3.92192,-3.29216 -2.16371,-4.64077 m 18.66445,29.78918 -8.6569,-18.56307 v -30.72614 l -2.16371,-4.64077 m 0,0 -2.16474,-4.64077 v -5.12102 m 4.32845,14.40256 v -5.12103 m 0,0 v -5.12102 l 2.16474,-4.64077 m -2.16474,14.88282 v -10.24205 l 6.49216,-13.92231 m 0,0 2.16474,-4.64076 3.92089,-3.29319 m -12.57779,21.85626 -2.16371,-4.64077 m 0,0 -2.16474,-4.64077 v -5.12102 m 4.32845,55.37075 -7.84384,-6.58534 -4.9449,-1.32506 m 0,0 -4.94592,-1.32403 -3.92192,-3.29319 m 13.81274,5.94228 -3.92192,-3.29319 m 0,0 -3.92192,-3.29318 -2.16371,-4.64077 m 10.00755,11.22714 -7.84384,-6.58637 -6.49216,-13.92231 m 0,0 -2.16371,-4.63974 v -5.12205 m 8.65587,23.6841 -4.9449,-1.32403 m 0,0 -4.94489,-1.32404 -3.92192,-3.29318 m 46.81216,56.23808 v -20.4841 l -4.32845,-9.28153 -3.92192,-3.29319 m 0,0 -3.92192,-3.29318 -2.16371,-4.63974 m 10.00755,11.22611 -2.16371,-4.64077 m 0,0 -2.16371,-4.64077 v -5.12102 m 4.32742,14.40256 -4.32742,-9.28154 v -15.36307 m 0,0 v -5.12102 l 2.16371,-4.64077 m -2.16371,25.12486 -3.92192,-3.29216 m 0,0 -3.92192,-3.29318 -2.16474,-4.64077 m 18.66445,29.78918 v -10.24204 l -2.16371,-4.64077 m 0,0 -2.16474,-4.64077 v -5.12102 m 4.32845,14.40256 v -5.12103 m 0,0 v -5.12205 l 2.16371,-4.63974 m -2.16371,14.88282 v -10.24308 l 6.49216,-13.92128 m 0,0 2.16371,-4.64076 3.92192,-3.29319 m -12.57779,21.85523 -2.16371,-4.63974 m 0,0 -2.16474,-4.64077 v -5.12102 m 4.32845,34.88665 v -20.48512 l 12.98432,-27.84358 v -5.12102 m 0,0 v -5.12103 l 2.16371,-4.64077 m -2.16371,14.88282 2.16371,-4.64077 m 0,0 2.16474,-4.63974 3.92192,-3.29319 m -8.25037,12.5737 4.32845,-9.28051 11.76576,-9.87955 m 0,0 3.92089,-3.29319 4.94592,-1.32403 m -20.63257,14.49677 v -5.12103 m 0,0 v -5.12204 l 2.16371,-4.63975 m -19.47648,52.00691 -4.32845,-9.28051 -3.92192,-3.29318 m 0,0 -3.92192,-3.29319 -2.16371,-4.64076 m 10.00755,11.22713 -2.16371,-4.64077 m 0,0 -2.16371,-4.64076 v -5.12103 m 4.32742,14.40256 -4.32742,-9.28153 v -15.36308 m 0,0 v -5.12102 l 2.16371,-4.64077 m -2.16371,25.12487 -3.92192,-3.29319 m 0,0 -3.92192,-3.29318 -2.16474,-4.63975 m 18.66445,70.75738 v -40.96922 l 25.96864,-55.68716 v -10.24205 l -2.16371,-4.64077 m 0,0 -2.16474,-4.64077 v -5.12102 m 4.32845,14.40256 v -5.12103 m 0,0 v -5.12102 l 2.16371,-4.64077 m -2.16371,14.88282 v -10.24205 l 6.49216,-13.9223 m 0,0 2.16371,-4.64077 3.92192,-3.29216 m -12.57779,21.85523 -2.16371,-4.64077 m 0,0 -2.16474,-4.64077 v -5.12102 m 4.32845,34.88666 4.32845,-9.28154 v -5.12102 m 0,0 v -5.12103 l 2.16371,-4.64077 m -2.16371,14.88282 2.16371,-4.63974 m 0,0 2.16371,-4.64077 3.92192,-3.29319 m -8.24934,12.5737 4.32742,-9.28051 11.76576,-9.87955 m 0,0 3.92192,-3.29216 4.94592,-1.32506 m -20.6336,14.49677 v -5.12103 m 0,0 v -5.12102 l 2.16474,-4.64077 m -10.82061,33.44487 8.65587,-18.56205 23.53152,-19.75808 2.16371,-4.64077 m 0,0 2.16474,-4.64077 3.92192,-3.29318 m -8.25037,12.57472 3.92192,-3.29319 m 0,0 3.92192,-3.29318 4.9449,-1.32403 m -12.78874,7.9104 7.84384,-6.58637 14.83571,-3.9721 m 0,0 4.94592,-1.32403 5.04218,0.88986 m -24.82381,4.40627 2.16371,-4.63974 m 0,0 2.16474,-4.64077 3.92192,-3.29319 m -39.62573,38.91815 v -10.24205 l -2.16371,-4.64077 m 0,0 -2.16371,-4.64077 v -5.12102 m 4.32742,14.40256 v -5.12102 m 0,0 v -5.12205 l 2.16474,-4.63975 m -2.16474,14.88282 v -10.24307 l 6.49216,-13.92128 m 0,0 2.16474,-4.64077 3.92192,-3.29318 m -12.57882,21.85523 -2.16371,-4.63975 m 0,0 -2.16371,-4.64076 v -5.12103 m -30.29709,109.13587 -8.65587,-18.56204 -7.84384,-6.58637 -4.94592,-1.32403 m 0,0 -4.9449,-1.32404 -3.92192,-3.29318 m 13.81274,5.94125 -3.92192,-3.29216 m 0,0 -3.92192,-3.29319 -2.16474,-4.64076 m 10.00858,11.22611 -7.84384,-6.58535 -6.49216,-13.9223 m 0,0 -2.16474,-4.64077 v -5.12102 m 8.6569,23.68409 -4.94592,-1.32403 m 0,0 -4.9449,-1.32403 -3.92192,-3.29318 m 29.50042,19.11296 -4.32845,-9.28154 -3.92192,-3.29216 m 0,0 -3.92192,-3.29318 -2.16371,-4.64077 m 10.00755,11.22611 -2.16371,-4.64077 m 0,0 -2.16474,-4.63974 v -5.12103 m 4.32845,14.40154 -4.32845,-9.28051 v -15.3641 m 0,0 v -5.12102 l 2.16474,-4.64077 m -2.16474,25.12589 -3.92192,-3.29319 m 0,0 -3.92192,-3.29318 -2.16371,-4.64077 m 18.66445,29.78919 -8.6569,-18.56205 v -30.72717 l -2.16371,-4.64077 m 0,0 -2.16474,-4.64077 v -5.12102 m 4.32845,14.40256 v -5.12102 m 0,0 v -5.12103 l 2.16474,-4.64077 m -2.16474,14.88282 v -10.24205 l 6.49216,-13.9223 m 0,0 2.16474,-4.63975 3.92089,-3.29318 m -12.57779,21.85523 -2.16371,-4.64077 m 0,0 -2.16474,-4.64076 v -5.12103 m 4.32845,55.37178 -7.84384,-6.58637 -4.9449,-1.32403 m 0,0 -4.94592,-1.32403 -3.92192,-3.29319 m 13.81274,5.94125 -3.92192,-3.29318 m 0,0 -3.92192,-3.29319 -2.16371,-4.63974 m 10.00755,11.22611 -7.84384,-6.58637 -6.49216,-13.92128 m 0,0 -2.16371,-4.64077 v -5.12102 m 8.65587,23.68307 -4.9449,-1.32403 m 0,0 -4.94489,-1.32403 -3.92192,-3.29319 m -91.68794,435.17645 -34.62451,-74.25024 -31.37536,-26.343831 -19.78163,-5.296947 -10.08538,1.781248 -4.19533,2.937549 m 0,0 -4.19532,2.937446 -5.0432,0.890675 m 13.43385,-6.76567 -5.0432,0.890675 m 0,0 -5.0432,0.890573 -4.94489,-1.324237 M 445.29011,78.34179 435.20371,80.123038 420.368,76.15043 m 0,0 -4.9449,-1.324237 -3.92192,-3.292979 m 23.70253,8.589824 -4.19533,2.937549 m 0,0 -4.19532,2.937446 -5.0432,0.890675 m 33.60563,-10.328166 -9.89082,-2.648371 -5.04217,0.890573 m 0,0 -5.0432,0.890675 -4.94592,-1.324237 m 15.03129,-0.457011 -4.94489,-1.324237 m 0,0 -4.9449,-1.324237 -3.92192,-3.292979 m 13.81171,5.941453 -9.88979,-2.648474 -11.76576,-9.878937 m 0,0 -3.92192,-3.29298 -2.16474,-4.640563 m 17.85242,17.81248 -5.0432,0.890573 m 0,0 -5.0432,0.890675 -4.9449,-1.324237 m 34.81191,4.839834 -19.78061,-5.296845 -23.53152,-19.757773 -4.94592,-1.324236 m 0,0 -4.9449,-1.324237 -3.92192,-3.292979 m 13.81274,5.941452 -3.92192,-3.292979 m 0,0 -3.92192,-3.292979 -2.16371,-4.640666 m 10.00755,11.226624 -7.84384,-6.585958 -6.49216,-13.921894 m 0,0 -2.16371,-4.640666 v -5.121024 m 8.65587,23.683584 -4.9449,-1.324237 m 0,0 -4.94592,-1.324237 -3.92192,-3.292979 m 45.1881,32.285184 -10.0864,1.781248 -4.19533,2.937549 m 0,0 -4.19533,2.937446 -5.0432,0.890676 m 13.43386,-6.765671 -5.0432,0.890675 m 0,0 -5.04218,0.890573 -4.94592,-1.324237 m 15.0313,-0.457011 -10.08538,1.781248 -14.83673,-3.972608 m 0,0 -4.9449,-1.324237 -3.92192,-3.292979 m 23.70355,8.589824 -4.19532,2.937549 m 0,0 -4.19533,2.937446 -5.0432,0.890676 m 73.16787,0.265625 -15.68768,-13.171917 -9.89082,-2.648473 -5.0432,0.890675 m 0,0 -5.04217,0.890573 -4.94592,-1.324135 m 15.03129,-0.457113 -4.94489,-1.324135 m 0,0 -4.94592,-1.324236 -3.92192,-3.29298 m 13.81273,5.941351 -9.89081,-2.648371 -11.76474,-9.878938 m 0,0 -3.92192,-3.292979 -2.16473,-4.640666 m 17.85139,17.812583 -5.04218,0.890572 m 0,0 -5.0432,0.890676 -4.94592,-1.324237 m 34.81293,4.839833 -7.84384,-6.585958 -4.9449,-1.324237 m 0,0 -4.94592,-1.324134 -3.92192,-3.292979 m 13.81274,5.94135 -3.92192,-3.292979 m 0,0 -3.92192,-3.292979 -2.16371,-4.640564 m 10.00755,11.226522 -7.84384,-6.585958 -6.49216,-13.921792 m 0,0 -2.16371,-4.640666 v -5.121126 m 8.65587,23.683584 -4.9449,-1.324135 m 0,0 -4.94592,-1.324237 -3.92192,-3.292979 M 459.46944,68.685572 443.78176,55.513656 430.79744,27.669969 426.87552,24.37699 m 0,0 -3.92192,-3.292979 -2.16371,-4.640666 m 10.00755,11.226624 -2.16371,-4.640665 m 0,0 -2.16474,-4.640564 v -5.121126 m 4.32845,14.402355 -4.32845,-9.281229 V 3.0254123 m 0,0 v -5.1210926 l 2.16474,-4.6406277 m -2.16474,25.125048 -3.92089,-3.292979 m 0,0 -3.92192,-3.292979 -2.16474,-4.6406452 m 27.32032,48.3515192 -9.89082,-2.648372 -5.04217,0.890573 m 0,0 -5.0432,0.890675 -4.94592,-1.324236 m 15.03129,-0.457012 -4.94489,-1.324236 m 0,0 -4.9449,-1.324237 -3.92192,-3.292979 m 13.81171,5.941452 -9.88979,-2.648473 -11.76576,-9.878938 m 0,0 -3.92192,-3.292979 -2.16473,-4.640563 m 17.85241,17.81248 -5.0432,0.890675 m 0,0 -5.0432,0.890573 -4.94489,-1.324237 m 66.18726,31.183667 -31.37536,-26.343833 -25.96864,-55.68746546 -7.84384,-6.58593794 -4.9449,-1.3242163 m 0,0 -4.94592,-1.3242163 -3.92192,-3.292948 m 13.81274,5.9413806 -3.92192,-3.2929686 m 0,0 -3.92192,-3.292918 -2.16371,-4.640666 m 10.00755,11.2265526 -7.84384,-6.5858866 -6.49216,-13.921894 m 0,0 -2.16371,-4.640666 v -5.121126 m 8.65587,23.683686 -4.9449,-1.324237 m 0,0 -4.94592,-1.324237 -3.92089,-3.292979 m 29.49939,19.11327754 -4.32845,-9.28124924 -3.92192,-3.2929693 m 0,0 -3.92089,-3.292979 -2.16474,-4.640563 m 10.00755,11.2265113 -2.16371,-4.6406553 m 0,0 -2.16371,-4.640563 v -5.121127 m 4.32742,14.4023453 -4.32742,-9.2812183 v -15.363277 m 0,0 v -5.121126 l 2.16371,-4.640666 m -2.16371,25.125069 -3.92192,-3.292979 m 0,0 -3.92192,-3.29298 -2.16474,-4.640665 m 18.66445,29.78909154 -8.65587,-18.56246754 v -30.726554 l -2.16474,-4.640665 m 0,0 -2.16371,-4.640666 v -5.121024 m 4.32845,14.402355 v -5.121126 m 0,0 v -5.121127 l 2.16371,-4.640563 m -2.16371,14.882816 v -10.242253 l 6.49216,-13.921894 m 0,0 2.16371,-4.640563 3.92192,-3.292979 m -12.57779,21.855436 -2.16474,-4.640563 m 0,0 -2.16371,-4.640665 v -5.121127 m 4.32845,55.371162 -7.84384,-6.585959 -4.94592,-1.324236 m 0,0 -4.9449,-1.324237 -3.92192,-3.292979 m 13.81274,5.941452 -3.92192,-3.292979 m 0,0 -3.92192,-3.292979 -2.16371,-4.640563 m 10.00755,11.226521 -7.84384,-6.585958 -6.49216,-13.921894 m 0,0 -2.16371,-4.640564 v -5.121126 m 8.65587,23.683584 -4.9449,-1.324237 m 0,0 -4.94592,-1.324237 -3.92192,-3.292876 m 64.12493,93.3632 -19.78061,-5.296845 -10.0864,1.781248 -4.19533,2.937549 m 0,0 -4.19532,2.937446 -5.0432,0.890675 m 13.43385,-6.76567 -5.0432,0.890675 m 0,0 -5.04217,0.890573 -4.94592,-1.324237 m 15.03129,-0.457011 -10.08537,1.781248 -14.83674,-3.972608 m 0,0 -4.9449,-1.324237 -3.92192,-3.292979 m 23.70356,8.589824 -4.19533,2.937549 m 0,0 -4.19533,2.937446 -5.0432,0.890675 m 33.60563,-10.328166 -9.89081,-2.648474 -5.0432,0.890675 m 0,0 -5.0432,0.890573 -4.9449,-1.324134 m 15.0313,-0.457114 -4.94592,-1.324134 m 0,0 -4.9449,-1.324237 -3.92192,-3.292979 m 13.81274,5.94135 -9.89082,-2.648371 -11.76576,-9.878938 m 0,0 -3.92192,-3.292979 -2.16371,-4.640563 m 17.85139,17.81248 -5.0432,0.890573 m 0,0 -5.0432,0.890675 -4.9449,-1.324237 m 34.81293,4.839834 -19.78163,-5.296845 -23.53152,-19.757875 -4.9449,-1.324135 m 0,0 -4.94592,-1.324236 -3.92192,-3.29298 m 13.81274,5.941351 -3.92192,-3.292877 m 0,0 -3.92192,-3.292979 -2.16371,-4.640666 M 380.688,25.162091 372.84416,18.576235 366.352,4.6543198 m 0,0 -2.16371,-4.64062462 V -5.1074005 m 8.65587,23.6836355 -4.9449,-1.324237 m 0,0 -4.94489,-1.324237 -3.92192,-3.292979 m 45.18707,32.285184 -10.0864,1.781248 -4.19533,2.937446 m 0,0 -4.19533,2.937549 -5.04217,0.890573 m 13.43283,-6.765568 -5.04218,0.890573 m 0,0 -5.0432,0.890675 -4.94592,-1.324237 m 15.0313,-0.457011 -10.08538,1.781248 -14.83571,-3.97271 m 0,0 -4.94592,-1.324135 -3.92192,-3.292979 m 23.70355,8.589824 -4.19532,2.937446 m 0,0 -4.19533,2.937549 -5.0432,0.890573 m 135.91859,52.95329 -17.31277,-37.125117 -15.68768,-13.171917 -9.89081,-2.648371 -5.0432,0.890573 m 0,0 -5.04218,0.890675 -4.94592,-1.324237 m 15.0313,-0.457011 -4.9449,-1.324237 m 0,0 -4.94592,-1.324237 -3.92192,-3.292979 m 13.81274,5.941453 -9.89082,-2.648474 -11.76576,-9.878937 m 0,0 -3.9209,-3.29298 -2.16473,-4.640563 m 17.85139,17.81248 -5.04218,0.890675 m 0,0 -5.0432,0.890573 -4.94592,-1.324237 m 34.81293,4.839834 -7.84384,-6.585856 -4.94489,-1.324237 m 0,0 -4.94592,-1.324237 -3.92192,-3.292979 m 13.81273,5.941453 -3.92192,-3.292979 m 0,0 -3.92192,-3.292979 -2.16371,-4.640666 m 10.00755,11.226624 -7.84384,-6.585958 -6.49216,-13.921895 m 0,0 -2.16371,-4.640665 v -5.121024 m 8.65587,23.683584 -4.94489,-1.324237 m 0,0 -4.94592,-1.324237 -3.92192,-3.292979 m 29.50041,19.113267 -15.68768,-13.171814 -12.98432,-27.843789 -3.92192,-3.292979 m 0,0 -3.92192,-3.29298 -2.16371,-4.6405936 m 10.00755,11.2265526 -2.16371,-4.640563 m 0,0 -2.16474,-4.6406763 V 2.486348 m 4.32845,14.402335 -4.32845,-9.2812393 V -7.7558331 m 0,0 v -5.1211159 l 2.16474,-4.640563 m -2.16474,25.1249557 -3.92192,-3.292969 m 0,0 -3.92192,-3.292969 -2.16371,-4.6406246 m 27.32032,48.3515909 -9.89081,-2.648474 -5.04218,0.890675 m 0,0 -5.0432,0.890573 -4.94592,-1.324237 m 15.0313,-0.457011 -4.9449,-1.324237 m 0,0 -4.9449,-1.324237 -3.92192,-3.292876 m 13.81172,5.94135 -9.8898,-2.648474 -11.76576,-9.878835 m 0,0 -3.92192,-3.292979 -2.16473,-4.640666 m 17.85241,17.81248 -5.0432,0.890676 m 0,0 -5.0432,0.890572 -4.94489,-1.324134 M 489.21971,71.076203 480.56282,52.513745 472.72,45.927787 467.77408,44.60355 m 0,0 -4.9449,-1.324237 -3.92192,-3.292979 m 13.81274,5.941453 -3.92192,-3.292979 m 0,0 -3.92192,-3.29298 -2.16474,-4.640665 M 472.72,45.927787 464.87616,39.341828 458.384,25.419934 m 0,0 -2.16474,-4.640563 v -5.121127 m 8.6569,23.683584 -4.94592,-1.324236 m 0,0 -4.9449,-1.324237 -3.92192,-3.292979 m 29.4994,19.113369 -4.32743,-9.281331 -3.92192,-3.292979 m 0,0 -3.92192,-3.292877 -2.16473,-4.640666 m 10.00857,11.226522 -2.16473,-4.640563 m 0,0 -2.16372,-4.640666 v -5.121126 m 4.32845,14.402355 -4.32845,-9.281229 V 18.587908 m 0,0 v -5.121126 l 2.16372,-4.6405633 m -2.16372,25.1249663 -3.92192,-3.292979 m 0,0 -3.92192,-3.292979 -2.16371,-4.640563 m 18.66343,29.789081 -8.65588,-18.56256 V 3.2246315 l -2.16371,-4.6406246 m 0,0 -2.16473,-4.6406247 v -5.1210952 m 4.32844,14.4023445 v -5.121093 m 0,0 v -5.1210984 l 2.16372,-4.6406241 M 471.90694,3.2246315 V -7.0175599 l 6.49216,-13.9218531 m 0,0 2.16372,-4.640666 3.92192,-3.292979 m -12.5778,21.8554981 -2.16371,-4.6406241 m 0,0 -2.16473,-4.640666 v -5.121024 m 4.32844,55.371059 -7.84384,-6.585958 -4.94489,-1.324237 m 0,0 -4.94592,-1.324134 -3.92192,-3.29298 m 13.81273,5.941351 -3.92192,-3.292979 m 0,0 -3.92192,-3.292877 -2.16371,-4.640666 M 464.0631,27.365227 456.21926,20.779371 449.7271,6.8574456 m 0,0 -2.16371,-4.6406247 v -5.1210956 m 8.65587,23.6836457 -4.94489,-1.324237 m 0,0 -4.94592,-1.324237 -3.92192,-3.292979 m 46.81318,56.238285 -17.31277,-37.125018 v -61.453107 l -4.32844,-9.281229 -3.92192,-3.292979 m 0,0 -3.92192,-3.292979 -2.16372,-4.640666 m 10.00756,11.226624 -2.16372,-4.640665 m 0,0 -2.16371,-4.640564 v -5.121126 m 4.32743,14.402355 -4.32743,-9.281229 v -15.363379 m 0,0 v -5.121024 l 2.16371,-4.640665 m -2.16371,25.125068 -3.92192,-3.292979 m 0,0 -3.92192,-3.292979 -2.16473,-4.640666 m 18.66444,29.789082 v -10.24215 l -2.16371,-4.640666 m 0,0 -2.16473,-4.640666 v -5.121024 m 4.32844,14.402356 v -5.121127 m 0,0 v -5.121126 l 2.16372,-4.640563 m -2.16372,14.882816 v -10.242253 l 6.49216,-13.921895 m 0,0 2.16372,-4.640563 3.92192,-3.292979 m -12.5778,21.855437 -2.16371,-4.640563 m 0,0 -2.16473,-4.640666 v -5.121126 m 4.32844,34.886758 v -20.484403 l 12.98432,-27.843687 v -5.121126 m 0,0 v -5.121126 l 2.16372,-4.640564 m -2.16372,14.882816 2.16372,-4.640665 m 0,0 2.16473,-4.640666 3.92192,-3.292979 m -8.25037,12.57431 4.32845,-9.281331 11.76576,-9.878835 m 0,0 3.92192,-3.292979 4.9449,-1.324237 m -20.63258,14.496051 v -5.121024 m 0,0 v -5.121126 l 2.16371,-4.640666 m -19.47648,52.007834 -4.32844,-9.281229 -3.92192,-3.292979 m 0,0 -3.92192,-3.292979 -2.16372,-4.640564 m 10.00756,11.226522 -2.16372,-4.640666 m 0,0 -2.16371,-4.640563 v -5.121126 m 4.32743,14.402355 -4.32743,-9.281229 V -81.91206 m 0,0 v -5.121126 l 2.16371,-4.640666 m -2.16371,25.125069 -3.92192,-3.292979 m 0,0 -3.92192,-3.292979 -2.16473,-4.640666 m 18.66444,111.726592 -15.68768,-13.171814 -9.89081,-2.648474 -5.04218,0.890573 m 0,0 -5.0432,0.890675 -4.94592,-1.324237 m 15.0313,-0.457011 -4.9449,-1.324237 m 0,0 -4.94489,-1.324236 -3.92192,-3.29298 m 13.81171,5.941453 -9.88979,-2.648473 -11.76576,-9.8788869 m 0,0 -3.92192,-3.292969 -2.16474,-4.6406236 m 17.85242,17.8124795 -5.0432,0.890675 m 0,0 -5.0432,0.890573 -4.9449,-1.324237 m 34.8119,4.839936 -7.84384,-6.585959 -4.94489,-1.324236 m 0,0 -4.94592,-1.324237 -3.9209,-3.292959 m 13.81171,5.941432 -3.92192,-3.292979 m 0,0 -3.92192,-3.2929893 -2.16371,-4.6406247 m 10.00755,11.226593 -7.84384,-6.5859683 -6.49216,-13.921874 m 0,0 -2.16371,-4.6406247 v -5.121075 m 8.65587,23.6835737 -4.94489,-1.3242164 m 0,0 -4.9449,-1.3242163 -3.92192,-3.2929689 M 456.21926,20.779371 440.53158,7.6074437 427.54726,-20.236335 l -3.92192,-3.292979 m 0,0 -3.92192,-3.292979 -2.16371,-4.640563 m 10.00755,11.226521 -2.16371,-4.640563 m 0,0 -2.16371,-4.640666 v -5.121126 m 4.32742,14.402355 -4.32742,-9.281229 V -44.88084 m 0,0 v -5.121127 l 2.16371,-4.640563 m -2.16371,25.124966 -3.92192,-3.292979 m 0,0 -3.92192,-3.292979 -2.16474,-4.640563 m 27.32032,48.3515287 -9.88979,-2.6484327 -5.0432,0.890624 m 0,0 -5.0432,0.890624 -4.94489,-1.3242163 M 430.64179,4.959011 425.69587,3.6347845 m 0,0 -4.94489,-1.3242164 -3.92192,-3.29296687 M 430.64179,4.959011 420.75098,2.3105681 408.98522,-7.5683387 m 0,0 -3.92192,-3.2929693 -2.16372,-4.640665 m 17.8514,17.8125411 -5.0432,0.890624 m 0,0 -5.0432,0.890624 -4.9449,-1.3242163 M 506.53248,108.20132 471.90694,33.951185 V -88.955029 l -8.65587,-18.562561 -7.84384,-6.58637 -4.94592,-1.32403 m 0,0 -4.94489,-1.32403 -3.92192,-3.29319 m 13.81273,5.94125 -3.92192,-3.29216 m 0,0 -3.92192,-3.29318 -2.16371,-4.64077 m 10.00755,11.22611 -7.84384,-6.58534 -6.49216,-13.92231 m 0,0 -2.16473,-4.64076 v -5.12103 m 8.65689,23.6841 -4.94592,-1.32403 m 0,0 -4.94489,-1.32404 -3.92192,-3.29318 m 29.50041,19.11296 -4.32845,-9.28154 -3.92192,-3.29216 m 0,0 -3.92192,-3.29318 -2.16371,-4.64077 m 10.00755,11.22611 -2.16371,-4.64076 m 0,0 -2.16473,-4.63975 v -5.12102 m 4.32844,14.40153 -4.32844,-9.28051 v -15.36409 m 0,0 v -5.12103 l 2.16473,-4.64077 m -2.16473,25.12589 -3.92192,-3.29318 m 0,0 -3.92192,-3.29319 -2.16372,-4.64076 m 18.66445,29.78918 -8.65689,-18.56205 v -30.72717 l -2.16372,-4.64076 m 0,0 -2.16371,-4.64077 v -5.12103 m 4.32743,14.40256 v -5.12102 m 0,0 v -5.12102 l 2.16473,-4.64077 m -2.16473,14.88281 v -10.24204 l 6.49216,-13.92231 m 0,0 2.16473,-4.63974 3.92192,-3.29319 m -12.57881,21.85524 -2.16372,-4.64077 m 0,0 -2.16371,-4.64077 v -5.12102 m 4.32743,55.37177 -7.84384,-6.58637 -4.9449,-1.32403 m 0,0 -4.9449,-1.32403 -3.92192,-3.29318 m 13.81172,5.94124 -3.92192,-3.29318 m 0,0 -3.92192,-3.29318 -2.16372,-4.63975 m 10.00756,11.22611 -7.84384,-6.58636 -6.49216,-13.92128 m 0,0 -2.16372,-4.64077 v -5.12103 m 8.65588,23.68308 -4.9449,-1.32404 m 0,0 -4.9449,-1.32403 -3.92192,-3.29318 m 46.81216,56.238591 v -20.484611 l -4.32844,-9.28153 -3.92192,-3.29216 m 0,0 -3.92192,-3.29319 -2.16372,-4.64077 m 10.00756,11.22612 -2.16372,-4.63975 m 0,0 -2.16371,-4.64077 v -5.12102 m 4.32743,14.40154 -4.32743,-9.28052 v -15.36307 m 0,0 v -5.12205 l 2.16371,-4.63974 m -2.16371,25.12486 -3.92192,-3.29318 m 0,0 -3.92192,-3.29318 -2.16473,-4.64077 m 18.66444,29.78918 v -10.24205 l -2.16371,-4.64076 m 0,0 -2.16473,-4.64077 v -5.12103 m 4.32844,14.40256 v -5.12102 m 0,0 v -5.12102 l 2.16372,-4.64077 m -2.16372,14.88281 v -10.24204 l 6.49216,-13.92231 m 0,0 2.16372,-4.64077 3.92192,-3.29216 m -12.5778,21.85524 -2.16371,-4.64077 m 0,0 -2.16473,-4.64077 v -5.12102 m 4.32844,34.88665 v -20.48409 l 12.98432,-27.84359 v -5.12102 m 0,0 v -5.12103 l 2.16372,-4.64076 m -2.16372,14.88281 2.16372,-4.64077 m 0,0 2.16473,-4.64076 3.92192,-3.29319 m -8.25037,12.57472 4.32845,-9.28153 11.76576,-9.87853 m 0,0 3.92192,-3.29319 4.9449,-1.32403 m -20.63258,14.49575 v -5.12103 m 0,0 v -5.12102 l 2.16371,-4.64077 m -19.47648,52.00794 -4.32844,-9.28154 -3.92192,-3.29318 m 0,0 -3.92192,-3.29216 -2.16372,-4.64077 m 10.00756,11.22611 -2.16372,-4.64077 m 0,0 -2.16371,-4.64077 v -5.12102 m 4.32743,14.40256 -4.32743,-9.28154 v -15.36307 m 0,0 v -5.12102 l 2.16371,-4.64077 m -2.16371,25.12486 -3.92192,-3.29216 m 0,0 -3.92192,-3.29318 -2.16473,-4.64077 m 18.66444,70.757891 v -40.968701 l 25.96864,-55.68717 v -10.24307 l -2.16371,-4.63975 m 0,0 -2.16473,-4.64077 v -5.12102 m 4.32844,14.40154 v -5.12103 m 0,0 v -5.12102 l 2.16372,-4.64077 m -2.16372,14.88282 v -10.24205 l 6.49216,-13.92128 m 0,0 2.16474,-4.64077 3.9209,-3.29318 m -12.5778,21.85523 -2.16371,-4.64077 m 0,0 -2.16473,-4.63974 v -5.12103 m 4.32844,34.88666 4.32845,-9.28154 v -5.12102 m 0,0 v -5.12103 l 2.16371,-4.64076 m -2.16371,14.88281 2.16371,-4.64077 m 0,0 2.16474,-4.64076 3.9209,-3.29319 m -8.24935,12.57472 4.32845,-9.28153 11.76474,-9.87853 m 0,0 3.92192,-3.29319 4.94592,-1.32403 m -20.63258,14.49575 v -5.12103 m 0,0 v -5.12102 l 2.16371,-4.64077 m -10.82061,33.44589 8.6569,-18.56307 23.5305,-19.75808 2.16473,-4.63975 m 0,0 2.16371,-4.64077 3.92192,-3.29318 m -8.25036,12.5737 3.92192,-3.29216 m 0,0 3.92192,-3.29319 4.94592,-1.32403 m -12.78976,7.90938 7.84384,-6.58535 14.83571,-3.97312 m 0,0 4.94592,-1.32403 5.0432,0.89088 m -24.82483,4.40627 2.16473,-4.64077 m 0,0 2.16371,-4.64076 3.92192,-3.29319 m -39.6247,38.91815 v -10.24205 l -2.16474,-4.64077 m 0,0 -2.16371,-4.64077 v -5.12102 m 4.32845,14.40256 v -5.12103 m 0,0 v -5.12102 l 2.16371,-4.64077 m -2.16371,14.88282 v -10.24205 l 6.49216,-13.9223 m 0,0 2.16371,-4.64077 3.92192,-3.29216 m -12.57779,21.85523 -2.16474,-4.64077 m 0,0 -2.16371,-4.64077 v -5.12102 m -30.29709,109.1369 -8.65587,-18.56308 -7.84384,-6.58534 -4.94592,-1.32403 m 0,0 -4.94489,-1.32403 -3.92192,-3.29319 m 13.81273,5.94125 -3.92192,-3.29318 m 0,0 -3.92192,-3.29319 -2.16371,-4.64077 m 10.00755,11.22714 -7.84384,-6.58637 -6.49216,-13.92128 m 0,0 -2.16473,-4.64077 v -5.12102 m 8.65689,23.68307 -4.94592,-1.32403 m 0,0 -4.94489,-1.32403 -3.92192,-3.29319 m 29.50041,19.11296 -4.32845,-9.28051 -3.92192,-3.29318 m 0,0 -3.92192,-3.29319 -2.16371,-4.64076 m 10.00755,11.22713 -2.16371,-4.64077 m 0,0 -2.16473,-4.64076 v -5.12103 m 4.32844,14.40256 -4.32844,-9.28153 v -15.36308 m 0,0 v -5.12102 l 2.16473,-4.64077 m -2.16473,25.12487 -3.92192,-3.29319 m 0,0 -3.92192,-3.29318 -2.16372,-4.63975 m 18.66445,29.78816 -8.65689,-18.56204 V -197.775 l -2.16372,-4.64077 m 0,0 -2.16371,-4.64076 v -5.12103 m 4.32743,14.40256 v -5.12102 m 0,0 v -5.12103 l 2.16473,-4.64076 m -2.16473,14.88281 v -10.24205 l 6.49216,-13.9223 m 0,0 2.16473,-4.64077 3.92192,-3.29318 m -12.57881,21.85625 -2.16372,-4.64076 m 0,0 -2.16371,-4.64077 v -5.12103 m 4.32743,55.37076 -7.84384,-6.58637 -4.9449,-1.32403 m 0,0 -4.9449,-1.32404 -3.92192,-3.29318 m 13.81172,5.94125 -3.92192,-3.29216 m 0,0 -3.92192,-3.29319 -2.16372,-4.64076 m 10.00756,11.22611 -7.84384,-6.58535 -6.49216,-13.9223 m 0,0 -2.16372,-4.64077 v -5.12102 m 8.65588,23.68409 -4.9449,-1.32403 m 0,0 -4.9449,-1.32403 -3.92192,-3.29318 m 46.81216,220.112995 -31.37536,-26.3437413 -19.7806,-5.2968756 -10.0864,1.781248 -4.19533,2.9375079 m 0,0 -4.19533,2.9375283 -5.0432,0.8905727 m 13.43386,-6.7656089 -5.0432,0.890624 m 0,0 -5.04218,0.8906343 -4.94592,-1.3242266 M 410.66458,4.0918161 400.5792,5.8730744 385.74246,1.9004152 m 0,0 -4.94489,-1.32421634 -3.92192,-3.29297306 m 23.70355,8.5898486 -4.19533,2.9374771 m 0,0 -4.19533,2.9375485 -5.0432,0.890573 m 33.60564,-10.3281049 -9.89082,-2.6484326 -5.0432,0.890624 m 0,0 -5.0432,0.890624 -4.9449,-1.32421632 m 15.0313,-0.45703168 -4.9449,-1.3242225 m 0,0 -4.94592,-1.3242204 -3.92192,-3.2929689 m 13.81274,5.9414118 -9.89082,-2.6484429 -11.76576,-9.8788656 m 0,0 -3.92192,-3.292979 -2.16371,-4.640666 m 17.85139,17.8125106 -5.0432,0.8906271 m 0,0 -5.04217,0.890625 -4.94592,-1.3242184 m 34.81293,4.8398418 -19.78164,-5.2968755 -23.53152,-19.7578036 -4.94489,-1.324237 m 0,0 -4.9449,-1.324236 -3.92192,-3.29298 m 13.81171,5.941453 -3.92192,-3.292979 m 0,0 -3.92192,-3.292979 -2.16371,-4.640563 m 10.00755,11.226521 -7.84384,-6.585958 -6.49216,-13.921895 m 0,0 -2.16371,-4.640563 v -5.121126 m 8.65587,23.683584 -4.94489,-1.324237 m 0,0 -4.9449,-1.324237 -3.92192,-3.292877 m 45.18707,32.2851126 -10.08537,1.7812521 -4.19533,2.9375038 m 0,0 -4.19533,2.9374976 -5.0432,0.890624 m 13.43386,-6.7656254 -5.0432,0.89061992 m 0,0 -5.0432,0.89063424 -4.9449,-1.32422656 m 15.0313,-0.4570276 -10.0864,1.78125416 -14.83571,-3.97265916 m 0,0 -4.94592,-1.3242164 -3.92192,-3.2929689 m 23.70355,8.58984446 -4.19533,2.93749764 m 0,0 -4.19533,2.9374976 -5.0432,0.890624 m 73.16787,0.2656256 -15.68665,-13.1718759 -9.89082,-2.6484326 -5.0432,0.890624 m 0,0 -5.0432,0.890624 -4.94489,-1.3242163 m 15.03129,-0.4570317 -4.94592,-1.3242266 m 0,0 -4.94489,-1.3242166 -3.92192,-3.292979 m 13.81273,5.9414222 -9.89081,-2.6484432 -11.76576,-9.878937 m 0,0 -3.92192,-3.292979 -2.16372,-4.640564 m 17.8514,17.81248 -5.0432,0.8906243 m 0,0 -5.0432,0.890624 -4.9449,-1.3242163 m 34.81293,4.8398438 -7.84384,-6.5858868 -4.94592,-1.324237 m 0,0 -4.9449,-1.324236 -3.92192,-3.29298 m 13.81274,5.941453 -3.92192,-3.292979 m 0,0 -3.92192,-3.292979 -2.16474,-4.640666 m 10.00858,11.226624 -7.84384,-6.585958 -6.49216,-13.921895 m 0,0 -2.16474,-4.640665 v -5.121024 m 8.6569,23.683584 -4.94592,-1.324237 m 0,0 -4.9449,-1.324237 -3.92192,-3.292979 m 29.50042,19.1132978 -15.68768,-13.1718448 -12.98432,-27.843789 -3.92192,-3.292979 m 0,0 -3.92192,-3.292979 -2.16474,-4.640564 m 10.00858,11.226522 -2.16474,-4.640563 m 0,0 -2.16371,-4.640666 v -5.121126 m 4.32845,14.402355 -4.32845,-9.281229 v -15.363277 m 0,0 v -5.121126 l 2.16371,-4.640563 m -2.16371,25.124966 -3.92192,-3.292979 m 0,0 -3.92192,-3.292979 -2.16371,-4.640666 m 27.32032,48.351642 -9.89082,-2.648474 -5.0432,0.890675 m 0,0 -5.0432,0.890573 -4.94489,-1.324237 m 15.03129,-0.457011 -4.94489,-1.324237 m 0,0 -4.94592,-1.324236 -3.92192,-3.292877 m 13.81273,5.94135 -9.89081,-2.648473 -11.76576,-9.878836 m 0,0 -3.92192,-3.292979 -2.16372,-4.640665 m 17.8514,17.81248 -5.0432,0.890675 m 0,0 -5.04218,0.890573 -4.94592,-1.324135 m 66.18726,31.1835547 -31.37433,-26.3437207 -25.96864,-55.687578 -7.84384,-6.585856 -4.94592,-1.324237 m 0,0 -4.9449,-1.324236 -3.92192,-3.29298 m 13.81274,5.941453 -3.92192,-3.292979 m 0,0 -3.92192,-3.292979 -2.16474,-4.640666 m 10.00858,11.226624 -7.84384,-6.585958 -6.49216,-13.921891 m 0,0 -2.16474,-4.64016 v -5.12205 m 8.6569,23.684101 -4.94592,-1.324237 m 0,0 -4.9449,-1.324237 -3.92192,-3.292979 m 29.50042,19.113267 -4.32845,-9.281229 -3.92192,-3.292979 m 0,0 -3.92192,-3.292979 -2.16371,-4.640563 m 10.00755,11.226521 -2.16371,-4.640563 m 0,0 -2.16474,-4.640665 v -5.121127 m 4.32845,14.402355 -4.32845,-9.281228 v -15.362768 m 0,0 v -5.12205 l 2.16474,-4.63974 m -2.16474,25.124558 -3.92192,-3.29298 m 0,0 -3.92192,-3.292979 -2.16371,-4.640869 m 18.66445,29.789285 -8.6569,-18.562457 v -30.726858 l -2.16371,-4.64077 m 0,0 -2.16371,-4.63975 v -5.12102 m 4.32742,14.40154 v -5.12103 m 0,0 v -5.12102 l 2.16474,-4.64077 m -2.16474,14.88282 v -10.24205 l 6.49216,-13.92128 m 0,0 2.16474,-4.64077 3.92192,-3.29318 m -12.57882,21.85523 -2.16371,-4.64077 m 0,0 -2.16371,-4.64077 v -5.12102 m 4.32742,55.371468 -7.84384,-6.585959 -4.94489,-1.324239 m 0,0 -4.9449,-1.32413 -3.92192,-3.29298 m 13.81171,5.941349 -3.92192,-3.292979 m 0,0 -3.92192,-3.29247 -2.16371,-4.64077 m 10.00755,11.226219 -7.84384,-6.585449 -6.49216,-13.9223 m 0,0 -2.16371,-4.64077 v -5.12102 m 8.65587,23.68409 -4.94489,-1.32505 m 0,0 -4.9449,-1.32404 -3.92192,-3.29318 m 64.12493,93.363713 -19.78163,-5.296947 -10.08538,1.781248 -4.19533,2.937548 m 0,0 -4.19533,2.937447 -5.0432,0.890675 m 13.43386,-6.76567 -5.0432,0.890675 m 0,0 -5.0432,0.890573 -4.9449,-1.324135 m 15.0313,-0.457113 -10.0864,1.781248 -14.83571,-3.972608 m 0,0 -4.94592,-1.324237 -3.92192,-3.292979 m 23.70355,8.589824 -4.19533,2.937548 m 0,0 -4.19533,2.937549 -5.0432,0.890573 m 33.60564,-10.328166 -9.89082,-2.648372 -5.04218,0.890573 m 0,0 -5.0432,0.890675 -4.94592,-1.324236 m 15.0313,-0.457012 -4.9449,-1.324236 m 0,0 -4.94592,-1.324237 -3.92089,-3.292979 m 13.81171,5.941452 -9.89082,-2.648473 -11.76473,-9.878938 m 0,0 -3.92192,-3.292877 -2.16474,-4.640665 m 17.85139,17.81248 -5.04217,0.890675 m 0,0 -5.0432,0.890573 -4.9449,-1.324237 m 34.81191,4.839834 -19.78164,-5.296845 -23.53049,-19.757773 -4.94592,-1.324237 m 0,0 -4.9449,-1.324237 -3.92192,-3.292979 m 13.81274,5.941453 -3.92192,-3.292979 m 0,0 -3.92192,-3.292979 -2.16371,-4.640666 m 10.00755,11.226624 -7.84384,-6.585958 -6.49216,-13.921895 m 0,0 -2.16474,-4.640563 v -5.121126 m 8.6569,23.683584 -4.94592,-1.324237 m 0,0 -4.9449,-1.324237 -3.92192,-3.292979 m 45.18707,32.285184 -10.08537,1.781248 -4.19533,2.937549 m 0,0 -4.19533,2.937446 -5.0432,0.890675 m 13.43386,-6.76567 -5.0432,0.890675 m 0,0 -5.0432,0.890573 -4.9449,-1.324237 m 15.0313,-0.457011 -10.0864,1.781248 -14.83571,-3.972608 m 0,0 -4.9449,-1.324237 -3.92192,-3.292979 m 23.70253,8.589824 -4.19533,2.937549 m 0,0 -4.19533,2.937446 -5.04217,0.890675 m 5.04217,-0.890675"
       id="path2"
       inkscape:connector-curvature="0" />
  </g>
</svg>
