<?xml version="1.0" encoding="UTF-8" standalone="no"?>
<svg
   xmlns:dc="http://purl.org/dc/elements/1.1/"
   xmlns:cc="http://creativecommons.org/ns#"
   xmlns:rdf="http://www.w3.org/1999/02/22-rdf-syntax-ns#"
   xmlns:svg="http://www.w3.org/2000/svg"
   xmlns="http://www.w3.org/2000/svg"
   xmlns:sodipodi="http://sodipodi.sourceforge.net/DTD/sodipodi-0.dtd"
   xmlns:inkscape="http://www.inkscape.org/namespaces/inkscape"
   width="300.32074pt"
   height="405.56778pt"
   viewBox="0 0 300.32074 405.56778"
   version="1.1"
   id="svg5"
   sodipodi:docname="plant.svg"
   inkscape:version="0.92.4 5da689c313, 2019-01-14">
  <metadata
     id="metadata11">
    <rdf:RDF>
      <cc:Work
         rdf:about="">
        <dc:format>image/svg+xml</dc:format>
        <dc:type
           rdf:resource="http://purl.org/dc/dcmitype/StillImage" />
        <dc:title></dc:title>
      </cc:Work>
    </rdf:RDF>
  </metadata>
  <defs
     id="defs9" />
  <sodipodi:namedview
     pagecolor="#ffffff"
     bordercolor="#666666"
     borderopacity="1"
     objecttolerance="10"
     gridtolerance="10"
     guidetolerance="10"
     inkscape:pageopacity="0"
     inkscape:pageshadow="2"
     inkscape:window-width="1279"
     inkscape:window-height="922"
     id="namedview7"
     showgrid="false"
     fit-margin-top="0"
     fit-margin-left="0"
     fit-margin-right="0"
     fit-margin-bottom="0"
     inkscape:zoom="0.48889805"
     inkscape:cx="492.33709"
     inkscape:cy="140.51347"
     inkscape:window-x="1279"
     inkscape:window-y="516"
     inkscape:window-maximized="1"
     inkscape:current-layer="svg5" />
  <g
     id="surface21"
     transform="translate(-407.90306,-106.43222)">
    <path
       style="fill:none;stroke:#000000;stroke-width:0.001;stroke-linecap:butt;stroke-linejoin:miter;stroke-miterlimit:10;stroke-opacity:1"
       d="M 0.5,0.5 V 0.419983 L 0.483093,0.383728 0.467773,0.370865 0.458115,0.368279 0.45319,0.369148 m 0,0 -0.004925,8.7e-4 L 0.443436,0.368725 M 0.458115,0.368279 0.453285,0.366985 m 0,0 L 0.448456,0.365692 0.444626,0.362476 M 0.458115,0.368279 0.448456,0.365692 0.436966,0.356045 m 0,0 L 0.433136,0.352829 0.431023,0.348297 m 0.017433,0.017395 -0.004925,8.7e-4 m 0,0 -0.004925,8.7e-4 L 0.433777,0.366138 M 0.467773,0.370865 0.460114,0.364433 0.455284,0.36314 m 0,0 L 0.450455,0.361847 0.446625,0.358631 M 0.460114,0.364433 0.456284,0.361217 m 0,0 L 0.452454,0.358002 0.45034,0.35347 M 0.460114,0.364433 0.452454,0.358002 0.446114,0.344406 m 0,0 L 0.444,0.339874 V 0.334873 M 0.452454,0.358002 0.447624,0.356709 m 0,0 L 0.442795,0.355415 0.438965,0.3522 M 0.467773,0.370865 0.452454,0.358002 0.439774,0.330811 0.435944,0.327595 m 0,0 L 0.432114,0.324379 0.43,0.319847 M 0.439774,0.330811 0.43766,0.326279 m 0,0 L 0.435547,0.321747 V 0.316746 M 0.439774,0.330811 0.435547,0.321747 V 0.306744 m 0,0 V 0.301743 L 0.43766,0.297211 M 0.435547,0.321747 0.431717,0.318531 m 0,0 L 0.427887,0.315315 0.425774,0.310783 M 0.452454,0.358002 0.442795,0.355415 0.43787,0.356285 m 0,0 -0.004925,8.7e-4 L 0.428116,0.355862 M 0.442795,0.355415 0.437965,0.354122 m 0,0 L 0.433136,0.352829 0.429306,0.349613 M 0.442795,0.355415 0.433136,0.352829 0.421646,0.343182 m 0,0 L 0.417816,0.339966 0.415703,0.335434 m 0.017433,0.017395 -0.004925,8.7e-4 m 0,0 L 0.423286,0.354568 0.418457,0.353275 M 0.483093,0.383728 0.47464,0.365601 0.46698,0.359169 0.462151,0.357876 m 0,0 L 0.457321,0.356583 0.453491,0.353367 M 0.46698,0.359169 0.46315,0.355953 m 0,0 L 0.45932,0.352737 0.457207,0.348206 M 0.46698,0.359169 0.45932,0.352737 0.45298,0.339142 m 0,0 L 0.450867,0.33461 V 0.329609 M 0.45932,0.352737 0.454491,0.351444 m 0,0 L 0.449661,0.350151 0.445831,0.346935 M 0.47464,0.365601 0.470413,0.356537 0.466583,0.353321 m 0,0 L 0.462753,0.350105 0.46064,0.345573 M 0.470413,0.356537 0.4683,0.352005 m 0,0 L 0.466187,0.347473 V 0.342472 M 0.470413,0.356537 0.466187,0.347473 V 0.33247 m 0,0 V 0.327469 L 0.4683,0.322937 M 0.466187,0.347473 0.462357,0.344257 m 0,0 L 0.458527,0.341042 0.456413,0.33651 M 0.47464,0.365601 0.466187,0.347473 V 0.317467 L 0.464073,0.312935 m 0,0 L 0.46196,0.308403 V 0.303402 M 0.466187,0.317467 V 0.312466 m 0,0 V 0.307465 L 0.4683,0.302933 M 0.466187,0.317467 V 0.307465 l 0.00634,-0.013596 m 0,0 L 0.47464,0.289337 0.47847,0.286121 M 0.466187,0.307465 0.464073,0.302933 m 0,0 L 0.46196,0.298401 V 0.2934 M 0.466187,0.347473 0.458527,0.341042 0.453697,0.339748 m 0,0 L 0.448868,0.338455 0.445038,0.335239 M 0.458527,0.341042 0.454697,0.337826 m 0,0 L 0.450867,0.33461 0.448753,0.330078 M 0.458527,0.341042 0.450867,0.33461 0.444527,0.321014 m 0,0 L 0.442413,0.316483 V 0.311481 M 0.450867,0.33461 0.446037,0.333317 m 0,0 L 0.441208,0.332024 0.437378,0.328808 M 0.483093,0.383728 0.466187,0.347473 V 0.28746 L 0.46196,0.278397 0.45813,0.275181 m 0,0 L 0.4543,0.271965 0.452187,0.267433 M 0.46196,0.278397 0.459846,0.273865 m 0,0 L 0.457733,0.269333 V 0.264332 M 0.46196,0.278397 0.457733,0.269333 V 0.25433 m 0,0 V 0.249329 L 0.459846,0.244797 M 0.457733,0.269333 0.453903,0.266117 m 0,0 L 0.450073,0.262901 0.44796,0.258369 M 0.466187,0.28746 V 0.277458 L 0.464073,0.272926 m 0,0 L 0.46196,0.268394 V 0.263393 M 0.466187,0.277458 V 0.272457 m 0,0 V 0.267456 L 0.4683,0.262924 M 0.466187,0.277458 V 0.267456 L 0.472527,0.25386 m 0,0 L 0.47464,0.249329 0.47847,0.246113 M 0.466187,0.267456 0.464073,0.262924 m 0,0 L 0.46196,0.258392 V 0.253391 M 0.466187,0.28746 V 0.267456 L 0.478867,0.240265 V 0.235264 m 0,0 V 0.230263 L 0.48098,0.225731 M 0.478867,0.240265 0.48098,0.235733 m 0,0 0.002113,-0.004532 0.00383,-0.003216 M 0.478867,0.240265 0.483093,0.231201 0.494583,0.221554 m 0,0 0.00383,-0.003216 0.004829,-0.001293 M 0.483093,0.231201 V 0.2262 m 0,0 V 0.221199 L 0.485207,0.216667 M 0.466187,0.267456 0.46196,0.258392 0.45813,0.255177 m 0,0 L 0.4543,0.251961 0.452187,0.247429 M 0.46196,0.258392 0.459846,0.25386 m 0,0 L 0.457733,0.249329 V 0.244328 M 0.46196,0.258392 0.457733,0.249329 V 0.234325 m 0,0 V 0.229324 L 0.459846,0.224792 M 0.457733,0.249329 0.453903,0.246113 m 0,0 L 0.450073,0.242897 0.44796,0.238365 M 0.466187,0.347473 0.450867,0.33461 0.441208,0.332024 0.436283,0.332893 m 0,0 -0.004925,8.7e-4 L 0.426529,0.33247 M 0.441208,0.332024 0.436378,0.33073 m 0,0 L 0.431549,0.329437 0.427719,0.326221 M 0.441208,0.332024 0.431549,0.329437 0.420059,0.31979 m 0,0 L 0.416229,0.316574 0.414116,0.312042 m 0.017433,0.017395 -0.004925,8.7e-4 m 0,0 L 0.4217,0.331177 0.41687,0.329884 M 0.450867,0.33461 0.443207,0.328178 0.438377,0.326885 m 0,0 L 0.433548,0.325592 0.429718,0.322376 M 0.443207,0.328178 0.439377,0.324963 m 0,0 L 0.435547,0.321747 0.433434,0.317215 M 0.443207,0.328178 0.435547,0.321747 0.429207,0.308151 m 0,0 L 0.427094,0.303619 V 0.298618 M 0.435547,0.321747 0.430717,0.320454 m 0,0 L 0.425888,0.31916 0.422058,0.315945 M 0.450867,0.33461 0.435547,0.321747 0.422867,0.294556 0.419037,0.29134 m 0,0 L 0.415207,0.288124 0.413094,0.283592 M 0.422867,0.294556 0.420753,0.290024 m 0,0 L 0.41864,0.285492 V 0.280491 M 0.422867,0.294556 0.41864,0.285492 V 0.270489 m 0,0 V 0.265488 L 0.420753,0.260956 M 0.41864,0.285492 0.41481,0.282276 m 0,0 L 0.41098,0.27906 0.408867,0.274529 M 0.435547,0.321747 0.425888,0.31916 0.420963,0.32003 m 0,0 L 0.416039,0.3209 0.411209,0.319607 M 0.425888,0.31916 0.421059,0.317867 m 0,0 L 0.416229,0.316574 0.412399,0.313358 M 0.425888,0.31916 0.416229,0.316574 0.404739,0.306927 m 0,0 L 0.400909,0.303711 0.398796,0.299179 m 0.017433,0.017395 -0.004925,8.7e-4 m 0,0 L 0.40638,0.318314 0.40155,0.31702 M 0.5,0.419983 V 0.379974 L 0.491547,0.361847 0.483887,0.355415 0.479057,0.354122 m 0,0 L 0.474228,0.352829 0.470398,0.349613 M 0.483887,0.355415 0.480057,0.3522 m 0,0 L 0.476227,0.348984 0.474113,0.344452 M 0.483887,0.355415 0.476227,0.348984 0.469887,0.335388 m 0,0 L 0.467773,0.330856 V 0.325855 M 0.476227,0.348984 0.471397,0.347691 m 0,0 L 0.466568,0.346397 0.462738,0.343182 M 0.491547,0.361847 0.48732,0.352783 0.48349,0.349567 m 0,0 L 0.47966,0.346352 0.477547,0.34182 M 0.48732,0.352783 0.485207,0.348251 m 0,0 L 0.483093,0.343719 V 0.338718 M 0.48732,0.352783 0.483093,0.343719 V 0.328716 m 0,0 V 0.323715 L 0.485207,0.319183 M 0.483093,0.343719 0.479263,0.340504 m 0,0 L 0.475433,0.337288 0.47332,0.332756 M 0.491547,0.361847 0.483093,0.343719 V 0.313713 L 0.48098,0.309181 m 0,0 L 0.478867,0.304649 V 0.299648 M 0.483093,0.313713 V 0.308712 m 0,0 V 0.303711 L 0.485207,0.299179 M 0.483093,0.313713 V 0.303711 l 0.00634,-0.013596 m 0,0 0.002114,-0.004532 0.00383,-0.003215 M 0.483093,0.303711 0.48098,0.299179 m 0,0 L 0.478867,0.294647 V 0.289646 M 0.483093,0.343719 0.475433,0.337288 0.470604,0.335995 m 0,0 L 0.465775,0.334702 0.461945,0.331486 M 0.475433,0.337288 0.471603,0.334072 m 0,0 L 0.467773,0.330856 0.46566,0.326324 M 0.475433,0.337288 0.467773,0.330856 0.461433,0.317261 m 0,0 L 0.45932,0.312729 V 0.307728 M 0.467773,0.330856 0.462944,0.329563 m 0,0 L 0.458115,0.32827 0.454285,0.325054 M 0.5,0.379974 V 0.35997 L 0.495773,0.350906 0.491943,0.347691 m 0,0 L 0.488113,0.344475 0.486,0.339943 M 0.495773,0.350906 0.49366,0.346375 m 0,0 L 0.491547,0.341843 V 0.336842 M 0.495773,0.350906 0.491547,0.341843 V 0.326839 m 0,0 V 0.321838 L 0.49366,0.317307 M 0.491547,0.341843 0.487717,0.338627 m 0,0 L 0.483887,0.335411 0.481773,0.330879 M 0.5,0.35997 V 0.349968 L 0.497887,0.345436 m 0,0 L 0.495773,0.340904 V 0.335903 M 0.5,0.349968 V 0.344967 m 0,0 V 0.339966 L 0.502113,0.335434 M 0.5,0.349968 V 0.339966 L 0.50634,0.32637 m 0,0 0.002113,-0.004532 0.00383,-0.003215 M 0.5,0.339966 0.497887,0.335434 m 0,0 L 0.495773,0.330902 V 0.325901 M 0.5,0.35997 V 0.339966 L 0.51268,0.312775 V 0.307774 m 0,0 V 0.302773 L 0.514793,0.298241 M 0.51268,0.312775 0.514793,0.308243 m 0,0 0.002114,-0.004532 0.00383,-0.003216 M 0.51268,0.312775 0.516907,0.303711 0.528397,0.294064 m 0,0 0.00383,-0.003216 0.004829,-0.001293 M 0.516907,0.303711 V 0.29871 m 0,0 V 0.293709 L 0.51902,0.289177 M 0.5,0.339966 0.495773,0.330902 0.491943,0.327686 m 0,0 L 0.488113,0.324471 0.486,0.319939 M 0.495773,0.330902 0.49366,0.32637 m 0,0 L 0.491547,0.321838 V 0.316837 M 0.495773,0.330902 0.491547,0.321838 V 0.306835 m 0,0 V 0.301834 L 0.49366,0.297302 M 0.491547,0.321838 0.487717,0.318623 m 0,0 L 0.483887,0.315407 0.481773,0.310875 M 0.5,0.379974 V 0.339966 L 0.52536,0.285583 V 0.275581 L 0.523247,0.271049 m 0,0 L 0.521133,0.266518 V 0.261517 M 0.52536,0.275581 V 0.27058 m 0,0 V 0.265579 L 0.527473,0.261047 M 0.52536,0.275581 V 0.265579 L 0.5317,0.251984 m 0,0 0.002113,-0.004532 0.00383,-0.003216 M 0.52536,0.265579 0.523247,0.261047 m 0,0 L 0.521133,0.256516 V 0.251514 M 0.52536,0.285583 0.529587,0.27652 V 0.271519 m 0,0 V 0.266518 L 0.5317,0.261986 M 0.529587,0.27652 0.5317,0.271988 m 0,0 L 0.533813,0.267456 0.537643,0.26424 M 0.529587,0.27652 0.533813,0.267456 0.545303,0.257809 m 0,0 L 0.549133,0.254593 0.553963,0.2533 M 0.533813,0.267456 V 0.262455 m 0,0 V 0.257454 L 0.535927,0.252922 M 0.52536,0.285583 0.533813,0.267456 0.556793,0.248161 0.558907,0.243629 m 0,0 L 0.56102,0.239098 0.56485,0.235882 M 0.556793,0.248161 0.560623,0.244946 m 0,0 0.00383,-0.003216 0.00483,-0.001293 M 0.556793,0.248161 0.564453,0.24173 0.578941,0.23785 m 0,0 0.00483,-0.001293 0.004925,8.7e-4 M 0.564453,0.24173 0.566566,0.237198 m 0,0 L 0.56868,0.232666 0.57251,0.22945 M 0.533813,0.267456 V 0.257454 L 0.5317,0.252922 m 0,0 L 0.529587,0.24839 V 0.243389 M 0.533813,0.257454 V 0.252453 m 0,0 V 0.247452 L 0.535927,0.24292 M 0.533813,0.257454 V 0.247452 L 0.540154,0.233856 m 0,0 0.002113,-0.004532 0.00383,-0.003215 M 0.533813,0.247452 0.5317,0.24292 m 0,0 L 0.529587,0.238388 V 0.233387 M 0.5,0.339966 0.491547,0.321838 0.483887,0.315407 0.479057,0.314114 m 0,0 L 0.474228,0.31282 0.470398,0.309605 M 0.483887,0.315407 0.480057,0.312191 m 0,0 L 0.476227,0.308975 0.474113,0.304443 M 0.483887,0.315407 0.476227,0.308975 0.469887,0.29538 m 0,0 L 0.467773,0.290848 V 0.285847 M 0.476227,0.308975 0.471397,0.307682 m 0,0 L 0.466568,0.306389 0.462738,0.303173 M 0.491547,0.321838 0.48732,0.312775 0.48349,0.309559 m 0,0 L 0.47966,0.306343 0.477547,0.301811 M 0.48732,0.312775 0.485207,0.308243 m 0,0 L 0.483093,0.303711 V 0.29871 M 0.48732,0.312775 0.483093,0.303711 V 0.288708 m 0,0 V 0.283707 L 0.485207,0.279175 M 0.483093,0.303711 0.479263,0.300495 m 0,0 L 0.475433,0.297279 0.47332,0.292747 M 0.491547,0.321838 0.483093,0.303711 V 0.273705 L 0.48098,0.269173 m 0,0 L 0.478867,0.264641 V 0.25964 M 0.483093,0.273705 V 0.268703 m 0,0 V 0.263702 L 0.485207,0.259171 M 0.483093,0.273705 V 0.263702 l 0.00634,-0.013595 m 0,0 0.002114,-0.004532 0.00383,-0.003216 M 0.483093,0.263702 0.48098,0.259171 m 0,0 L 0.478867,0.254639 V 0.249638 M 0.483093,0.303711 0.475433,0.297279 0.470604,0.295986 m 0,0 L 0.465775,0.294693 0.461945,0.291477 M 0.475433,0.297279 0.471603,0.294064 m 0,0 L 0.467773,0.290848 0.46566,0.286316 M 0.475433,0.297279 0.467773,0.290848 0.461433,0.277252 m 0,0 L 0.45932,0.27272 V 0.267719 M 0.467773,0.290848 0.462944,0.289555 m 0,0 L 0.458115,0.288261 0.454285,0.285046 M 0.5,0.419983 V 0.339966 L 0.55072,0.231201 V 0.211197 L 0.546494,0.202133 0.542664,0.198917 m 0,0 L 0.538834,0.195702 0.53672,0.19117 M 0.546494,0.202133 0.54438,0.197601 m 0,0 L 0.542267,0.193069 V 0.188068 M 0.546494,0.202133 0.542267,0.193069 V 0.178066 m 0,0 V 0.173065 L 0.54438,0.168533 M 0.542267,0.193069 0.538437,0.189854 m 0,0 L 0.534607,0.186638 0.532494,0.182106 M 0.55072,0.211197 V 0.201195 L 0.548607,0.196663 m 0,0 L 0.546494,0.192131 V 0.18713 M 0.55072,0.201195 V 0.196194 m 0,0 V 0.191193 L 0.552834,0.186661 M 0.55072,0.201195 V 0.191193 L 0.55706,0.177597 m 0,0 0.002114,-0.004532 0.00383,-0.003216 M 0.55072,0.191193 0.548607,0.186661 m 0,0 L 0.546494,0.182129 V 0.177128 M 0.55072,0.211197 V 0.191193 L 0.5634,0.164001 V 0.159 m 0,0 V 0.153999 L 0.565514,0.149467 M 0.5634,0.164001 0.565514,0.15947 m 0,0 0.002113,-0.004532 0.00383,-0.003216 M 0.5634,0.164001 0.567627,0.154938 0.579117,0.14529 m 0,0 0.00383,-0.003215 0.004829,-0.001294 M 0.567627,0.154938 V 0.149937 m 0,0 V 0.144936 L 0.56974,0.140404 M 0.55072,0.191193 0.546494,0.182129 0.542664,0.178913 m 0,0 L 0.538834,0.175697 0.53672,0.171165 M 0.546494,0.182129 0.54438,0.177597 m 0,0 L 0.542267,0.173065 V 0.168064 M 0.546494,0.182129 0.542267,0.173065 V 0.158062 m 0,0 V 0.153061 L 0.54438,0.148529 M 0.542267,0.173065 0.538437,0.169849 m 0,0 L 0.534607,0.166634 0.532494,0.162102 M 0.55072,0.231201 0.559174,0.213074 V 0.203072 L 0.55706,0.19854 m 0,0 L 0.554947,0.194008 V 0.189007 M 0.559174,0.203072 V 0.198071 m 0,0 V 0.193069 L 0.561287,0.188538 M 0.559174,0.203072 V 0.193069 l 0.00634,-0.013595 m 0,0 0.002113,-0.004532 0.00383,-0.003216 M 0.559174,0.193069 0.55706,0.188538 m 0,0 L 0.554947,0.184006 V 0.179005 M 0.559174,0.213074 0.5634,0.20401 V 0.199009 m 0,0 V 0.194008 L 0.565514,0.189476 M 0.5634,0.20401 0.565514,0.199478 m 0,0 L 0.567627,0.194946 0.571457,0.19173 M 0.5634,0.20401 0.567627,0.194946 0.579117,0.185299 m 0,0 L 0.582947,0.182083 0.587776,0.18079 M 0.567627,0.194946 V 0.189945 m 0,0 V 0.184944 L 0.56974,0.180412 M 0.559174,0.213074 0.567627,0.194946 0.590607,0.175652 0.59272,0.17112 m 0,0 0.002113,-0.004532 0.00383,-0.003216 m -0.008056,0.01228 0.00383,-0.003216 m 0,0 L 0.598267,0.16922 0.603096,0.167927 M 0.590607,0.175652 0.598267,0.16922 0.612755,0.16534 m 0,0 0.004829,-0.001293 0.004925,8.7e-4 M 0.598267,0.16922 0.60038,0.164688 m 0,0 L 0.602493,0.160156 0.606323,0.15694 M 0.567627,0.194946 V 0.184944 L 0.565514,0.180412 m 0,0 L 0.5634,0.17588 V 0.170879 M 0.567627,0.184944 V 0.179943 m 0,0 V 0.174942 L 0.56974,0.17041 M 0.567627,0.184944 V 0.174942 l 0.00634,-0.013596 m 0,0 L 0.57608,0.156815 0.57991,0.153599 M 0.567627,0.174942 0.565514,0.17041 m 0,0 L 0.5634,0.165878 V 0.160877 M 0.55072,0.231201 0.567627,0.194946 0.613586,0.156357 0.617813,0.147293 V 0.142292 m 0,0 V 0.137291 L 0.619926,0.132759 M 0.617813,0.147293 0.619926,0.142761 m 0,0 L 0.62204,0.138229 0.62587,0.135014 M 0.617813,0.147293 0.62204,0.138229 0.63353,0.128582 m 0,0 L 0.63736,0.125366 0.642189,0.124073 M 0.62204,0.138229 V 0.133228 m 0,0 V 0.128227 L 0.624153,0.123695 M 0.613586,0.156357 0.621246,0.149925 0.62336,0.145393 m 0,0 0.002113,-0.004531 0.00383,-0.003216 M 0.621246,0.149925 0.625076,0.146709 m 0,0 0.00383,-0.003215 0.00483,-0.001294 m -0.01249,0.007725 0.00766,-0.006431 0.014488,-0.00388 m 0,0 0.00483,-0.001293 0.004925,8.7e-4 M 0.628906,0.143494 0.63102,0.138962 m 0,0 L 0.633133,0.13443 0.636963,0.131214 M 0.613586,0.156357 0.628906,0.143494 0.657883,0.135735 0.661713,0.132519 m 0,0 L 0.665543,0.129303 0.670372,0.12801 M 0.657883,0.135735 0.662712,0.134441 m 0,0 0.00483,-0.001293 0.004924,8.7e-4 M 0.657883,0.135735 0.667542,0.133148 0.682316,0.135757 m 0,0 0.004925,8.7e-4 0.004097,0.002869 M 0.667542,0.133148 0.671371,0.129932 m 0,0 0.00383,-0.003215 0.00483,-0.001294 M 0.628906,0.143494 0.633133,0.13443 V 0.129429 m 0,0 V 0.124428 L 0.635246,0.119896 M 0.633133,0.13443 0.635246,0.129898 m 0,0 L 0.63736,0.125366 0.64119,0.12215 M 0.633133,0.13443 0.63736,0.125366 0.648849,0.115719 m 0,0 0.00383,-0.003216 0.00483,-0.001293 M 0.63736,0.125366 V 0.120365 m 0,0 V 0.115364 L 0.639473,0.110832 M 0.567627,0.194946 V 0.174942 L 0.5634,0.165878 0.55957,0.162663 m 0,0 L 0.55574,0.159447 0.553627,0.154915 M 0.5634,0.165878 0.561287,0.161346 m 0,0 L 0.559174,0.156815 V 0.151814 M 0.5634,0.165878 0.559174,0.156815 V 0.141811 m 0,0 V 0.13681 L 0.561287,0.132278 M 0.559174,0.156815 0.555344,0.153599 m 0,0 L 0.551514,0.150383 0.5494,0.145851 M 0.567627,0.174942 V 0.16494 L 0.565514,0.160408 m 0,0 L 0.5634,0.155876 V 0.150875 M 0.567627,0.16494 V 0.159939 m 0,0 V 0.154938 L 0.56974,0.150406 M 0.567627,0.16494 V 0.154938 l 0.00634,-0.013596 m 0,0 L 0.57608,0.13681 0.57991,0.133595 M 0.567627,0.154938 0.565514,0.150406 m 0,0 L 0.5634,0.145874 V 0.140873 M 0.567627,0.174942 V 0.154938 L 0.580307,0.127747 V 0.122746 m 0,0 V 0.117744 L 0.58242,0.113213 M 0.580307,0.127747 0.58242,0.123215 m 0,0 0.002114,-0.004532 0.00383,-0.003216 M 0.580307,0.127747 0.584534,0.118683 0.596024,0.109035 m 0,0 L 0.599854,0.10582 0.604683,0.104527 M 0.584534,0.118683 V 0.113682 m 0,0 V 0.108681 L 0.586647,0.104149 M 0.567627,0.154938 0.5634,0.145874 0.55957,0.142658 m 0,0 L 0.55574,0.139442 0.553627,0.134911 M 0.5634,0.145874 0.561287,0.141342 m 0,0 L 0.559174,0.13681 V 0.131809 M 0.5634,0.145874 0.559174,0.13681 V 0.121807 m 0,0 V 0.116806 L 0.561287,0.112274 M 0.559174,0.13681 0.555344,0.133595 m 0,0 L 0.551514,0.130379 0.5494,0.125847 M 0.5,0.339966 0.483093,0.303711 0.467773,0.290848 0.458115,0.288261 0.45319,0.289131 m 0,0 -0.004925,8.7e-4 L 0.443436,0.288708 M 0.458115,0.288261 0.453285,0.286968 m 0,0 L 0.448456,0.285675 0.444626,0.282459 M 0.458115,0.288261 0.448456,0.285675 0.436966,0.276028 m 0,0 L 0.433136,0.272812 0.431023,0.26828 m 0.017433,0.017395 -0.004925,8.7e-4 m 0,0 -0.004925,8.7e-4 L 0.433777,0.286121 M 0.467773,0.290848 0.460114,0.284416 0.455284,0.283123 m 0,0 L 0.450455,0.28183 0.446625,0.278614 M 0.460114,0.284416 0.456284,0.2812 m 0,0 L 0.452454,0.277985 0.45034,0.273453 M 0.460114,0.284416 0.452454,0.277985 0.446114,0.264389 m 0,0 L 0.444,0.259857 V 0.254856 M 0.452454,0.277985 0.447624,0.276691 m 0,0 L 0.442795,0.275398 0.438965,0.272182 M 0.467773,0.290848 0.452454,0.277985 0.439774,0.250793 0.435944,0.247578 m 0,0 L 0.432114,0.244362 0.43,0.23983 M 0.439774,0.250793 0.43766,0.246262 m 0,0 L 0.435547,0.24173 V 0.236729 M 0.439774,0.250793 0.435547,0.24173 V 0.226727 m 0,0 V 0.221725 L 0.43766,0.217194 M 0.435547,0.24173 0.431717,0.238514 m 0,0 L 0.427887,0.235298 0.425774,0.230766 M 0.452454,0.277985 0.442795,0.275398 0.43787,0.276268 m 0,0 -0.004925,8.7e-4 L 0.428116,0.275845 M 0.442795,0.275398 0.437965,0.274105 m 0,0 L 0.433136,0.272812 0.429306,0.269596 M 0.442795,0.275398 0.433136,0.272812 0.421646,0.263165 m 0,0 L 0.417816,0.259949 0.415703,0.255417 m 0.017433,0.017395 -0.004925,8.7e-4 m 0,0 L 0.423286,0.274551 0.418457,0.273258 M 0.483093,0.303711 0.47464,0.285583 0.46698,0.279152 0.462151,0.277859 m 0,0 L 0.457321,0.276566 0.453491,0.27335 M 0.46698,0.279152 0.46315,0.275936 m 0,0 L 0.45932,0.27272 0.457207,0.268188 M 0.46698,0.279152 0.45932,0.27272 0.45298,0.259125 m 0,0 L 0.450867,0.254593 V 0.249592 M 0.45932,0.27272 0.454491,0.271427 m 0,0 L 0.449661,0.270134 0.445831,0.266918 M 0.47464,0.285583 0.470413,0.27652 0.466583,0.273304 m 0,0 L 0.462753,0.270088 0.46064,0.265556 M 0.470413,0.27652 0.4683,0.271988 m 0,0 L 0.466187,0.267456 V 0.262455 M 0.470413,0.27652 0.466187,0.267456 V 0.252453 m 0,0 V 0.247452 L 0.4683,0.24292 M 0.466187,0.267456 0.462357,0.26424 m 0,0 L 0.458527,0.261024 0.456413,0.256493 M 0.47464,0.285583 0.466187,0.267456 V 0.23745 L 0.464073,0.232918 m 0,0 L 0.46196,0.228386 V 0.223385 M 0.466187,0.23745 V 0.232449 m 0,0 V 0.227448 L 0.4683,0.222916 M 0.466187,0.23745 V 0.227448 l 0.00634,-0.013596 m 0,0 L 0.47464,0.20932 0.47847,0.206104 M 0.466187,0.227448 0.464073,0.222916 m 0,0 L 0.46196,0.218384 V 0.213383 M 0.466187,0.267456 0.458527,0.261024 0.453697,0.259731 m 0,0 L 0.448868,0.258438 0.445038,0.255222 M 0.458527,0.261024 0.454697,0.257809 m 0,0 L 0.450867,0.254593 0.448753,0.250061 M 0.458527,0.261024 0.450867,0.254593 0.444527,0.240997 m 0,0 L 0.442413,0.236465 V 0.231464 M 0.450867,0.254593 0.446037,0.2533 m 0,0 L 0.441208,0.252007 0.437378,0.248791 M 0.483093,0.303711 0.466187,0.267456 V 0.207443 L 0.46196,0.19838 0.45813,0.195164 m 0,0 L 0.4543,0.191948 0.452187,0.187416 M 0.46196,0.19838 0.459846,0.193848 m 0,0 L 0.457733,0.189316 V 0.184315 M 0.46196,0.19838 0.457733,0.189316 V 0.174313 m 0,0 V 0.169312 L 0.459846,0.16478 M 0.457733,0.189316 0.453903,0.1861 m 0,0 L 0.450073,0.182884 0.44796,0.178352 M 0.466187,0.207443 V 0.197441 L 0.464073,0.192909 m 0,0 L 0.46196,0.188377 V 0.183376 M 0.466187,0.197441 V 0.19244 m 0,0 V 0.187439 L 0.4683,0.182907 M 0.466187,0.197441 V 0.187439 l 0.00634,-0.013596 m 0,0 L 0.47464,0.169312 0.47847,0.166096 M 0.466187,0.187439 0.464073,0.182907 m 0,0 L 0.46196,0.178375 V 0.173374 M 0.466187,0.207443 V 0.187439 L 0.478867,0.160248 V 0.155247 m 0,0 V 0.150246 L 0.48098,0.145714 M 0.478867,0.160248 0.48098,0.155716 m 0,0 0.002113,-0.004532 0.00383,-0.003216 M 0.478867,0.160248 0.483093,0.151184 0.494583,0.141537 m 0,0 0.00383,-0.003216 0.004829,-0.001293 M 0.483093,0.151184 V 0.146183 m 0,0 V 0.141182 L 0.485207,0.13665 M 0.466187,0.187439 0.46196,0.178375 0.45813,0.175159 m 0,0 L 0.4543,0.171944 0.452187,0.167412 M 0.46196,0.178375 0.459846,0.173843 m 0,0 L 0.457733,0.169312 V 0.16431 M 0.46196,0.178375 0.457733,0.169312 V 0.154308 m 0,0 V 0.149307 L 0.459846,0.144775 M 0.457733,0.169312 0.453903,0.166096 m 0,0 L 0.450073,0.16288 0.44796,0.158348 M 0.466187,0.267456 0.450867,0.254593 0.441208,0.252007 0.436283,0.252876 m 0,0 -0.004925,8.7e-4 L 0.426529,0.252453 M 0.441208,0.252007 0.436378,0.250713 m 0,0 L 0.431549,0.24942 0.427719,0.246204 M 0.441208,0.252007 0.431549,0.24942 0.420059,0.239773 m 0,0 L 0.416229,0.236557 0.414116,0.232025 M 0.431549,0.24942 0.426624,0.25029 m 0,0 L 0.4217,0.25116 0.41687,0.249866 M 0.450867,0.254593 0.443207,0.248161 0.438377,0.246868 m 0,0 L 0.433548,0.245575 0.429718,0.242359 M 0.443207,0.248161 0.439377,0.244946 m 0,0 L 0.435547,0.24173 0.433434,0.237198 M 0.443207,0.248161 0.435547,0.24173 0.429207,0.228134 m 0,0 L 0.427094,0.223602 V 0.218601 M 0.435547,0.24173 0.430717,0.240437 m 0,0 L 0.425888,0.239143 0.422058,0.235928 M 0.450867,0.254593 0.435547,0.24173 0.422867,0.214539 0.419037,0.211323 m 0,0 L 0.415207,0.208107 0.413094,0.203575 M 0.422867,0.214539 0.420753,0.210007 m 0,0 L 0.41864,0.205475 V 0.200474 M 0.422867,0.214539 0.41864,0.205475 V 0.190472 m 0,0 V 0.185471 L 0.420753,0.180939 M 0.41864,0.205475 0.41481,0.202259 m 0,0 L 0.41098,0.199043 0.408867,0.194511 M 0.435547,0.24173 0.425888,0.239143 0.420963,0.240013 m 0,0 -0.004924,8.7e-4 L 0.411209,0.23959 M 0.425888,0.239143 0.421059,0.23785 m 0,0 L 0.416229,0.236557 0.412399,0.233341 M 0.425888,0.239143 0.416229,0.236557 0.404739,0.22691 m 0,0 L 0.400909,0.223694 0.398796,0.219162 m 0.017433,0.017395 -0.004925,8.7e-4 m 0,0 -0.004924,8.7e-4 -0.00483,-0.001294 m 0.00483,0.001294"
       transform="scale(1024)"
       id="path2"
       inkscape:connector-curvature="0" />
  </g>
</svg>
