<?xml version="1.0" encoding="UTF-8" standalone="no"?>
<svg
   xmlns:dc="http://purl.org/dc/elements/1.1/"
   xmlns:cc="http://creativecommons.org/ns#"
   xmlns:rdf="http://www.w3.org/1999/02/22-rdf-syntax-ns#"
   xmlns:svg="http://www.w3.org/2000/svg"
   xmlns="http://www.w3.org/2000/svg"
   xmlns:sodipodi="http://sodipodi.sourceforge.net/DTD/sodipodi-0.dtd"
   xmlns:inkscape="http://www.inkscape.org/namespaces/inkscape"
   width="285.28674pt"
   height="331.23413pt"
   viewBox="0 0 285.28674 331.23413"
   version="1.1"
   id="svg5"
   sodipodi:docname="sierpinski.svg"
   inkscape:version="0.92.4 5da689c313, 2019-01-14">
  <metadata
     id="metadata11">
    <rdf:RDF>
      <cc:Work
         rdf:about="">
        <dc:format>image/svg+xml</dc:format>
        <dc:type
           rdf:resource="http://purl.org/dc/dcmitype/StillImage" />
        <dc:title></dc:title>
      </cc:Work>
    </rdf:RDF>
  </metadata>
  <defs
     id="defs9" />
  <sodipodi:namedview
     pagecolor="#ffffff"
     bordercolor="#666666"
     borderopacity="1"
     objecttolerance="10"
     gridtolerance="10"
     guidetolerance="10"
     inkscape:pageopacity="0"
     inkscape:pageshadow="2"
     inkscape:window-width="1279"
     inkscape:window-height="684"
     id="namedview7"
     showgrid="false"
     fit-margin-top="0"
     fit-margin-left="0"
     fit-margin-right="0"
     fit-margin-bottom="0"
     inkscape:zoom="0.17285156"
     inkscape:cx="-705.04611"
     inkscape:cy="2.0345052e-05"
     inkscape:window-x="1279"
     inkscape:window-y="754"
     inkscape:window-maximized="1"
     inkscape:current-layer="svg5" />
  <g
     id="surface6"
     transform="translate(-227.22526,-180.76587)">
    <path
       style="fill:none;stroke:#000000;stroke-width:0.001;stroke-linecap:butt;stroke-linejoin:miter;stroke-miterlimit:10;stroke-opacity:1"
       d="M 0.5,0.5 V 0.494999 L 0.49567,0.497498 V 0.492496 L 0.5,0.494995 V 0.489994 L 0.491341,0.494991 V 0.48999 L 0.487011,0.492489 V 0.487488 l 0.00433,0.002498 V 0.484985 L 0.5,0.489983 V 0.484982 L 0.49567,0.48748 V 0.482479 L 0.5,0.484978 V 0.479977 L 0.482681,0.489971 V 0.48497 L 0.478352,0.487469 V 0.482468 L 0.482681,0.484966 V 0.479965 L 0.474022,0.484962 V 0.479961 L 0.469692,0.48246 V 0.477459 l 0.00433,0.002499 V 0.474957 L 0.482681,0.479954 V 0.474953 L 0.478352,0.477451 V 0.47245 L 0.482681,0.474949 V 0.469948 L 0.5,0.479942 V 0.474941 L 0.49567,0.47744 V 0.472439 L 0.5,0.474937 V 0.469936 L 0.491341,0.474934 V 0.469933 L 0.487011,0.472431 V 0.46743 l 0.00433,0.002499 V 0.464928 L 0.5,0.469925 V 0.464924 L 0.49567,0.467422 V 0.462421 L 0.5,0.46492 V 0.459919 L 0.465363,0.479908 V 0.474907 L 0.461033,0.477406 V 0.472404 l 0.00433,0.002499 V 0.469902 L 0.456703,0.474899 V 0.469898 L 0.452374,0.472397 V 0.467396 L 0.456703,0.469894 V 0.464893 l 0.00866,0.004998 V 0.46489 L 0.461033,0.467388 V 0.462387 l 0.00433,0.002499 V 0.459885 L 0.448044,0.469879 V 0.464878 L 0.443714,0.467377 V 0.462376 l 0.00433,0.002498 V 0.459873 L 0.439384,0.46487 V 0.459869 L 0.435055,0.462368 V 0.457367 L 0.439384,0.459866 V 0.454865 l 0.00866,0.004997 V 0.454861 L 0.443714,0.457359 V 0.452358 l 0.00433,0.002499 V 0.449856 L 0.465363,0.45985 V 0.454849 L 0.461033,0.457348 V 0.452347 l 0.00433,0.002498 V 0.449844 L 0.456703,0.454842 V 0.449841 L 0.452374,0.452339 V 0.447338 L 0.456703,0.449837 V 0.444836 l 0.00866,0.004997 V 0.444832 L 0.461033,0.44733 V 0.442329 l 0.00433,0.002499 V 0.439827 L 0.5,0.459816 V 0.454815 L 0.49567,0.457314 V 0.452312 L 0.5,0.454811 V 0.44981 L 0.491341,0.454807 V 0.449806 L 0.487011,0.452305 V 0.447304 l 0.00433,0.002498 V 0.444801 L 0.5,0.449799 V 0.444798 L 0.49567,0.447296 V 0.442295 L 0.5,0.444794 V 0.439793 L 0.482681,0.449787 V 0.444786 L 0.478352,0.447285 V 0.442284 L 0.482681,0.444782 V 0.439781 L 0.474022,0.444778 V 0.439777 L 0.469692,0.442276 V 0.437275 l 0.00433,0.002499 V 0.434772 L 0.482681,0.43977 V 0.434769 L 0.478352,0.437267 V 0.432266 L 0.482681,0.434765 V 0.429764 L 0.5,0.439758 V 0.434757 L 0.49567,0.437256 V 0.432255 L 0.5,0.434753 V 0.429752 L 0.491341,0.43475 V 0.429749 L 0.487011,0.432247 V 0.427246 l 0.00433,0.002499 V 0.424744 L 0.5,0.429741 V 0.42474 L 0.49567,0.427238 V 0.422237 L 0.5,0.424736 V 0.419735 L 0.430725,0.459713 V 0.454712 L 0.426395,0.457211 V 0.452209 l 0.00433,0.002499 V 0.449707 L 0.422066,0.454704 V 0.449703 L 0.417736,0.452202 V 0.447201 l 0.00433,0.002498 V 0.444698 L 0.430725,0.449696 V 0.444695 L 0.426395,0.447193 V 0.442192 l 0.00433,0.002499 V 0.43969 L 0.413406,0.449684 V 0.444683 L 0.409077,0.447182 V 0.442181 L 0.413406,0.444679 V 0.439678 L 0.404747,0.444675 V 0.439674 L 0.400417,0.442173 V 0.437172 l 0.00433,0.002499 V 0.434669 L 0.413406,0.439667 V 0.434666 L 0.409077,0.437164 V 0.432163 L 0.413406,0.434662 V 0.429661 L 0.430725,0.439655 V 0.434654 L 0.426395,0.437153 V 0.432152 L 0.430725,0.43465 V 0.429649 L 0.422066,0.434647 V 0.429646 L 0.417736,0.432144 V 0.427143 l 0.00433,0.002499 V 0.424641 L 0.430725,0.429638 V 0.424637 L 0.426395,0.427135 V 0.422134 l 0.00433,0.002499 V 0.419632 L 0.396088,0.439621 V 0.43462 L 0.391758,0.437119 V 0.432117 l 0.00433,0.002499 V 0.429615 L 0.387428,0.434612 V 0.429611 L 0.383099,0.43211 V 0.427109 L 0.387428,0.429607 V 0.424606 l 0.00866,0.004998 V 0.424603 L 0.391758,0.427101 V 0.4221 l 0.00433,0.002499 V 0.419598 L 0.378769,0.429592 V 0.424591 L 0.374439,0.42709 V 0.422089 l 0.00433,0.002498 V 0.419586 L 0.37011,0.424583 V 0.419582 L 0.36578,0.422081 V 0.41708 L 0.37011,0.419579 V 0.414577 L 0.378769,0.419575 V 0.414574 L 0.374439,0.417072 V 0.412071 L 0.378769,0.41457 V 0.409569 L 0.396088,0.419563 V 0.414562 L 0.391758,0.417061 V 0.41206 l 0.00433,0.002498 V 0.409557 L 0.387428,0.414555 V 0.409554 L 0.383099,0.412052 V 0.407051 L 0.387428,0.40955 V 0.404549 l 0.00866,0.004997 V 0.404545 L 0.391758,0.407043 V 0.402042 l 0.00433,0.002499 V 0.39954 L 0.430725,0.419529 V 0.414528 L 0.426395,0.417027 V 0.412025 l 0.00433,0.002499 V 0.409523 L 0.422066,0.41452 V 0.409519 L 0.417736,0.412018 V 0.407017 l 0.00433,0.002498 V 0.404514 L 0.430725,0.409512 V 0.40451 L 0.426395,0.407009 V 0.402008 l 0.00433,0.002499 V 0.399506 L 0.413406,0.4095 V 0.404499 L 0.409077,0.406998 V 0.401997 L 0.413406,0.404495 V 0.399494 L 0.404747,0.404491 V 0.39949 L 0.400417,0.401989 V 0.396988 l 0.00433,0.002499 V 0.394485 L 0.413406,0.399483 V 0.394482 L 0.409077,0.39698 V 0.391979 L 0.413406,0.394478 V 0.389477 L 0.430725,0.399471 V 0.39447 L 0.426395,0.396969 V 0.391968 l 0.00433,0.002498 V 0.389465 L 0.422066,0.394463 V 0.389462 L 0.417736,0.39196 V 0.386959 l 0.00433,0.002499 V 0.384457 L 0.430725,0.389454 V 0.384453 L 0.426395,0.386951 V 0.38195 l 0.00433,0.002499 V 0.379448 L 0.5,0.419426 V 0.414425 L 0.49567,0.416924 V 0.411922 L 0.5,0.414421 V 0.40942 L 0.491341,0.414417 V 0.409416 L 0.487011,0.411915 V 0.406914 l 0.00433,0.002498 V 0.404411 L 0.5,0.409409 V 0.404408 L 0.49567,0.406906 V 0.401905 L 0.5,0.404404 V 0.399403 L 0.482681,0.409397 V 0.404396 L 0.478352,0.406895 V 0.401894 L 0.482681,0.404392 V 0.399391 L 0.474022,0.404388 V 0.399387 L 0.469692,0.401886 V 0.396885 l 0.00433,0.002499 V 0.394382 L 0.482681,0.39938 V 0.394379 L 0.478352,0.396877 V 0.391876 L 0.482681,0.394375 V 0.389374 L 0.5,0.399368 V 0.394367 L 0.49567,0.396866 V 0.391865 L 0.5,0.394363 V 0.389362 L 0.491341,0.39436 V 0.389359 L 0.487011,0.391857 V 0.386856 l 0.00433,0.002499 V 0.384354 L 0.5,0.389351 V 0.38435 L 0.49567,0.386848 V 0.381847 L 0.5,0.384346 V 0.379345 L 0.465363,0.399334 V 0.394333 L 0.461033,0.396832 V 0.39183 l 0.00433,0.002499 V 0.389328 L 0.456703,0.394325 V 0.389324 L 0.452374,0.391823 V 0.386822 L 0.456703,0.38932 V 0.384319 l 0.00866,0.004998 V 0.384315 L 0.461033,0.386814 V 0.381813 l 0.00433,0.002499 V 0.379311 L 0.448044,0.389305 V 0.384304 L 0.443714,0.386803 V 0.381802 L 0.448044,0.3843 V 0.379299 L 0.439384,0.384296 V 0.379295 L 0.435055,0.381794 V 0.376793 L 0.439384,0.379292 V 0.37429 l 0.00866,0.004998 V 0.374287 L 0.443714,0.376785 V 0.371784 l 0.00433,0.002499 V 0.369282 L 0.465363,0.379276 V 0.374275 L 0.461033,0.376774 V 0.371773 l 0.00433,0.002498 V 0.36927 L 0.456703,0.374268 V 0.369267 L 0.452374,0.371765 V 0.366764 L 0.456703,0.369263 V 0.364262 l 0.00866,0.004997 V 0.364258 L 0.461033,0.366756 V 0.361755 l 0.00433,0.002499 V 0.359253 L 0.5,0.379242 V 0.374241 L 0.49567,0.37674 V 0.371738 L 0.5,0.374237 V 0.369236 L 0.491341,0.374233 V 0.369232 L 0.487011,0.371731 V 0.36673 l 0.00433,0.002498 V 0.364227 L 0.5,0.369225 V 0.364223 L 0.49567,0.366722 V 0.361721 L 0.5,0.36422 V 0.359219 L 0.482681,0.369213 V 0.364212 L 0.478352,0.366711 V 0.36171 L 0.482681,0.364208 V 0.359207 L 0.474022,0.364204 V 0.359203 L 0.469692,0.361702 V 0.356701 L 0.474022,0.3592 V 0.354198 L 0.482681,0.359196 V 0.354195 L 0.478352,0.356693 V 0.351692 L 0.482681,0.354191 V 0.34919 L 0.5,0.359184 V 0.354183 L 0.49567,0.356682 V 0.351681 L 0.5,0.354179 V 0.349178 L 0.491341,0.354176 V 0.349174 L 0.487011,0.351673 V 0.346672 l 0.00433,0.002499 V 0.34417 L 0.5,0.349167 V 0.344166 L 0.49567,0.346664 V 0.341663 L 0.5,0.344162 V 0.339161 L 0.36145,0.419117 V 0.414116 L 0.357121,0.416615 V 0.411613 L 0.36145,0.414112 V 0.409111 L 0.352791,0.414108 V 0.409107 L 0.348461,0.411606 V 0.406605 l 0.00433,0.002498 V 0.404102 L 0.36145,0.4091 V 0.404099 L 0.357121,0.406597 V 0.401596 L 0.36145,0.404095 V 0.399094 L 0.344131,0.409088 V 0.404087 L 0.339802,0.406586 V 0.401585 L 0.344131,0.404083 V 0.399082 L 0.335472,0.404079 V 0.399078 L 0.331142,0.401577 V 0.396576 l 0.00433,0.002499 V 0.394073 L 0.344131,0.399071 V 0.39407 L 0.339802,0.396568 V 0.391567 L 0.344131,0.394066 V 0.389065 L 0.36145,0.399059 V 0.394058 L 0.357121,0.396557 V 0.391556 L 0.36145,0.394054 V 0.389053 L 0.352791,0.394051 V 0.38905 L 0.348461,0.391548 V 0.386547 l 0.00433,0.002499 V 0.384045 L 0.36145,0.389042 V 0.384041 L 0.357121,0.386539 V 0.381538 L 0.36145,0.384037 V 0.379036 L 0.326813,0.399025 V 0.394024 L 0.322483,0.396523 V 0.391521 L 0.326813,0.39402 V 0.389019 L 0.318153,0.394016 V 0.389015 L 0.313824,0.391514 V 0.386513 L 0.318153,0.389011 V 0.38401 l 0.00866,0.004998 V 0.384007 L 0.322483,0.386505 V 0.381504 l 0.00433,0.002499 V 0.379002 L 0.309494,0.388996 V 0.383995 L 0.305164,0.386494 V 0.381493 l 0.00433,0.002498 V 0.37899 L 0.300835,0.383987 V 0.378986 L 0.296505,0.381485 V 0.376484 l 0.00433,0.002499 V 0.373981 L 0.309494,0.378979 V 0.373978 L 0.305164,0.376476 V 0.371475 l 0.00433,0.002499 V 0.368973 L 0.326813,0.378967 V 0.373966 L 0.322483,0.376465 V 0.371464 l 0.00433,0.002498 V 0.368961 L 0.318153,0.373959 V 0.368958 L 0.313824,0.371456 V 0.366455 L 0.318153,0.368954 V 0.363953 L 0.326813,0.36895 V 0.363949 L 0.322483,0.366447 V 0.361446 l 0.00433,0.002499 V 0.358944 L 0.36145,0.378933 V 0.373932 L 0.357121,0.376431 V 0.371429 L 0.36145,0.373928 V 0.368927 L 0.352791,0.373924 V 0.368923 L 0.348461,0.371422 V 0.366421 l 0.00433,0.002498 V 0.363918 L 0.36145,0.368916 V 0.363914 L 0.357121,0.366413 V 0.361412 L 0.36145,0.363911 V 0.35891 L 0.344131,0.368904 V 0.363903 L 0.339802,0.366402 V 0.361401 L 0.344131,0.363899 V 0.358898 L 0.335472,0.363895 V 0.358894 L 0.331142,0.361393 V 0.356392 l 0.00433,0.002499 V 0.353889 L 0.344131,0.358887 V 0.353886 L 0.339802,0.356384 V 0.351383 L 0.344131,0.353882 V 0.348881 L 0.36145,0.358875 V 0.353874 L 0.357121,0.356373 V 0.351372 L 0.36145,0.35387 V 0.348869 L 0.352791,0.353867 V 0.348866 L 0.348461,0.351364 V 0.346363 l 0.00433,0.002499 V 0.343861 L 0.36145,0.348858 V 0.343857 L 0.357121,0.346355 V 0.341354 L 0.36145,0.343853 V 0.338852 L 0.292175,0.37883 V 0.373829 L 0.287846,0.376328 V 0.371326 L 0.292175,0.373825 V 0.368824 L 0.283516,0.373821 V 0.36882 L 0.279186,0.371319 V 0.366318 l 0.00433,0.002498 V 0.363815 L 0.292175,0.368813 V 0.363811 L 0.287846,0.36631 V 0.361309 L 0.292175,0.363808 V 0.358807 L 0.274857,0.368801 V 0.3638 L 0.270527,0.366299 V 0.361298 l 0.00433,0.002498 V 0.358795 L 0.266197,0.363792 V 0.358791 L 0.261868,0.36129 V 0.356289 L 0.266197,0.358788 V 0.353786 l 0.00866,0.004998 V 0.353783 L 0.270527,0.356281 V 0.35128 l 0.00433,0.002499 V 0.348778 L 0.292175,0.358772 V 0.353771 L 0.287846,0.35627 V 0.351269 L 0.292175,0.353767 V 0.348766 L 0.283516,0.353764 V 0.348763 L 0.279186,0.351261 V 0.34626 l 0.00433,0.002499 V 0.343758 L 0.292175,0.348755 V 0.343754 L 0.287846,0.346252 V 0.341251 L 0.292175,0.34375 V 0.338749 L 0.257538,0.358738 V 0.353737 L 0.253208,0.356236 V 0.351234 l 0.00433,0.002499 V 0.348732 L 0.248878,0.353729 V 0.348728 L 0.244549,0.351227 V 0.346226 L 0.248878,0.348724 V 0.343723 l 0.00866,0.004998 V 0.343719 L 0.253208,0.346218 V 0.341217 l 0.00433,0.002499 V 0.338715 L 0.240219,0.348709 V 0.343708 L 0.235889,0.346207 V 0.341206 l 0.00433,0.002498 V 0.338703 L 0.23156,0.3437 V 0.338699 L 0.22723,0.341198 V 0.336197 L 0.23156,0.338696 V 0.333694 L 0.240219,0.338692 V 0.333691 L 0.235889,0.336189 V 0.331188 l 0.00433,0.002499 V 0.328686 L 0.257538,0.33868 V 0.333679 L 0.253208,0.336178 V 0.331177 l 0.00433,0.002498 V 0.328674 L 0.248878,0.333672 V 0.328671 L 0.244549,0.331169 V 0.326168 L 0.248878,0.328667 V 0.323666 l 0.00866,0.004997 V 0.323662 L 0.253208,0.32616 V 0.321159 l 0.00433,0.002499 V 0.318657 L 0.292175,0.338646 V 0.333645 L 0.287846,0.336143 V 0.331142 L 0.292175,0.333641 V 0.32864 L 0.283516,0.333637 V 0.328636 L 0.279186,0.331135 V 0.326134 l 0.00433,0.002498 V 0.323631 L 0.292175,0.328629 V 0.323627 L 0.287846,0.326126 V 0.321125 L 0.292175,0.323624 V 0.318623 L 0.274857,0.328617 V 0.323616 L 0.270527,0.326115 V 0.321114 l 0.00433,0.002498 V 0.318611 L 0.266197,0.323608 V 0.318607 L 0.261868,0.321106 V 0.316105 L 0.266197,0.318604 V 0.313602 L 0.274857,0.3186 V 0.313599 L 0.270527,0.316097 V 0.311096 l 0.00433,0.002499 V 0.308594 L 0.292175,0.318588 V 0.313587 L 0.287846,0.316086 V 0.311085 L 0.292175,0.313583 V 0.308582 L 0.283516,0.31358 V 0.308578 L 0.279186,0.311077 V 0.306076 l 0.00433,0.002499 V 0.303574 L 0.292175,0.308571 V 0.30357 L 0.287846,0.306068 V 0.301067 L 0.292175,0.303566 V 0.298565 L 0.36145,0.338543 V 0.333542 L 0.357121,0.33604 V 0.331039 L 0.36145,0.333538 V 0.328537 L 0.352791,0.333534 V 0.328533 L 0.348461,0.331032 V 0.326031 l 0.00433,0.002498 V 0.323528 L 0.36145,0.328526 V 0.323524 L 0.357121,0.326023 V 0.321022 L 0.36145,0.323521 V 0.31852 L 0.344131,0.328514 V 0.323513 L 0.339802,0.326012 V 0.321011 L 0.344131,0.323509 V 0.318508 L 0.335472,0.323505 V 0.318504 L 0.331142,0.321003 V 0.316002 l 0.00433,0.002499 V 0.313499 L 0.344131,0.318497 V 0.313496 L 0.339802,0.315994 V 0.310993 L 0.344131,0.313492 V 0.308491 L 0.36145,0.318485 V 0.313484 L 0.357121,0.315983 V 0.310982 L 0.36145,0.31348 V 0.308479 L 0.352791,0.313477 V 0.308475 L 0.348461,0.310974 V 0.305973 l 0.00433,0.002499 V 0.303471 L 0.36145,0.308468 V 0.303467 L 0.357121,0.305965 V 0.300964 L 0.36145,0.303463 V 0.298462 L 0.326813,0.318451 V 0.31345 L 0.322483,0.315948 V 0.310947 l 0.00433,0.002499 V 0.308445 L 0.318153,0.313442 V 0.308441 L 0.313824,0.31094 V 0.305939 L 0.318153,0.308437 V 0.303436 l 0.00866,0.004998 V 0.303432 L 0.322483,0.305931 V 0.30093 l 0.00433,0.002499 V 0.298428 L 0.309494,0.308422 V 0.303421 L 0.305164,0.30592 V 0.300919 l 0.00433,0.002498 V 0.298416 L 0.300835,0.303413 V 0.298412 L 0.296505,0.300911 V 0.29591 l 0.00433,0.002499 V 0.293407 L 0.309494,0.298405 V 0.293404 L 0.305164,0.295902 V 0.290901 L 0.309494,0.2934 V 0.288399 L 0.326813,0.298393 V 0.293392 L 0.322483,0.295891 V 0.29089 l 0.00433,0.002498 V 0.288387 L 0.318153,0.293385 V 0.288383 L 0.313824,0.290882 V 0.285881 L 0.318153,0.28838 V 0.283379 l 0.00866,0.004997 V 0.283375 L 0.322483,0.285873 V 0.280872 l 0.00433,0.002499 V 0.27837 L 0.36145,0.298359 V 0.293358 L 0.357121,0.295856 V 0.290855 L 0.36145,0.293354 V 0.288353 L 0.352791,0.29335 V 0.288349 L 0.348461,0.290848 V 0.285847 l 0.00433,0.002498 V 0.283344 L 0.36145,0.288342 V 0.28334 L 0.357121,0.285839 V 0.280838 L 0.36145,0.283337 V 0.278336 L 0.344131,0.28833 V 0.283329 L 0.339802,0.285828 V 0.280827 L 0.344131,0.283325 V 0.278324 L 0.335472,0.283321 V 0.27832 L 0.331142,0.280819 V 0.275818 l 0.00433,0.002498 V 0.273315 L 0.344131,0.278313 V 0.273312 L 0.339802,0.27581 V 0.270809 L 0.344131,0.273308 V 0.268307 L 0.36145,0.278301 V 0.2733 L 0.357121,0.275799 V 0.270798 L 0.36145,0.273296 V 0.268295 L 0.352791,0.273293 V 0.268291 L 0.348461,0.27079 V 0.265789 l 0.00433,0.002499 V 0.263287 L 0.36145,0.268284 V 0.263283 L 0.357121,0.265781 V 0.26078 L 0.36145,0.263279 V 0.258278 L 0.5,0.338234 V 0.333233 L 0.49567,0.335732 V 0.33073 L 0.5,0.333229 V 0.328228 L 0.491341,0.333225 V 0.328224 L 0.487011,0.330723 V 0.325722 L 0.491341,0.32822 V 0.323219 L 0.5,0.328217 V 0.323215 L 0.49567,0.325714 V 0.320713 L 0.5,0.323212 V 0.318211 L 0.482681,0.328205 V 0.323204 L 0.478352,0.325703 V 0.320702 L 0.482681,0.3232 V 0.318199 L 0.474022,0.323196 V 0.318195 L 0.469692,0.320694 V 0.315693 l 0.00433,0.002499 V 0.31319 L 0.482681,0.318188 V 0.313187 L 0.478352,0.315685 V 0.310684 L 0.482681,0.313183 V 0.308182 L 0.5,0.318176 V 0.313175 L 0.49567,0.315674 V 0.310673 L 0.5,0.313171 V 0.30817 L 0.491341,0.313168 V 0.308167 L 0.487011,0.310665 V 0.305664 l 0.00433,0.002499 V 0.303162 L 0.5,0.308159 V 0.303158 L 0.49567,0.305656 V 0.300655 L 0.5,0.303154 V 0.298153 L 0.465363,0.318142 V 0.313141 L 0.461033,0.315639 V 0.310638 l 0.00433,0.002499 V 0.308136 L 0.456703,0.313133 V 0.308132 L 0.452374,0.310631 V 0.30563 L 0.456703,0.308128 V 0.303127 l 0.00866,0.004998 V 0.303123 L 0.461033,0.305622 V 0.300621 L 0.465363,0.30312 V 0.298119 L 0.448044,0.308113 V 0.303112 L 0.443714,0.305611 V 0.30061 l 0.00433,0.002498 V 0.298107 L 0.439384,0.303104 V 0.298103 L 0.435055,0.300602 V 0.295601 L 0.439384,0.2981 V 0.293098 l 0.00866,0.004998 V 0.293095 L 0.443714,0.295593 V 0.290592 l 0.00433,0.002499 V 0.28809 L 0.465363,0.298084 V 0.293083 L 0.461033,0.295582 V 0.290581 l 0.00433,0.002498 V 0.288078 L 0.456703,0.293076 V 0.288074 L 0.452374,0.290573 V 0.285572 L 0.456703,0.288071 V 0.28307 l 0.00866,0.004997 V 0.283066 L 0.461033,0.285564 V 0.280563 l 0.00433,0.002499 V 0.278061 L 0.5,0.29805 V 0.293049 L 0.49567,0.295547 V 0.290546 L 0.5,0.293045 V 0.288044 L 0.491341,0.293041 V 0.28804 L 0.487011,0.290539 V 0.285538 l 0.00433,0.002498 V 0.283035 L 0.5,0.288033 V 0.283031 L 0.49567,0.28553 V 0.280529 L 0.5,0.283028 V 0.278027 L 0.482681,0.288021 V 0.28302 L 0.478352,0.285519 V 0.280518 L 0.482681,0.283016 V 0.278015 L 0.474022,0.283012 V 0.278011 L 0.469692,0.28051 V 0.275509 l 0.00433,0.002499 V 0.273006 L 0.482681,0.278004 V 0.273003 L 0.478352,0.275501 V 0.2705 L 0.482681,0.272999 V 0.267998 L 0.5,0.277992 V 0.272991 L 0.49567,0.27549 V 0.270489 L 0.5,0.272987 V 0.267986 L 0.491341,0.272984 V 0.267982 L 0.487011,0.270481 V 0.26548 l 0.00433,0.002499 V 0.262978 L 0.5,0.267975 V 0.262974 L 0.49567,0.265472 V 0.260471 L 0.5,0.26297 V 0.257969 L 0.430725,0.297947 V 0.292946 L 0.426395,0.295444 V 0.290443 l 0.00433,0.002499 V 0.287941 L 0.422066,0.292938 V 0.287937 L 0.417736,0.290436 V 0.285435 l 0.00433,0.002498 V 0.282932 L 0.430725,0.28793 V 0.282928 L 0.426395,0.285427 V 0.280426 l 0.00433,0.002499 V 0.277924 L 0.413406,0.287918 V 0.282917 L 0.409077,0.285416 V 0.280415 L 0.413406,0.282913 V 0.277912 L 0.404747,0.282909 V 0.277908 L 0.400417,0.280407 V 0.275406 l 0.00433,0.002499 V 0.272903 L 0.413406,0.277901 V 0.2729 L 0.409077,0.275398 V 0.270397 L 0.413406,0.272896 V 0.267895 L 0.430725,0.277889 V 0.272888 L 0.426395,0.275387 V 0.270386 l 0.00433,0.002498 V 0.267883 L 0.422066,0.272881 V 0.267879 L 0.417736,0.270378 V 0.265377 l 0.00433,0.002499 V 0.262875 L 0.430725,0.267872 V 0.262871 L 0.426395,0.265369 V 0.260368 l 0.00433,0.002499 V 0.257866 L 0.396088,0.277855 V 0.272854 L 0.391758,0.275352 V 0.270351 L 0.396088,0.27285 V 0.267849 L 0.387428,0.272846 V 0.267845 L 0.383099,0.270344 V 0.265343 L 0.387428,0.267841 V 0.26284 l 0.00866,0.004998 V 0.262836 L 0.391758,0.265335 V 0.260334 l 0.00433,0.002499 V 0.257832 L 0.378769,0.267826 V 0.262825 L 0.374439,0.265324 V 0.260323 l 0.00433,0.002498 V 0.25782 L 0.37011,0.262817 V 0.257816 L 0.36578,0.260315 V 0.255314 L 0.37011,0.257812 V 0.252811 L 0.378769,0.257809 V 0.252808 L 0.374439,0.255306 V 0.250305 l 0.00433,0.002499 V 0.247803 L 0.396088,0.257797 V 0.252796 L 0.391758,0.255295 V 0.250294 l 0.00433,0.002498 V 0.247791 L 0.387428,0.252789 V 0.247787 L 0.383099,0.250286 V 0.245285 L 0.387428,0.247784 V 0.242783 L 0.396088,0.24778 V 0.242779 L 0.391758,0.245277 V 0.240276 l 0.00433,0.002499 V 0.237774 L 0.430725,0.257763 V 0.252762 L 0.426395,0.25526 V 0.250259 l 0.00433,0.002499 V 0.247757 L 0.422066,0.252754 V 0.247753 L 0.417736,0.250252 V 0.245251 l 0.00433,0.002498 V 0.242748 L 0.430725,0.247746 V 0.242744 L 0.426395,0.245243 V 0.240242 l 0.00433,0.002499 V 0.23774 L 0.413406,0.247734 V 0.242733 L 0.409077,0.245232 V 0.240231 L 0.413406,0.242729 V 0.237728 L 0.404747,0.242725 V 0.237724 L 0.400417,0.240223 V 0.235222 L 0.404747,0.23772 V 0.232719 L 0.413406,0.237717 V 0.232716 L 0.409077,0.235214 V 0.230213 L 0.413406,0.232712 V 0.227711 L 0.430725,0.237705 V 0.232704 L 0.426395,0.235203 V 0.230202 L 0.430725,0.2327 V 0.227699 L 0.422066,0.232697 V 0.227695 L 0.417736,0.230194 V 0.225193 l 0.00433,0.002499 V 0.222691 L 0.430725,0.227688 V 0.222687 L 0.426395,0.225185 V 0.220184 l 0.00433,0.002499 V 0.217682 L 0.5,0.25766 V 0.252659 L 0.49567,0.255157 V 0.250156 L 0.5,0.252655 V 0.247654 L 0.491341,0.252651 V 0.24765 L 0.487011,0.250149 V 0.245148 l 0.00433,0.002498 V 0.242645 L 0.5,0.247643 V 0.242641 L 0.49567,0.24514 V 0.240139 L 0.5,0.242638 V 0.237637 L 0.482681,0.247631 V 0.24263 L 0.478352,0.245129 V 0.240128 L 0.482681,0.242626 V 0.237625 L 0.474022,0.242622 V 0.237621 L 0.469692,0.24012 V 0.235119 l 0.00433,0.002498 V 0.232616 L 0.482681,0.237614 V 0.232613 L 0.478352,0.235111 V 0.23011 L 0.482681,0.232609 V 0.227608 L 0.5,0.237602 V 0.232601 L 0.49567,0.2351 V 0.230099 L 0.5,0.232597 V 0.227596 L 0.491341,0.232594 V 0.227592 L 0.487011,0.230091 V 0.22509 l 0.00433,0.002499 V 0.222588 L 0.5,0.227585 V 0.222584 L 0.49567,0.225082 V 0.220081 L 0.5,0.22258 V 0.217579 L 0.465363,0.237568 V 0.232567 L 0.461033,0.235065 V 0.230064 l 0.00433,0.002499 V 0.227562 L 0.456703,0.232559 V 0.227558 L 0.452374,0.230057 V 0.225056 L 0.456703,0.227554 V 0.222553 l 0.00866,0.004998 V 0.222549 L 0.461033,0.225048 V 0.220047 l 0.00433,0.002499 V 0.217545 L 0.448044,0.227539 V 0.222538 L 0.443714,0.225037 V 0.220036 l 0.00433,0.002498 V 0.217533 L 0.439384,0.22253 V 0.217529 L 0.435055,0.220028 V 0.215027 L 0.439384,0.217525 V 0.212524 l 0.00866,0.004998 V 0.212521 L 0.443714,0.215019 V 0.210018 l 0.00433,0.002499 V 0.207516 L 0.465363,0.21751 V 0.212509 L 0.461033,0.215008 V 0.210007 l 0.00433,0.002498 V 0.207504 L 0.456703,0.212502 V 0.2075 L 0.452374,0.209999 V 0.204998 L 0.456703,0.207497 V 0.202496 l 0.00866,0.004997 V 0.202492 L 0.461033,0.20499 V 0.199989 l 0.00433,0.002499 V 0.197487 L 0.5,0.217476 V 0.212475 L 0.49567,0.214973 V 0.209972 L 0.5,0.212471 V 0.20747 L 0.491341,0.212467 V 0.207466 L 0.487011,0.209965 V 0.204964 l 0.00433,0.002498 V 0.202461 L 0.5,0.207458 V 0.202457 L 0.49567,0.204956 V 0.199955 L 0.5,0.202454 V 0.197453 L 0.482681,0.207447 V 0.202446 L 0.478352,0.204945 V 0.199944 L 0.482681,0.202442 V 0.197441 L 0.474022,0.202438 V 0.197437 L 0.469692,0.199936 V 0.194935 l 0.00433,0.002498 V 0.192432 L 0.482681,0.19743 V 0.192429 L 0.478352,0.194927 V 0.189926 L 0.482681,0.192425 V 0.187424 L 0.5,0.197418 V 0.192417 L 0.49567,0.194916 V 0.189915 L 0.5,0.192413 V 0.187412 L 0.491341,0.19241 V 0.187408 L 0.487011,0.189907 V 0.184906 l 0.00433,0.002499 V 0.182404 L 0.5,0.187401 V 0.1824 L 0.49567,0.184898 V 0.179897 L 0.5,0.182396 V 0.177395 L 0.2229,0.337307 0.5,0.497219"
       transform="scale(1024)"
       id="path2"
       inkscape:connector-curvature="0" />
  </g>
</svg>
