<?xml version="1.0" encoding="UTF-8"?>
<svg xmlns="http://www.w3.org/2000/svg" xmlns:xlink="http://www.w3.org/1999/xlink" width="360pt" height="359pt" viewBox="0 0 360 359" version="1.1">
<g id="surface24">
<path style="fill-rule:nonzero;fill:rgb(99.998474%,0%,0%);fill-opacity:1;stroke-width:0.03;stroke-linecap:square;stroke-linejoin:miter;stroke:rgb(99.998474%,0%,0%);stroke-opacity:1;stroke-miterlimit:3.239307;" d="M 87.539062 342.171875 L 87.539062 26.253906 L 403.460938 26.253906 L 403.460938 342.171875 Z M 87.539062 342.171875 " transform="matrix(1,0,0,1,-66,-5)"/>
<path style="fill-rule:nonzero;fill:rgb(99.998474%,33.332825%,33.332825%);fill-opacity:1;stroke-width:0.03;stroke-linecap:square;stroke-linejoin:miter;stroke:rgb(99.998474%,33.332825%,33.332825%);stroke-opacity:1;stroke-miterlimit:3.239307;" d="M 101.898438 327.8125 L 101.898438 40.613281 L 389.101562 40.613281 L 389.101562 327.8125 Z M 101.898438 327.8125 " transform="matrix(1,0,0,1,-66,-5)"/>
<path style=" stroke:none;fill-rule:evenodd;fill:rgb(0%,0%,0%);fill-opacity:1;" d="M 8.5 352 C 8.5 351.601562 8.34375 351.21875 8.0625 350.9375 C 7.78125 350.65625 7.398438 350.5 7 350.5 C 6.601562 350.5 6.21875 350.65625 5.9375 350.9375 C 5.65625 351.21875 5.5 351.601562 5.5 352 C 5.5 352.398438 5.65625 352.78125 5.9375 353.0625 C 6.21875 353.34375 6.601562 353.5 7 353.5 C 7.398438 353.5 7.78125 353.34375 8.0625 353.0625 C 8.34375 352.78125 8.5 352.398438 8.5 352 Z M 8.5 352 "/>
<path style=" stroke:none;fill-rule:evenodd;fill:rgb(0%,0%,0%);fill-opacity:1;" d="M 8.5 323 C 8.5 322.601562 8.34375 322.21875 8.0625 321.9375 C 7.78125 321.65625 7.398438 321.5 7 321.5 C 6.601562 321.5 6.21875 321.65625 5.9375 321.9375 C 5.65625 322.21875 5.5 322.601562 5.5 323 C 5.5 323.398438 5.65625 323.78125 5.9375 324.0625 C 6.21875 324.34375 6.601562 324.5 7 324.5 C 7.398438 324.5 7.78125 324.34375 8.0625 324.0625 C 8.34375 323.78125 8.5 323.398438 8.5 323 Z M 8.5 323 "/>
<path style=" stroke:none;fill-rule:evenodd;fill:rgb(0%,0%,0%);fill-opacity:1;" d="M 8.5 294 C 8.5 293.601562 8.34375 293.21875 8.0625 292.9375 C 7.78125 292.65625 7.398438 292.5 7 292.5 C 6.601562 292.5 6.21875 292.65625 5.9375 292.9375 C 5.65625 293.21875 5.5 293.601562 5.5 294 C 5.5 294.398438 5.65625 294.78125 5.9375 295.0625 C 6.21875 295.34375 6.601562 295.5 7 295.5 C 7.398438 295.5 7.78125 295.34375 8.0625 295.0625 C 8.34375 294.78125 8.5 294.398438 8.5 294 Z M 8.5 294 "/>
<path style=" stroke:none;fill-rule:evenodd;fill:rgb(0%,0%,0%);fill-opacity:1;" d="M 8.5 265 C 8.5 264.601562 8.34375 264.21875 8.0625 263.9375 C 7.78125 263.65625 7.398438 263.5 7 263.5 C 6.601562 263.5 6.21875 263.65625 5.9375 263.9375 C 5.65625 264.21875 5.5 264.601562 5.5 265 C 5.5 265.398438 5.65625 265.78125 5.9375 266.0625 C 6.21875 266.34375 6.601562 266.5 7 266.5 C 7.398438 266.5 7.78125 266.34375 8.0625 266.0625 C 8.34375 265.78125 8.5 265.398438 8.5 265 Z M 8.5 265 "/>
<path style=" stroke:none;fill-rule:evenodd;fill:rgb(0%,0%,0%);fill-opacity:1;" d="M 8.5 237 C 8.5 236.601562 8.34375 236.21875 8.0625 235.9375 C 7.78125 235.65625 7.398438 235.5 7 235.5 C 6.601562 235.5 6.21875 235.65625 5.9375 235.9375 C 5.65625 236.21875 5.5 236.601562 5.5 237 C 5.5 237.398438 5.65625 237.78125 5.9375 238.0625 C 6.21875 238.34375 6.601562 238.5 7 238.5 C 7.398438 238.5 7.78125 238.34375 8.0625 238.0625 C 8.34375 237.78125 8.5 237.398438 8.5 237 Z M 8.5 237 "/>
<path style=" stroke:none;fill-rule:evenodd;fill:rgb(0%,0%,0%);fill-opacity:1;" d="M 8.5 208 C 8.5 207.601562 8.34375 207.21875 8.0625 206.9375 C 7.78125 206.65625 7.398438 206.5 7 206.5 C 6.601562 206.5 6.21875 206.65625 5.9375 206.9375 C 5.65625 207.21875 5.5 207.601562 5.5 208 C 5.5 208.398438 5.65625 208.78125 5.9375 209.0625 C 6.21875 209.34375 6.601562 209.5 7 209.5 C 7.398438 209.5 7.78125 209.34375 8.0625 209.0625 C 8.34375 208.78125 8.5 208.398438 8.5 208 Z M 8.5 208 "/>
<path style=" stroke:none;fill-rule:evenodd;fill:rgb(0%,0%,0%);fill-opacity:1;" d="M 8.5 179 C 8.5 178.601562 8.34375 178.21875 8.0625 177.9375 C 7.78125 177.65625 7.398438 177.5 7 177.5 C 6.601562 177.5 6.21875 177.65625 5.9375 177.9375 C 5.65625 178.21875 5.5 178.601562 5.5 179 C 5.5 179.398438 5.65625 179.78125 5.9375 180.0625 C 6.21875 180.34375 6.601562 180.5 7 180.5 C 7.398438 180.5 7.78125 180.34375 8.0625 180.0625 C 8.34375 179.78125 8.5 179.398438 8.5 179 Z M 8.5 179 "/>
<path style=" stroke:none;fill-rule:evenodd;fill:rgb(0%,0%,0%);fill-opacity:1;" d="M 8.5 150 C 8.5 149.601562 8.34375 149.21875 8.0625 148.9375 C 7.78125 148.65625 7.398438 148.5 7 148.5 C 6.601562 148.5 6.21875 148.65625 5.9375 148.9375 C 5.65625 149.21875 5.5 149.601562 5.5 150 C 5.5 150.398438 5.65625 150.78125 5.9375 151.0625 C 6.21875 151.34375 6.601562 151.5 7 151.5 C 7.398438 151.5 7.78125 151.34375 8.0625 151.0625 C 8.34375 150.78125 8.5 150.398438 8.5 150 Z M 8.5 150 "/>
<path style=" stroke:none;fill-rule:evenodd;fill:rgb(0%,0%,0%);fill-opacity:1;" d="M 8.5 122 C 8.5 121.601562 8.34375 121.21875 8.0625 120.9375 C 7.78125 120.65625 7.398438 120.5 7 120.5 C 6.601562 120.5 6.21875 120.65625 5.9375 120.9375 C 5.65625 121.21875 5.5 121.601562 5.5 122 C 5.5 122.398438 5.65625 122.78125 5.9375 123.0625 C 6.21875 123.34375 6.601562 123.5 7 123.5 C 7.398438 123.5 7.78125 123.34375 8.0625 123.0625 C 8.34375 122.78125 8.5 122.398438 8.5 122 Z M 8.5 122 "/>
<path style=" stroke:none;fill-rule:evenodd;fill:rgb(0%,0%,0%);fill-opacity:1;" d="M 8.5 93 C 8.5 92.601562 8.34375 92.21875 8.0625 91.9375 C 7.78125 91.65625 7.398438 91.5 7 91.5 C 6.601562 91.5 6.21875 91.65625 5.9375 91.9375 C 5.65625 92.21875 5.5 92.601562 5.5 93 C 5.5 93.398438 5.65625 93.78125 5.9375 94.0625 C 6.21875 94.34375 6.601562 94.5 7 94.5 C 7.398438 94.5 7.78125 94.34375 8.0625 94.0625 C 8.34375 93.78125 8.5 93.398438 8.5 93 Z M 8.5 93 "/>
<path style=" stroke:none;fill-rule:evenodd;fill:rgb(0%,0%,0%);fill-opacity:1;" d="M 8.5 64 C 8.5 63.601562 8.34375 63.21875 8.0625 62.9375 C 7.78125 62.65625 7.398438 62.5 7 62.5 C 6.601562 62.5 6.21875 62.65625 5.9375 62.9375 C 5.65625 63.21875 5.5 63.601562 5.5 64 C 5.5 64.398438 5.65625 64.78125 5.9375 65.0625 C 6.21875 65.34375 6.601562 65.5 7 65.5 C 7.398438 65.5 7.78125 65.34375 8.0625 65.0625 C 8.34375 64.78125 8.5 64.398438 8.5 64 Z M 8.5 64 "/>
<path style=" stroke:none;fill-rule:evenodd;fill:rgb(0%,0%,0%);fill-opacity:1;" d="M 8.5 36 C 8.5 35.601562 8.34375 35.21875 8.0625 34.9375 C 7.78125 34.65625 7.398438 34.5 7 34.5 C 6.601562 34.5 6.21875 34.65625 5.9375 34.9375 C 5.65625 35.21875 5.5 35.601562 5.5 36 C 5.5 36.398438 5.65625 36.78125 5.9375 37.0625 C 6.21875 37.34375 6.601562 37.5 7 37.5 C 7.398438 37.5 7.78125 37.34375 8.0625 37.0625 C 8.34375 36.78125 8.5 36.398438 8.5 36 Z M 8.5 36 "/>
<path style=" stroke:none;fill-rule:evenodd;fill:rgb(0%,0%,0%);fill-opacity:1;" d="M 8.5 7 C 8.5 6.601562 8.34375 6.21875 8.0625 5.9375 C 7.78125 5.65625 7.398438 5.5 7 5.5 C 6.601562 5.5 6.21875 5.65625 5.9375 5.9375 C 5.65625 6.21875 5.5 6.601562 5.5 7 C 5.5 7.398438 5.65625 7.78125 5.9375 8.0625 C 6.21875 8.34375 6.601562 8.5 7 8.5 C 7.398438 8.5 7.78125 8.34375 8.0625 8.0625 C 8.34375 7.78125 8.5 7.398438 8.5 7 Z M 8.5 7 "/>
<path style=" stroke:none;fill-rule:evenodd;fill:rgb(0%,0%,0%);fill-opacity:1;" d="M 37.5 352 C 37.5 351.601562 37.34375 351.21875 37.0625 350.9375 C 36.78125 350.65625 36.398438 350.5 36 350.5 C 35.601562 350.5 35.21875 350.65625 34.9375 350.9375 C 34.65625 351.21875 34.5 351.601562 34.5 352 C 34.5 352.398438 34.65625 352.78125 34.9375 353.0625 C 35.21875 353.34375 35.601562 353.5 36 353.5 C 36.398438 353.5 36.78125 353.34375 37.0625 353.0625 C 37.34375 352.78125 37.5 352.398438 37.5 352 Z M 37.5 352 "/>
<path style=" stroke:none;fill-rule:evenodd;fill:rgb(0%,0%,0%);fill-opacity:1;" d="M 37.5 323 C 37.5 322.601562 37.34375 322.21875 37.0625 321.9375 C 36.78125 321.65625 36.398438 321.5 36 321.5 C 35.601562 321.5 35.21875 321.65625 34.9375 321.9375 C 34.65625 322.21875 34.5 322.601562 34.5 323 C 34.5 323.398438 34.65625 323.78125 34.9375 324.0625 C 35.21875 324.34375 35.601562 324.5 36 324.5 C 36.398438 324.5 36.78125 324.34375 37.0625 324.0625 C 37.34375 323.78125 37.5 323.398438 37.5 323 Z M 37.5 323 "/>
<path style=" stroke:none;fill-rule:evenodd;fill:rgb(0%,0%,0%);fill-opacity:1;" d="M 37.5 294 C 37.5 293.601562 37.34375 293.21875 37.0625 292.9375 C 36.78125 292.65625 36.398438 292.5 36 292.5 C 35.601562 292.5 35.21875 292.65625 34.9375 292.9375 C 34.65625 293.21875 34.5 293.601562 34.5 294 C 34.5 294.398438 34.65625 294.78125 34.9375 295.0625 C 35.21875 295.34375 35.601562 295.5 36 295.5 C 36.398438 295.5 36.78125 295.34375 37.0625 295.0625 C 37.34375 294.78125 37.5 294.398438 37.5 294 Z M 37.5 294 "/>
<path style=" stroke:none;fill-rule:evenodd;fill:rgb(0%,0%,0%);fill-opacity:1;" d="M 37.5 265 C 37.5 264.601562 37.34375 264.21875 37.0625 263.9375 C 36.78125 263.65625 36.398438 263.5 36 263.5 C 35.601562 263.5 35.21875 263.65625 34.9375 263.9375 C 34.65625 264.21875 34.5 264.601562 34.5 265 C 34.5 265.398438 34.65625 265.78125 34.9375 266.0625 C 35.21875 266.34375 35.601562 266.5 36 266.5 C 36.398438 266.5 36.78125 266.34375 37.0625 266.0625 C 37.34375 265.78125 37.5 265.398438 37.5 265 Z M 37.5 265 "/>
<path style=" stroke:none;fill-rule:evenodd;fill:rgb(0%,0%,0%);fill-opacity:1;" d="M 37.5 237 C 37.5 236.601562 37.34375 236.21875 37.0625 235.9375 C 36.78125 235.65625 36.398438 235.5 36 235.5 C 35.601562 235.5 35.21875 235.65625 34.9375 235.9375 C 34.65625 236.21875 34.5 236.601562 34.5 237 C 34.5 237.398438 34.65625 237.78125 34.9375 238.0625 C 35.21875 238.34375 35.601562 238.5 36 238.5 C 36.398438 238.5 36.78125 238.34375 37.0625 238.0625 C 37.34375 237.78125 37.5 237.398438 37.5 237 Z M 37.5 237 "/>
<path style=" stroke:none;fill-rule:evenodd;fill:rgb(0%,0%,0%);fill-opacity:1;" d="M 37.5 208 C 37.5 207.601562 37.34375 207.21875 37.0625 206.9375 C 36.78125 206.65625 36.398438 206.5 36 206.5 C 35.601562 206.5 35.21875 206.65625 34.9375 206.9375 C 34.65625 207.21875 34.5 207.601562 34.5 208 C 34.5 208.398438 34.65625 208.78125 34.9375 209.0625 C 35.21875 209.34375 35.601562 209.5 36 209.5 C 36.398438 209.5 36.78125 209.34375 37.0625 209.0625 C 37.34375 208.78125 37.5 208.398438 37.5 208 Z M 37.5 208 "/>
<path style=" stroke:none;fill-rule:evenodd;fill:rgb(0%,0%,0%);fill-opacity:1;" d="M 37.5 179 C 37.5 178.601562 37.34375 178.21875 37.0625 177.9375 C 36.78125 177.65625 36.398438 177.5 36 177.5 C 35.601562 177.5 35.21875 177.65625 34.9375 177.9375 C 34.65625 178.21875 34.5 178.601562 34.5 179 C 34.5 179.398438 34.65625 179.78125 34.9375 180.0625 C 35.21875 180.34375 35.601562 180.5 36 180.5 C 36.398438 180.5 36.78125 180.34375 37.0625 180.0625 C 37.34375 179.78125 37.5 179.398438 37.5 179 Z M 37.5 179 "/>
<path style=" stroke:none;fill-rule:evenodd;fill:rgb(0%,0%,0%);fill-opacity:1;" d="M 37.5 150 C 37.5 149.601562 37.34375 149.21875 37.0625 148.9375 C 36.78125 148.65625 36.398438 148.5 36 148.5 C 35.601562 148.5 35.21875 148.65625 34.9375 148.9375 C 34.65625 149.21875 34.5 149.601562 34.5 150 C 34.5 150.398438 34.65625 150.78125 34.9375 151.0625 C 35.21875 151.34375 35.601562 151.5 36 151.5 C 36.398438 151.5 36.78125 151.34375 37.0625 151.0625 C 37.34375 150.78125 37.5 150.398438 37.5 150 Z M 37.5 150 "/>
<path style=" stroke:none;fill-rule:evenodd;fill:rgb(0%,0%,0%);fill-opacity:1;" d="M 37.5 122 C 37.5 121.601562 37.34375 121.21875 37.0625 120.9375 C 36.78125 120.65625 36.398438 120.5 36 120.5 C 35.601562 120.5 35.21875 120.65625 34.9375 120.9375 C 34.65625 121.21875 34.5 121.601562 34.5 122 C 34.5 122.398438 34.65625 122.78125 34.9375 123.0625 C 35.21875 123.34375 35.601562 123.5 36 123.5 C 36.398438 123.5 36.78125 123.34375 37.0625 123.0625 C 37.34375 122.78125 37.5 122.398438 37.5 122 Z M 37.5 122 "/>
<path style=" stroke:none;fill-rule:evenodd;fill:rgb(0%,0%,0%);fill-opacity:1;" d="M 37.5 93 C 37.5 92.601562 37.34375 92.21875 37.0625 91.9375 C 36.78125 91.65625 36.398438 91.5 36 91.5 C 35.601562 91.5 35.21875 91.65625 34.9375 91.9375 C 34.65625 92.21875 34.5 92.601562 34.5 93 C 34.5 93.398438 34.65625 93.78125 34.9375 94.0625 C 35.21875 94.34375 35.601562 94.5 36 94.5 C 36.398438 94.5 36.78125 94.34375 37.0625 94.0625 C 37.34375 93.78125 37.5 93.398438 37.5 93 Z M 37.5 93 "/>
<path style=" stroke:none;fill-rule:evenodd;fill:rgb(0%,0%,0%);fill-opacity:1;" d="M 37.5 64 C 37.5 63.601562 37.34375 63.21875 37.0625 62.9375 C 36.78125 62.65625 36.398438 62.5 36 62.5 C 35.601562 62.5 35.21875 62.65625 34.9375 62.9375 C 34.65625 63.21875 34.5 63.601562 34.5 64 C 34.5 64.398438 34.65625 64.78125 34.9375 65.0625 C 35.21875 65.34375 35.601562 65.5 36 65.5 C 36.398438 65.5 36.78125 65.34375 37.0625 65.0625 C 37.34375 64.78125 37.5 64.398438 37.5 64 Z M 37.5 64 "/>
<path style=" stroke:none;fill-rule:evenodd;fill:rgb(0%,0%,0%);fill-opacity:1;" d="M 37.5 36 C 37.5 35.601562 37.34375 35.21875 37.0625 34.9375 C 36.78125 34.65625 36.398438 34.5 36 34.5 C 35.601562 34.5 35.21875 34.65625 34.9375 34.9375 C 34.65625 35.21875 34.5 35.601562 34.5 36 C 34.5 36.398438 34.65625 36.78125 34.9375 37.0625 C 35.21875 37.34375 35.601562 37.5 36 37.5 C 36.398438 37.5 36.78125 37.34375 37.0625 37.0625 C 37.34375 36.78125 37.5 36.398438 37.5 36 Z M 37.5 36 "/>
<path style=" stroke:none;fill-rule:evenodd;fill:rgb(0%,0%,0%);fill-opacity:1;" d="M 37.5 7 C 37.5 6.601562 37.34375 6.21875 37.0625 5.9375 C 36.78125 5.65625 36.398438 5.5 36 5.5 C 35.601562 5.5 35.21875 5.65625 34.9375 5.9375 C 34.65625 6.21875 34.5 6.601562 34.5 7 C 34.5 7.398438 34.65625 7.78125 34.9375 8.0625 C 35.21875 8.34375 35.601562 8.5 36 8.5 C 36.398438 8.5 36.78125 8.34375 37.0625 8.0625 C 37.34375 7.78125 37.5 7.398438 37.5 7 Z M 37.5 7 "/>
<path style=" stroke:none;fill-rule:evenodd;fill:rgb(0%,0%,0%);fill-opacity:1;" d="M 66.5 352 C 66.5 351.601562 66.34375 351.21875 66.0625 350.9375 C 65.78125 350.65625 65.398438 350.5 65 350.5 C 64.601562 350.5 64.21875 350.65625 63.9375 350.9375 C 63.65625 351.21875 63.5 351.601562 63.5 352 C 63.5 352.398438 63.65625 352.78125 63.9375 353.0625 C 64.21875 353.34375 64.601562 353.5 65 353.5 C 65.398438 353.5 65.78125 353.34375 66.0625 353.0625 C 66.34375 352.78125 66.5 352.398438 66.5 352 Z M 66.5 352 "/>
<path style=" stroke:none;fill-rule:evenodd;fill:rgb(0%,0%,0%);fill-opacity:1;" d="M 66.5 323 C 66.5 322.601562 66.34375 322.21875 66.0625 321.9375 C 65.78125 321.65625 65.398438 321.5 65 321.5 C 64.601562 321.5 64.21875 321.65625 63.9375 321.9375 C 63.65625 322.21875 63.5 322.601562 63.5 323 C 63.5 323.398438 63.65625 323.78125 63.9375 324.0625 C 64.21875 324.34375 64.601562 324.5 65 324.5 C 65.398438 324.5 65.78125 324.34375 66.0625 324.0625 C 66.34375 323.78125 66.5 323.398438 66.5 323 Z M 66.5 323 "/>
<path style=" stroke:none;fill-rule:evenodd;fill:rgb(0%,0%,0%);fill-opacity:1;" d="M 66.5 294 C 66.5 293.601562 66.34375 293.21875 66.0625 292.9375 C 65.78125 292.65625 65.398438 292.5 65 292.5 C 64.601562 292.5 64.21875 292.65625 63.9375 292.9375 C 63.65625 293.21875 63.5 293.601562 63.5 294 C 63.5 294.398438 63.65625 294.78125 63.9375 295.0625 C 64.21875 295.34375 64.601562 295.5 65 295.5 C 65.398438 295.5 65.78125 295.34375 66.0625 295.0625 C 66.34375 294.78125 66.5 294.398438 66.5 294 Z M 66.5 294 "/>
<path style=" stroke:none;fill-rule:evenodd;fill:rgb(0%,0%,0%);fill-opacity:1;" d="M 66.5 265 C 66.5 264.601562 66.34375 264.21875 66.0625 263.9375 C 65.78125 263.65625 65.398438 263.5 65 263.5 C 64.601562 263.5 64.21875 263.65625 63.9375 263.9375 C 63.65625 264.21875 63.5 264.601562 63.5 265 C 63.5 265.398438 63.65625 265.78125 63.9375 266.0625 C 64.21875 266.34375 64.601562 266.5 65 266.5 C 65.398438 266.5 65.78125 266.34375 66.0625 266.0625 C 66.34375 265.78125 66.5 265.398438 66.5 265 Z M 66.5 265 "/>
<path style=" stroke:none;fill-rule:evenodd;fill:rgb(0%,0%,0%);fill-opacity:1;" d="M 66.5 237 C 66.5 236.601562 66.34375 236.21875 66.0625 235.9375 C 65.78125 235.65625 65.398438 235.5 65 235.5 C 64.601562 235.5 64.21875 235.65625 63.9375 235.9375 C 63.65625 236.21875 63.5 236.601562 63.5 237 C 63.5 237.398438 63.65625 237.78125 63.9375 238.0625 C 64.21875 238.34375 64.601562 238.5 65 238.5 C 65.398438 238.5 65.78125 238.34375 66.0625 238.0625 C 66.34375 237.78125 66.5 237.398438 66.5 237 Z M 66.5 237 "/>
<path style=" stroke:none;fill-rule:evenodd;fill:rgb(0%,0%,0%);fill-opacity:1;" d="M 66.5 208 C 66.5 207.601562 66.34375 207.21875 66.0625 206.9375 C 65.78125 206.65625 65.398438 206.5 65 206.5 C 64.601562 206.5 64.21875 206.65625 63.9375 206.9375 C 63.65625 207.21875 63.5 207.601562 63.5 208 C 63.5 208.398438 63.65625 208.78125 63.9375 209.0625 C 64.21875 209.34375 64.601562 209.5 65 209.5 C 65.398438 209.5 65.78125 209.34375 66.0625 209.0625 C 66.34375 208.78125 66.5 208.398438 66.5 208 Z M 66.5 208 "/>
<path style=" stroke:none;fill-rule:evenodd;fill:rgb(0%,0%,0%);fill-opacity:1;" d="M 66.5 179 C 66.5 178.601562 66.34375 178.21875 66.0625 177.9375 C 65.78125 177.65625 65.398438 177.5 65 177.5 C 64.601562 177.5 64.21875 177.65625 63.9375 177.9375 C 63.65625 178.21875 63.5 178.601562 63.5 179 C 63.5 179.398438 63.65625 179.78125 63.9375 180.0625 C 64.21875 180.34375 64.601562 180.5 65 180.5 C 65.398438 180.5 65.78125 180.34375 66.0625 180.0625 C 66.34375 179.78125 66.5 179.398438 66.5 179 Z M 66.5 179 "/>
<path style=" stroke:none;fill-rule:evenodd;fill:rgb(0%,0%,0%);fill-opacity:1;" d="M 66.5 150 C 66.5 149.601562 66.34375 149.21875 66.0625 148.9375 C 65.78125 148.65625 65.398438 148.5 65 148.5 C 64.601562 148.5 64.21875 148.65625 63.9375 148.9375 C 63.65625 149.21875 63.5 149.601562 63.5 150 C 63.5 150.398438 63.65625 150.78125 63.9375 151.0625 C 64.21875 151.34375 64.601562 151.5 65 151.5 C 65.398438 151.5 65.78125 151.34375 66.0625 151.0625 C 66.34375 150.78125 66.5 150.398438 66.5 150 Z M 66.5 150 "/>
<path style=" stroke:none;fill-rule:evenodd;fill:rgb(0%,0%,0%);fill-opacity:1;" d="M 66.5 122 C 66.5 121.601562 66.34375 121.21875 66.0625 120.9375 C 65.78125 120.65625 65.398438 120.5 65 120.5 C 64.601562 120.5 64.21875 120.65625 63.9375 120.9375 C 63.65625 121.21875 63.5 121.601562 63.5 122 C 63.5 122.398438 63.65625 122.78125 63.9375 123.0625 C 64.21875 123.34375 64.601562 123.5 65 123.5 C 65.398438 123.5 65.78125 123.34375 66.0625 123.0625 C 66.34375 122.78125 66.5 122.398438 66.5 122 Z M 66.5 122 "/>
<path style=" stroke:none;fill-rule:evenodd;fill:rgb(0%,0%,0%);fill-opacity:1;" d="M 66.5 93 C 66.5 92.601562 66.34375 92.21875 66.0625 91.9375 C 65.78125 91.65625 65.398438 91.5 65 91.5 C 64.601562 91.5 64.21875 91.65625 63.9375 91.9375 C 63.65625 92.21875 63.5 92.601562 63.5 93 C 63.5 93.398438 63.65625 93.78125 63.9375 94.0625 C 64.21875 94.34375 64.601562 94.5 65 94.5 C 65.398438 94.5 65.78125 94.34375 66.0625 94.0625 C 66.34375 93.78125 66.5 93.398438 66.5 93 Z M 66.5 93 "/>
<path style=" stroke:none;fill-rule:evenodd;fill:rgb(0%,0%,0%);fill-opacity:1;" d="M 66.5 64 C 66.5 63.601562 66.34375 63.21875 66.0625 62.9375 C 65.78125 62.65625 65.398438 62.5 65 62.5 C 64.601562 62.5 64.21875 62.65625 63.9375 62.9375 C 63.65625 63.21875 63.5 63.601562 63.5 64 C 63.5 64.398438 63.65625 64.78125 63.9375 65.0625 C 64.21875 65.34375 64.601562 65.5 65 65.5 C 65.398438 65.5 65.78125 65.34375 66.0625 65.0625 C 66.34375 64.78125 66.5 64.398438 66.5 64 Z M 66.5 64 "/>
<path style=" stroke:none;fill-rule:evenodd;fill:rgb(0%,0%,0%);fill-opacity:1;" d="M 66.5 36 C 66.5 35.601562 66.34375 35.21875 66.0625 34.9375 C 65.78125 34.65625 65.398438 34.5 65 34.5 C 64.601562 34.5 64.21875 34.65625 63.9375 34.9375 C 63.65625 35.21875 63.5 35.601562 63.5 36 C 63.5 36.398438 63.65625 36.78125 63.9375 37.0625 C 64.21875 37.34375 64.601562 37.5 65 37.5 C 65.398438 37.5 65.78125 37.34375 66.0625 37.0625 C 66.34375 36.78125 66.5 36.398438 66.5 36 Z M 66.5 36 "/>
<path style=" stroke:none;fill-rule:evenodd;fill:rgb(0%,0%,0%);fill-opacity:1;" d="M 66.5 7 C 66.5 6.601562 66.34375 6.21875 66.0625 5.9375 C 65.78125 5.65625 65.398438 5.5 65 5.5 C 64.601562 5.5 64.21875 5.65625 63.9375 5.9375 C 63.65625 6.21875 63.5 6.601562 63.5 7 C 63.5 7.398438 63.65625 7.78125 63.9375 8.0625 C 64.21875 8.34375 64.601562 8.5 65 8.5 C 65.398438 8.5 65.78125 8.34375 66.0625 8.0625 C 66.34375 7.78125 66.5 7.398438 66.5 7 Z M 66.5 7 "/>
<path style=" stroke:none;fill-rule:evenodd;fill:rgb(0%,0%,0%);fill-opacity:1;" d="M 94.5 352 C 94.5 351.601562 94.34375 351.21875 94.0625 350.9375 C 93.78125 350.65625 93.398438 350.5 93 350.5 C 92.601562 350.5 92.21875 350.65625 91.9375 350.9375 C 91.65625 351.21875 91.5 351.601562 91.5 352 C 91.5 352.398438 91.65625 352.78125 91.9375 353.0625 C 92.21875 353.34375 92.601562 353.5 93 353.5 C 93.398438 353.5 93.78125 353.34375 94.0625 353.0625 C 94.34375 352.78125 94.5 352.398438 94.5 352 Z M 94.5 352 "/>
<path style=" stroke:none;fill-rule:evenodd;fill:rgb(0%,0%,0%);fill-opacity:1;" d="M 94.5 323 C 94.5 322.601562 94.34375 322.21875 94.0625 321.9375 C 93.78125 321.65625 93.398438 321.5 93 321.5 C 92.601562 321.5 92.21875 321.65625 91.9375 321.9375 C 91.65625 322.21875 91.5 322.601562 91.5 323 C 91.5 323.398438 91.65625 323.78125 91.9375 324.0625 C 92.21875 324.34375 92.601562 324.5 93 324.5 C 93.398438 324.5 93.78125 324.34375 94.0625 324.0625 C 94.34375 323.78125 94.5 323.398438 94.5 323 Z M 94.5 323 "/>
<path style=" stroke:none;fill-rule:evenodd;fill:rgb(0%,0%,0%);fill-opacity:1;" d="M 94.5 294 C 94.5 293.601562 94.34375 293.21875 94.0625 292.9375 C 93.78125 292.65625 93.398438 292.5 93 292.5 C 92.601562 292.5 92.21875 292.65625 91.9375 292.9375 C 91.65625 293.21875 91.5 293.601562 91.5 294 C 91.5 294.398438 91.65625 294.78125 91.9375 295.0625 C 92.21875 295.34375 92.601562 295.5 93 295.5 C 93.398438 295.5 93.78125 295.34375 94.0625 295.0625 C 94.34375 294.78125 94.5 294.398438 94.5 294 Z M 94.5 294 "/>
<path style=" stroke:none;fill-rule:evenodd;fill:rgb(0%,0%,0%);fill-opacity:1;" d="M 94.5 265 C 94.5 264.601562 94.34375 264.21875 94.0625 263.9375 C 93.78125 263.65625 93.398438 263.5 93 263.5 C 92.601562 263.5 92.21875 263.65625 91.9375 263.9375 C 91.65625 264.21875 91.5 264.601562 91.5 265 C 91.5 265.398438 91.65625 265.78125 91.9375 266.0625 C 92.21875 266.34375 92.601562 266.5 93 266.5 C 93.398438 266.5 93.78125 266.34375 94.0625 266.0625 C 94.34375 265.78125 94.5 265.398438 94.5 265 Z M 94.5 265 "/>
<path style=" stroke:none;fill-rule:evenodd;fill:rgb(0%,0%,0%);fill-opacity:1;" d="M 94.5 237 C 94.5 236.601562 94.34375 236.21875 94.0625 235.9375 C 93.78125 235.65625 93.398438 235.5 93 235.5 C 92.601562 235.5 92.21875 235.65625 91.9375 235.9375 C 91.65625 236.21875 91.5 236.601562 91.5 237 C 91.5 237.398438 91.65625 237.78125 91.9375 238.0625 C 92.21875 238.34375 92.601562 238.5 93 238.5 C 93.398438 238.5 93.78125 238.34375 94.0625 238.0625 C 94.34375 237.78125 94.5 237.398438 94.5 237 Z M 94.5 237 "/>
<path style=" stroke:none;fill-rule:evenodd;fill:rgb(0%,0%,0%);fill-opacity:1;" d="M 94.5 208 C 94.5 207.601562 94.34375 207.21875 94.0625 206.9375 C 93.78125 206.65625 93.398438 206.5 93 206.5 C 92.601562 206.5 92.21875 206.65625 91.9375 206.9375 C 91.65625 207.21875 91.5 207.601562 91.5 208 C 91.5 208.398438 91.65625 208.78125 91.9375 209.0625 C 92.21875 209.34375 92.601562 209.5 93 209.5 C 93.398438 209.5 93.78125 209.34375 94.0625 209.0625 C 94.34375 208.78125 94.5 208.398438 94.5 208 Z M 94.5 208 "/>
<path style=" stroke:none;fill-rule:evenodd;fill:rgb(0%,0%,0%);fill-opacity:1;" d="M 94.5 179 C 94.5 178.601562 94.34375 178.21875 94.0625 177.9375 C 93.78125 177.65625 93.398438 177.5 93 177.5 C 92.601562 177.5 92.21875 177.65625 91.9375 177.9375 C 91.65625 178.21875 91.5 178.601562 91.5 179 C 91.5 179.398438 91.65625 179.78125 91.9375 180.0625 C 92.21875 180.34375 92.601562 180.5 93 180.5 C 93.398438 180.5 93.78125 180.34375 94.0625 180.0625 C 94.34375 179.78125 94.5 179.398438 94.5 179 Z M 94.5 179 "/>
<path style=" stroke:none;fill-rule:evenodd;fill:rgb(0%,0%,0%);fill-opacity:1;" d="M 94.5 150 C 94.5 149.601562 94.34375 149.21875 94.0625 148.9375 C 93.78125 148.65625 93.398438 148.5 93 148.5 C 92.601562 148.5 92.21875 148.65625 91.9375 148.9375 C 91.65625 149.21875 91.5 149.601562 91.5 150 C 91.5 150.398438 91.65625 150.78125 91.9375 151.0625 C 92.21875 151.34375 92.601562 151.5 93 151.5 C 93.398438 151.5 93.78125 151.34375 94.0625 151.0625 C 94.34375 150.78125 94.5 150.398438 94.5 150 Z M 94.5 150 "/>
<path style=" stroke:none;fill-rule:evenodd;fill:rgb(0%,0%,0%);fill-opacity:1;" d="M 94.5 122 C 94.5 121.601562 94.34375 121.21875 94.0625 120.9375 C 93.78125 120.65625 93.398438 120.5 93 120.5 C 92.601562 120.5 92.21875 120.65625 91.9375 120.9375 C 91.65625 121.21875 91.5 121.601562 91.5 122 C 91.5 122.398438 91.65625 122.78125 91.9375 123.0625 C 92.21875 123.34375 92.601562 123.5 93 123.5 C 93.398438 123.5 93.78125 123.34375 94.0625 123.0625 C 94.34375 122.78125 94.5 122.398438 94.5 122 Z M 94.5 122 "/>
<path style=" stroke:none;fill-rule:evenodd;fill:rgb(0%,0%,0%);fill-opacity:1;" d="M 94.5 93 C 94.5 92.601562 94.34375 92.21875 94.0625 91.9375 C 93.78125 91.65625 93.398438 91.5 93 91.5 C 92.601562 91.5 92.21875 91.65625 91.9375 91.9375 C 91.65625 92.21875 91.5 92.601562 91.5 93 C 91.5 93.398438 91.65625 93.78125 91.9375 94.0625 C 92.21875 94.34375 92.601562 94.5 93 94.5 C 93.398438 94.5 93.78125 94.34375 94.0625 94.0625 C 94.34375 93.78125 94.5 93.398438 94.5 93 Z M 94.5 93 "/>
<path style=" stroke:none;fill-rule:evenodd;fill:rgb(0%,0%,0%);fill-opacity:1;" d="M 94.5 64 C 94.5 63.601562 94.34375 63.21875 94.0625 62.9375 C 93.78125 62.65625 93.398438 62.5 93 62.5 C 92.601562 62.5 92.21875 62.65625 91.9375 62.9375 C 91.65625 63.21875 91.5 63.601562 91.5 64 C 91.5 64.398438 91.65625 64.78125 91.9375 65.0625 C 92.21875 65.34375 92.601562 65.5 93 65.5 C 93.398438 65.5 93.78125 65.34375 94.0625 65.0625 C 94.34375 64.78125 94.5 64.398438 94.5 64 Z M 94.5 64 "/>
<path style=" stroke:none;fill-rule:evenodd;fill:rgb(0%,0%,0%);fill-opacity:1;" d="M 94.5 36 C 94.5 35.601562 94.34375 35.21875 94.0625 34.9375 C 93.78125 34.65625 93.398438 34.5 93 34.5 C 92.601562 34.5 92.21875 34.65625 91.9375 34.9375 C 91.65625 35.21875 91.5 35.601562 91.5 36 C 91.5 36.398438 91.65625 36.78125 91.9375 37.0625 C 92.21875 37.34375 92.601562 37.5 93 37.5 C 93.398438 37.5 93.78125 37.34375 94.0625 37.0625 C 94.34375 36.78125 94.5 36.398438 94.5 36 Z M 94.5 36 "/>
<path style=" stroke:none;fill-rule:evenodd;fill:rgb(0%,0%,0%);fill-opacity:1;" d="M 94.5 7 C 94.5 6.601562 94.34375 6.21875 94.0625 5.9375 C 93.78125 5.65625 93.398438 5.5 93 5.5 C 92.601562 5.5 92.21875 5.65625 91.9375 5.9375 C 91.65625 6.21875 91.5 6.601562 91.5 7 C 91.5 7.398438 91.65625 7.78125 91.9375 8.0625 C 92.21875 8.34375 92.601562 8.5 93 8.5 C 93.398438 8.5 93.78125 8.34375 94.0625 8.0625 C 94.34375 7.78125 94.5 7.398438 94.5 7 Z M 94.5 7 "/>
<path style=" stroke:none;fill-rule:evenodd;fill:rgb(0%,0%,0%);fill-opacity:1;" d="M 123.5 352 C 123.5 351.601562 123.34375 351.21875 123.0625 350.9375 C 122.78125 350.65625 122.398438 350.5 122 350.5 C 121.601562 350.5 121.21875 350.65625 120.9375 350.9375 C 120.65625 351.21875 120.5 351.601562 120.5 352 C 120.5 352.398438 120.65625 352.78125 120.9375 353.0625 C 121.21875 353.34375 121.601562 353.5 122 353.5 C 122.398438 353.5 122.78125 353.34375 123.0625 353.0625 C 123.34375 352.78125 123.5 352.398438 123.5 352 Z M 123.5 352 "/>
<path style=" stroke:none;fill-rule:evenodd;fill:rgb(0%,0%,0%);fill-opacity:1;" d="M 123.5 323 C 123.5 322.601562 123.34375 322.21875 123.0625 321.9375 C 122.78125 321.65625 122.398438 321.5 122 321.5 C 121.601562 321.5 121.21875 321.65625 120.9375 321.9375 C 120.65625 322.21875 120.5 322.601562 120.5 323 C 120.5 323.398438 120.65625 323.78125 120.9375 324.0625 C 121.21875 324.34375 121.601562 324.5 122 324.5 C 122.398438 324.5 122.78125 324.34375 123.0625 324.0625 C 123.34375 323.78125 123.5 323.398438 123.5 323 Z M 123.5 323 "/>
<path style=" stroke:none;fill-rule:evenodd;fill:rgb(0%,0%,0%);fill-opacity:1;" d="M 123.5 294 C 123.5 293.601562 123.34375 293.21875 123.0625 292.9375 C 122.78125 292.65625 122.398438 292.5 122 292.5 C 121.601562 292.5 121.21875 292.65625 120.9375 292.9375 C 120.65625 293.21875 120.5 293.601562 120.5 294 C 120.5 294.398438 120.65625 294.78125 120.9375 295.0625 C 121.21875 295.34375 121.601562 295.5 122 295.5 C 122.398438 295.5 122.78125 295.34375 123.0625 295.0625 C 123.34375 294.78125 123.5 294.398438 123.5 294 Z M 123.5 294 "/>
<path style=" stroke:none;fill-rule:evenodd;fill:rgb(0%,0%,0%);fill-opacity:1;" d="M 123.5 265 C 123.5 264.601562 123.34375 264.21875 123.0625 263.9375 C 122.78125 263.65625 122.398438 263.5 122 263.5 C 121.601562 263.5 121.21875 263.65625 120.9375 263.9375 C 120.65625 264.21875 120.5 264.601562 120.5 265 C 120.5 265.398438 120.65625 265.78125 120.9375 266.0625 C 121.21875 266.34375 121.601562 266.5 122 266.5 C 122.398438 266.5 122.78125 266.34375 123.0625 266.0625 C 123.34375 265.78125 123.5 265.398438 123.5 265 Z M 123.5 265 "/>
<path style=" stroke:none;fill-rule:evenodd;fill:rgb(0%,0%,0%);fill-opacity:1;" d="M 123.5 237 C 123.5 236.601562 123.34375 236.21875 123.0625 235.9375 C 122.78125 235.65625 122.398438 235.5 122 235.5 C 121.601562 235.5 121.21875 235.65625 120.9375 235.9375 C 120.65625 236.21875 120.5 236.601562 120.5 237 C 120.5 237.398438 120.65625 237.78125 120.9375 238.0625 C 121.21875 238.34375 121.601562 238.5 122 238.5 C 122.398438 238.5 122.78125 238.34375 123.0625 238.0625 C 123.34375 237.78125 123.5 237.398438 123.5 237 Z M 123.5 237 "/>
<path style=" stroke:none;fill-rule:evenodd;fill:rgb(0%,0%,0%);fill-opacity:1;" d="M 123.5 208 C 123.5 207.601562 123.34375 207.21875 123.0625 206.9375 C 122.78125 206.65625 122.398438 206.5 122 206.5 C 121.601562 206.5 121.21875 206.65625 120.9375 206.9375 C 120.65625 207.21875 120.5 207.601562 120.5 208 C 120.5 208.398438 120.65625 208.78125 120.9375 209.0625 C 121.21875 209.34375 121.601562 209.5 122 209.5 C 122.398438 209.5 122.78125 209.34375 123.0625 209.0625 C 123.34375 208.78125 123.5 208.398438 123.5 208 Z M 123.5 208 "/>
<path style=" stroke:none;fill-rule:evenodd;fill:rgb(0%,0%,0%);fill-opacity:1;" d="M 123.5 179 C 123.5 178.601562 123.34375 178.21875 123.0625 177.9375 C 122.78125 177.65625 122.398438 177.5 122 177.5 C 121.601562 177.5 121.21875 177.65625 120.9375 177.9375 C 120.65625 178.21875 120.5 178.601562 120.5 179 C 120.5 179.398438 120.65625 179.78125 120.9375 180.0625 C 121.21875 180.34375 121.601562 180.5 122 180.5 C 122.398438 180.5 122.78125 180.34375 123.0625 180.0625 C 123.34375 179.78125 123.5 179.398438 123.5 179 Z M 123.5 179 "/>
<path style=" stroke:none;fill-rule:evenodd;fill:rgb(0%,0%,0%);fill-opacity:1;" d="M 123.5 150 C 123.5 149.601562 123.34375 149.21875 123.0625 148.9375 C 122.78125 148.65625 122.398438 148.5 122 148.5 C 121.601562 148.5 121.21875 148.65625 120.9375 148.9375 C 120.65625 149.21875 120.5 149.601562 120.5 150 C 120.5 150.398438 120.65625 150.78125 120.9375 151.0625 C 121.21875 151.34375 121.601562 151.5 122 151.5 C 122.398438 151.5 122.78125 151.34375 123.0625 151.0625 C 123.34375 150.78125 123.5 150.398438 123.5 150 Z M 123.5 150 "/>
<path style=" stroke:none;fill-rule:evenodd;fill:rgb(0%,0%,0%);fill-opacity:1;" d="M 123.5 122 C 123.5 121.601562 123.34375 121.21875 123.0625 120.9375 C 122.78125 120.65625 122.398438 120.5 122 120.5 C 121.601562 120.5 121.21875 120.65625 120.9375 120.9375 C 120.65625 121.21875 120.5 121.601562 120.5 122 C 120.5 122.398438 120.65625 122.78125 120.9375 123.0625 C 121.21875 123.34375 121.601562 123.5 122 123.5 C 122.398438 123.5 122.78125 123.34375 123.0625 123.0625 C 123.34375 122.78125 123.5 122.398438 123.5 122 Z M 123.5 122 "/>
<path style=" stroke:none;fill-rule:evenodd;fill:rgb(0%,0%,0%);fill-opacity:1;" d="M 123.5 93 C 123.5 92.601562 123.34375 92.21875 123.0625 91.9375 C 122.78125 91.65625 122.398438 91.5 122 91.5 C 121.601562 91.5 121.21875 91.65625 120.9375 91.9375 C 120.65625 92.21875 120.5 92.601562 120.5 93 C 120.5 93.398438 120.65625 93.78125 120.9375 94.0625 C 121.21875 94.34375 121.601562 94.5 122 94.5 C 122.398438 94.5 122.78125 94.34375 123.0625 94.0625 C 123.34375 93.78125 123.5 93.398438 123.5 93 Z M 123.5 93 "/>
<path style=" stroke:none;fill-rule:evenodd;fill:rgb(0%,0%,0%);fill-opacity:1;" d="M 123.5 64 C 123.5 63.601562 123.34375 63.21875 123.0625 62.9375 C 122.78125 62.65625 122.398438 62.5 122 62.5 C 121.601562 62.5 121.21875 62.65625 120.9375 62.9375 C 120.65625 63.21875 120.5 63.601562 120.5 64 C 120.5 64.398438 120.65625 64.78125 120.9375 65.0625 C 121.21875 65.34375 121.601562 65.5 122 65.5 C 122.398438 65.5 122.78125 65.34375 123.0625 65.0625 C 123.34375 64.78125 123.5 64.398438 123.5 64 Z M 123.5 64 "/>
<path style=" stroke:none;fill-rule:evenodd;fill:rgb(0%,0%,0%);fill-opacity:1;" d="M 123.5 36 C 123.5 35.601562 123.34375 35.21875 123.0625 34.9375 C 122.78125 34.65625 122.398438 34.5 122 34.5 C 121.601562 34.5 121.21875 34.65625 120.9375 34.9375 C 120.65625 35.21875 120.5 35.601562 120.5 36 C 120.5 36.398438 120.65625 36.78125 120.9375 37.0625 C 121.21875 37.34375 121.601562 37.5 122 37.5 C 122.398438 37.5 122.78125 37.34375 123.0625 37.0625 C 123.34375 36.78125 123.5 36.398438 123.5 36 Z M 123.5 36 "/>
<path style=" stroke:none;fill-rule:evenodd;fill:rgb(0%,0%,0%);fill-opacity:1;" d="M 123.5 7 C 123.5 6.601562 123.34375 6.21875 123.0625 5.9375 C 122.78125 5.65625 122.398438 5.5 122 5.5 C 121.601562 5.5 121.21875 5.65625 120.9375 5.9375 C 120.65625 6.21875 120.5 6.601562 120.5 7 C 120.5 7.398438 120.65625 7.78125 120.9375 8.0625 C 121.21875 8.34375 121.601562 8.5 122 8.5 C 122.398438 8.5 122.78125 8.34375 123.0625 8.0625 C 123.34375 7.78125 123.5 7.398438 123.5 7 Z M 123.5 7 "/>
<path style=" stroke:none;fill-rule:evenodd;fill:rgb(0%,0%,0%);fill-opacity:1;" d="M 152.5 352 C 152.5 351.601562 152.34375 351.21875 152.0625 350.9375 C 151.78125 350.65625 151.398438 350.5 151 350.5 C 150.601562 350.5 150.21875 350.65625 149.9375 350.9375 C 149.65625 351.21875 149.5 351.601562 149.5 352 C 149.5 352.398438 149.65625 352.78125 149.9375 353.0625 C 150.21875 353.34375 150.601562 353.5 151 353.5 C 151.398438 353.5 151.78125 353.34375 152.0625 353.0625 C 152.34375 352.78125 152.5 352.398438 152.5 352 Z M 152.5 352 "/>
<path style=" stroke:none;fill-rule:evenodd;fill:rgb(0%,0%,0%);fill-opacity:1;" d="M 152.5 323 C 152.5 322.601562 152.34375 322.21875 152.0625 321.9375 C 151.78125 321.65625 151.398438 321.5 151 321.5 C 150.601562 321.5 150.21875 321.65625 149.9375 321.9375 C 149.65625 322.21875 149.5 322.601562 149.5 323 C 149.5 323.398438 149.65625 323.78125 149.9375 324.0625 C 150.21875 324.34375 150.601562 324.5 151 324.5 C 151.398438 324.5 151.78125 324.34375 152.0625 324.0625 C 152.34375 323.78125 152.5 323.398438 152.5 323 Z M 152.5 323 "/>
<path style=" stroke:none;fill-rule:evenodd;fill:rgb(0%,0%,0%);fill-opacity:1;" d="M 152.5 294 C 152.5 293.601562 152.34375 293.21875 152.0625 292.9375 C 151.78125 292.65625 151.398438 292.5 151 292.5 C 150.601562 292.5 150.21875 292.65625 149.9375 292.9375 C 149.65625 293.21875 149.5 293.601562 149.5 294 C 149.5 294.398438 149.65625 294.78125 149.9375 295.0625 C 150.21875 295.34375 150.601562 295.5 151 295.5 C 151.398438 295.5 151.78125 295.34375 152.0625 295.0625 C 152.34375 294.78125 152.5 294.398438 152.5 294 Z M 152.5 294 "/>
<path style=" stroke:none;fill-rule:evenodd;fill:rgb(0%,0%,0%);fill-opacity:1;" d="M 152.5 265 C 152.5 264.601562 152.34375 264.21875 152.0625 263.9375 C 151.78125 263.65625 151.398438 263.5 151 263.5 C 150.601562 263.5 150.21875 263.65625 149.9375 263.9375 C 149.65625 264.21875 149.5 264.601562 149.5 265 C 149.5 265.398438 149.65625 265.78125 149.9375 266.0625 C 150.21875 266.34375 150.601562 266.5 151 266.5 C 151.398438 266.5 151.78125 266.34375 152.0625 266.0625 C 152.34375 265.78125 152.5 265.398438 152.5 265 Z M 152.5 265 "/>
<path style=" stroke:none;fill-rule:evenodd;fill:rgb(0%,0%,0%);fill-opacity:1;" d="M 152.5 237 C 152.5 236.601562 152.34375 236.21875 152.0625 235.9375 C 151.78125 235.65625 151.398438 235.5 151 235.5 C 150.601562 235.5 150.21875 235.65625 149.9375 235.9375 C 149.65625 236.21875 149.5 236.601562 149.5 237 C 149.5 237.398438 149.65625 237.78125 149.9375 238.0625 C 150.21875 238.34375 150.601562 238.5 151 238.5 C 151.398438 238.5 151.78125 238.34375 152.0625 238.0625 C 152.34375 237.78125 152.5 237.398438 152.5 237 Z M 152.5 237 "/>
<path style=" stroke:none;fill-rule:evenodd;fill:rgb(0%,0%,0%);fill-opacity:1;" d="M 152.5 208 C 152.5 207.601562 152.34375 207.21875 152.0625 206.9375 C 151.78125 206.65625 151.398438 206.5 151 206.5 C 150.601562 206.5 150.21875 206.65625 149.9375 206.9375 C 149.65625 207.21875 149.5 207.601562 149.5 208 C 149.5 208.398438 149.65625 208.78125 149.9375 209.0625 C 150.21875 209.34375 150.601562 209.5 151 209.5 C 151.398438 209.5 151.78125 209.34375 152.0625 209.0625 C 152.34375 208.78125 152.5 208.398438 152.5 208 Z M 152.5 208 "/>
<path style=" stroke:none;fill-rule:evenodd;fill:rgb(0%,0%,0%);fill-opacity:1;" d="M 152.5 179 C 152.5 178.601562 152.34375 178.21875 152.0625 177.9375 C 151.78125 177.65625 151.398438 177.5 151 177.5 C 150.601562 177.5 150.21875 177.65625 149.9375 177.9375 C 149.65625 178.21875 149.5 178.601562 149.5 179 C 149.5 179.398438 149.65625 179.78125 149.9375 180.0625 C 150.21875 180.34375 150.601562 180.5 151 180.5 C 151.398438 180.5 151.78125 180.34375 152.0625 180.0625 C 152.34375 179.78125 152.5 179.398438 152.5 179 Z M 152.5 179 "/>
<path style=" stroke:none;fill-rule:evenodd;fill:rgb(0%,0%,0%);fill-opacity:1;" d="M 152.5 150 C 152.5 149.601562 152.34375 149.21875 152.0625 148.9375 C 151.78125 148.65625 151.398438 148.5 151 148.5 C 150.601562 148.5 150.21875 148.65625 149.9375 148.9375 C 149.65625 149.21875 149.5 149.601562 149.5 150 C 149.5 150.398438 149.65625 150.78125 149.9375 151.0625 C 150.21875 151.34375 150.601562 151.5 151 151.5 C 151.398438 151.5 151.78125 151.34375 152.0625 151.0625 C 152.34375 150.78125 152.5 150.398438 152.5 150 Z M 152.5 150 "/>
<path style=" stroke:none;fill-rule:evenodd;fill:rgb(0%,0%,0%);fill-opacity:1;" d="M 152.5 122 C 152.5 121.601562 152.34375 121.21875 152.0625 120.9375 C 151.78125 120.65625 151.398438 120.5 151 120.5 C 150.601562 120.5 150.21875 120.65625 149.9375 120.9375 C 149.65625 121.21875 149.5 121.601562 149.5 122 C 149.5 122.398438 149.65625 122.78125 149.9375 123.0625 C 150.21875 123.34375 150.601562 123.5 151 123.5 C 151.398438 123.5 151.78125 123.34375 152.0625 123.0625 C 152.34375 122.78125 152.5 122.398438 152.5 122 Z M 152.5 122 "/>
<path style=" stroke:none;fill-rule:evenodd;fill:rgb(0%,0%,0%);fill-opacity:1;" d="M 152.5 93 C 152.5 92.601562 152.34375 92.21875 152.0625 91.9375 C 151.78125 91.65625 151.398438 91.5 151 91.5 C 150.601562 91.5 150.21875 91.65625 149.9375 91.9375 C 149.65625 92.21875 149.5 92.601562 149.5 93 C 149.5 93.398438 149.65625 93.78125 149.9375 94.0625 C 150.21875 94.34375 150.601562 94.5 151 94.5 C 151.398438 94.5 151.78125 94.34375 152.0625 94.0625 C 152.34375 93.78125 152.5 93.398438 152.5 93 Z M 152.5 93 "/>
<path style=" stroke:none;fill-rule:evenodd;fill:rgb(0%,0%,0%);fill-opacity:1;" d="M 152.5 64 C 152.5 63.601562 152.34375 63.21875 152.0625 62.9375 C 151.78125 62.65625 151.398438 62.5 151 62.5 C 150.601562 62.5 150.21875 62.65625 149.9375 62.9375 C 149.65625 63.21875 149.5 63.601562 149.5 64 C 149.5 64.398438 149.65625 64.78125 149.9375 65.0625 C 150.21875 65.34375 150.601562 65.5 151 65.5 C 151.398438 65.5 151.78125 65.34375 152.0625 65.0625 C 152.34375 64.78125 152.5 64.398438 152.5 64 Z M 152.5 64 "/>
<path style=" stroke:none;fill-rule:evenodd;fill:rgb(0%,0%,0%);fill-opacity:1;" d="M 152.5 36 C 152.5 35.601562 152.34375 35.21875 152.0625 34.9375 C 151.78125 34.65625 151.398438 34.5 151 34.5 C 150.601562 34.5 150.21875 34.65625 149.9375 34.9375 C 149.65625 35.21875 149.5 35.601562 149.5 36 C 149.5 36.398438 149.65625 36.78125 149.9375 37.0625 C 150.21875 37.34375 150.601562 37.5 151 37.5 C 151.398438 37.5 151.78125 37.34375 152.0625 37.0625 C 152.34375 36.78125 152.5 36.398438 152.5 36 Z M 152.5 36 "/>
<path style=" stroke:none;fill-rule:evenodd;fill:rgb(0%,0%,0%);fill-opacity:1;" d="M 152.5 7 C 152.5 6.601562 152.34375 6.21875 152.0625 5.9375 C 151.78125 5.65625 151.398438 5.5 151 5.5 C 150.601562 5.5 150.21875 5.65625 149.9375 5.9375 C 149.65625 6.21875 149.5 6.601562 149.5 7 C 149.5 7.398438 149.65625 7.78125 149.9375 8.0625 C 150.21875 8.34375 150.601562 8.5 151 8.5 C 151.398438 8.5 151.78125 8.34375 152.0625 8.0625 C 152.34375 7.78125 152.5 7.398438 152.5 7 Z M 152.5 7 "/>
<path style=" stroke:none;fill-rule:evenodd;fill:rgb(0%,0%,0%);fill-opacity:1;" d="M 180.5 352 C 180.5 351.601562 180.34375 351.21875 180.0625 350.9375 C 179.78125 350.65625 179.398438 350.5 179 350.5 C 178.601562 350.5 178.21875 350.65625 177.9375 350.9375 C 177.65625 351.21875 177.5 351.601562 177.5 352 C 177.5 352.398438 177.65625 352.78125 177.9375 353.0625 C 178.21875 353.34375 178.601562 353.5 179 353.5 C 179.398438 353.5 179.78125 353.34375 180.0625 353.0625 C 180.34375 352.78125 180.5 352.398438 180.5 352 Z M 180.5 352 "/>
<path style=" stroke:none;fill-rule:evenodd;fill:rgb(0%,0%,0%);fill-opacity:1;" d="M 180.5 323 C 180.5 322.601562 180.34375 322.21875 180.0625 321.9375 C 179.78125 321.65625 179.398438 321.5 179 321.5 C 178.601562 321.5 178.21875 321.65625 177.9375 321.9375 C 177.65625 322.21875 177.5 322.601562 177.5 323 C 177.5 323.398438 177.65625 323.78125 177.9375 324.0625 C 178.21875 324.34375 178.601562 324.5 179 324.5 C 179.398438 324.5 179.78125 324.34375 180.0625 324.0625 C 180.34375 323.78125 180.5 323.398438 180.5 323 Z M 180.5 323 "/>
<path style=" stroke:none;fill-rule:evenodd;fill:rgb(0%,0%,0%);fill-opacity:1;" d="M 180.5 294 C 180.5 293.601562 180.34375 293.21875 180.0625 292.9375 C 179.78125 292.65625 179.398438 292.5 179 292.5 C 178.601562 292.5 178.21875 292.65625 177.9375 292.9375 C 177.65625 293.21875 177.5 293.601562 177.5 294 C 177.5 294.398438 177.65625 294.78125 177.9375 295.0625 C 178.21875 295.34375 178.601562 295.5 179 295.5 C 179.398438 295.5 179.78125 295.34375 180.0625 295.0625 C 180.34375 294.78125 180.5 294.398438 180.5 294 Z M 180.5 294 "/>
<path style=" stroke:none;fill-rule:evenodd;fill:rgb(0%,0%,0%);fill-opacity:1;" d="M 180.5 265 C 180.5 264.601562 180.34375 264.21875 180.0625 263.9375 C 179.78125 263.65625 179.398438 263.5 179 263.5 C 178.601562 263.5 178.21875 263.65625 177.9375 263.9375 C 177.65625 264.21875 177.5 264.601562 177.5 265 C 177.5 265.398438 177.65625 265.78125 177.9375 266.0625 C 178.21875 266.34375 178.601562 266.5 179 266.5 C 179.398438 266.5 179.78125 266.34375 180.0625 266.0625 C 180.34375 265.78125 180.5 265.398438 180.5 265 Z M 180.5 265 "/>
<path style=" stroke:none;fill-rule:evenodd;fill:rgb(0%,0%,0%);fill-opacity:1;" d="M 180.5 237 C 180.5 236.601562 180.34375 236.21875 180.0625 235.9375 C 179.78125 235.65625 179.398438 235.5 179 235.5 C 178.601562 235.5 178.21875 235.65625 177.9375 235.9375 C 177.65625 236.21875 177.5 236.601562 177.5 237 C 177.5 237.398438 177.65625 237.78125 177.9375 238.0625 C 178.21875 238.34375 178.601562 238.5 179 238.5 C 179.398438 238.5 179.78125 238.34375 180.0625 238.0625 C 180.34375 237.78125 180.5 237.398438 180.5 237 Z M 180.5 237 "/>
<path style=" stroke:none;fill-rule:evenodd;fill:rgb(0%,0%,0%);fill-opacity:1;" d="M 180.5 208 C 180.5 207.601562 180.34375 207.21875 180.0625 206.9375 C 179.78125 206.65625 179.398438 206.5 179 206.5 C 178.601562 206.5 178.21875 206.65625 177.9375 206.9375 C 177.65625 207.21875 177.5 207.601562 177.5 208 C 177.5 208.398438 177.65625 208.78125 177.9375 209.0625 C 178.21875 209.34375 178.601562 209.5 179 209.5 C 179.398438 209.5 179.78125 209.34375 180.0625 209.0625 C 180.34375 208.78125 180.5 208.398438 180.5 208 Z M 180.5 208 "/>
<path style=" stroke:none;fill-rule:evenodd;fill:rgb(0%,0%,0%);fill-opacity:1;" d="M 180.5 179 C 180.5 178.601562 180.34375 178.21875 180.0625 177.9375 C 179.78125 177.65625 179.398438 177.5 179 177.5 C 178.601562 177.5 178.21875 177.65625 177.9375 177.9375 C 177.65625 178.21875 177.5 178.601562 177.5 179 C 177.5 179.398438 177.65625 179.78125 177.9375 180.0625 C 178.21875 180.34375 178.601562 180.5 179 180.5 C 179.398438 180.5 179.78125 180.34375 180.0625 180.0625 C 180.34375 179.78125 180.5 179.398438 180.5 179 Z M 180.5 179 "/>
<path style=" stroke:none;fill-rule:evenodd;fill:rgb(0%,0%,0%);fill-opacity:1;" d="M 180.5 150 C 180.5 149.601562 180.34375 149.21875 180.0625 148.9375 C 179.78125 148.65625 179.398438 148.5 179 148.5 C 178.601562 148.5 178.21875 148.65625 177.9375 148.9375 C 177.65625 149.21875 177.5 149.601562 177.5 150 C 177.5 150.398438 177.65625 150.78125 177.9375 151.0625 C 178.21875 151.34375 178.601562 151.5 179 151.5 C 179.398438 151.5 179.78125 151.34375 180.0625 151.0625 C 180.34375 150.78125 180.5 150.398438 180.5 150 Z M 180.5 150 "/>
<path style=" stroke:none;fill-rule:evenodd;fill:rgb(0%,0%,0%);fill-opacity:1;" d="M 180.5 122 C 180.5 121.601562 180.34375 121.21875 180.0625 120.9375 C 179.78125 120.65625 179.398438 120.5 179 120.5 C 178.601562 120.5 178.21875 120.65625 177.9375 120.9375 C 177.65625 121.21875 177.5 121.601562 177.5 122 C 177.5 122.398438 177.65625 122.78125 177.9375 123.0625 C 178.21875 123.34375 178.601562 123.5 179 123.5 C 179.398438 123.5 179.78125 123.34375 180.0625 123.0625 C 180.34375 122.78125 180.5 122.398438 180.5 122 Z M 180.5 122 "/>
<path style=" stroke:none;fill-rule:evenodd;fill:rgb(0%,0%,0%);fill-opacity:1;" d="M 180.5 93 C 180.5 92.601562 180.34375 92.21875 180.0625 91.9375 C 179.78125 91.65625 179.398438 91.5 179 91.5 C 178.601562 91.5 178.21875 91.65625 177.9375 91.9375 C 177.65625 92.21875 177.5 92.601562 177.5 93 C 177.5 93.398438 177.65625 93.78125 177.9375 94.0625 C 178.21875 94.34375 178.601562 94.5 179 94.5 C 179.398438 94.5 179.78125 94.34375 180.0625 94.0625 C 180.34375 93.78125 180.5 93.398438 180.5 93 Z M 180.5 93 "/>
<path style=" stroke:none;fill-rule:evenodd;fill:rgb(0%,0%,0%);fill-opacity:1;" d="M 180.5 64 C 180.5 63.601562 180.34375 63.21875 180.0625 62.9375 C 179.78125 62.65625 179.398438 62.5 179 62.5 C 178.601562 62.5 178.21875 62.65625 177.9375 62.9375 C 177.65625 63.21875 177.5 63.601562 177.5 64 C 177.5 64.398438 177.65625 64.78125 177.9375 65.0625 C 178.21875 65.34375 178.601562 65.5 179 65.5 C 179.398438 65.5 179.78125 65.34375 180.0625 65.0625 C 180.34375 64.78125 180.5 64.398438 180.5 64 Z M 180.5 64 "/>
<path style=" stroke:none;fill-rule:evenodd;fill:rgb(0%,0%,0%);fill-opacity:1;" d="M 180.5 36 C 180.5 35.601562 180.34375 35.21875 180.0625 34.9375 C 179.78125 34.65625 179.398438 34.5 179 34.5 C 178.601562 34.5 178.21875 34.65625 177.9375 34.9375 C 177.65625 35.21875 177.5 35.601562 177.5 36 C 177.5 36.398438 177.65625 36.78125 177.9375 37.0625 C 178.21875 37.34375 178.601562 37.5 179 37.5 C 179.398438 37.5 179.78125 37.34375 180.0625 37.0625 C 180.34375 36.78125 180.5 36.398438 180.5 36 Z M 180.5 36 "/>
<path style=" stroke:none;fill-rule:evenodd;fill:rgb(0%,0%,0%);fill-opacity:1;" d="M 180.5 7 C 180.5 6.601562 180.34375 6.21875 180.0625 5.9375 C 179.78125 5.65625 179.398438 5.5 179 5.5 C 178.601562 5.5 178.21875 5.65625 177.9375 5.9375 C 177.65625 6.21875 177.5 6.601562 177.5 7 C 177.5 7.398438 177.65625 7.78125 177.9375 8.0625 C 178.21875 8.34375 178.601562 8.5 179 8.5 C 179.398438 8.5 179.78125 8.34375 180.0625 8.0625 C 180.34375 7.78125 180.5 7.398438 180.5 7 Z M 180.5 7 "/>
<path style=" stroke:none;fill-rule:evenodd;fill:rgb(0%,0%,0%);fill-opacity:1;" d="M 209.5 352 C 209.5 351.601562 209.34375 351.21875 209.0625 350.9375 C 208.78125 350.65625 208.398438 350.5 208 350.5 C 207.601562 350.5 207.21875 350.65625 206.9375 350.9375 C 206.65625 351.21875 206.5 351.601562 206.5 352 C 206.5 352.398438 206.65625 352.78125 206.9375 353.0625 C 207.21875 353.34375 207.601562 353.5 208 353.5 C 208.398438 353.5 208.78125 353.34375 209.0625 353.0625 C 209.34375 352.78125 209.5 352.398438 209.5 352 Z M 209.5 352 "/>
<path style=" stroke:none;fill-rule:evenodd;fill:rgb(0%,0%,0%);fill-opacity:1;" d="M 209.5 323 C 209.5 322.601562 209.34375 322.21875 209.0625 321.9375 C 208.78125 321.65625 208.398438 321.5 208 321.5 C 207.601562 321.5 207.21875 321.65625 206.9375 321.9375 C 206.65625 322.21875 206.5 322.601562 206.5 323 C 206.5 323.398438 206.65625 323.78125 206.9375 324.0625 C 207.21875 324.34375 207.601562 324.5 208 324.5 C 208.398438 324.5 208.78125 324.34375 209.0625 324.0625 C 209.34375 323.78125 209.5 323.398438 209.5 323 Z M 209.5 323 "/>
<path style=" stroke:none;fill-rule:evenodd;fill:rgb(0%,0%,0%);fill-opacity:1;" d="M 209.5 294 C 209.5 293.601562 209.34375 293.21875 209.0625 292.9375 C 208.78125 292.65625 208.398438 292.5 208 292.5 C 207.601562 292.5 207.21875 292.65625 206.9375 292.9375 C 206.65625 293.21875 206.5 293.601562 206.5 294 C 206.5 294.398438 206.65625 294.78125 206.9375 295.0625 C 207.21875 295.34375 207.601562 295.5 208 295.5 C 208.398438 295.5 208.78125 295.34375 209.0625 295.0625 C 209.34375 294.78125 209.5 294.398438 209.5 294 Z M 209.5 294 "/>
<path style=" stroke:none;fill-rule:evenodd;fill:rgb(0%,0%,0%);fill-opacity:1;" d="M 209.5 265 C 209.5 264.601562 209.34375 264.21875 209.0625 263.9375 C 208.78125 263.65625 208.398438 263.5 208 263.5 C 207.601562 263.5 207.21875 263.65625 206.9375 263.9375 C 206.65625 264.21875 206.5 264.601562 206.5 265 C 206.5 265.398438 206.65625 265.78125 206.9375 266.0625 C 207.21875 266.34375 207.601562 266.5 208 266.5 C 208.398438 266.5 208.78125 266.34375 209.0625 266.0625 C 209.34375 265.78125 209.5 265.398438 209.5 265 Z M 209.5 265 "/>
<path style=" stroke:none;fill-rule:evenodd;fill:rgb(0%,0%,0%);fill-opacity:1;" d="M 209.5 237 C 209.5 236.601562 209.34375 236.21875 209.0625 235.9375 C 208.78125 235.65625 208.398438 235.5 208 235.5 C 207.601562 235.5 207.21875 235.65625 206.9375 235.9375 C 206.65625 236.21875 206.5 236.601562 206.5 237 C 206.5 237.398438 206.65625 237.78125 206.9375 238.0625 C 207.21875 238.34375 207.601562 238.5 208 238.5 C 208.398438 238.5 208.78125 238.34375 209.0625 238.0625 C 209.34375 237.78125 209.5 237.398438 209.5 237 Z M 209.5 237 "/>
<path style=" stroke:none;fill-rule:evenodd;fill:rgb(0%,0%,0%);fill-opacity:1;" d="M 209.5 208 C 209.5 207.601562 209.34375 207.21875 209.0625 206.9375 C 208.78125 206.65625 208.398438 206.5 208 206.5 C 207.601562 206.5 207.21875 206.65625 206.9375 206.9375 C 206.65625 207.21875 206.5 207.601562 206.5 208 C 206.5 208.398438 206.65625 208.78125 206.9375 209.0625 C 207.21875 209.34375 207.601562 209.5 208 209.5 C 208.398438 209.5 208.78125 209.34375 209.0625 209.0625 C 209.34375 208.78125 209.5 208.398438 209.5 208 Z M 209.5 208 "/>
<path style=" stroke:none;fill-rule:evenodd;fill:rgb(0%,0%,0%);fill-opacity:1;" d="M 209.5 179 C 209.5 178.601562 209.34375 178.21875 209.0625 177.9375 C 208.78125 177.65625 208.398438 177.5 208 177.5 C 207.601562 177.5 207.21875 177.65625 206.9375 177.9375 C 206.65625 178.21875 206.5 178.601562 206.5 179 C 206.5 179.398438 206.65625 179.78125 206.9375 180.0625 C 207.21875 180.34375 207.601562 180.5 208 180.5 C 208.398438 180.5 208.78125 180.34375 209.0625 180.0625 C 209.34375 179.78125 209.5 179.398438 209.5 179 Z M 209.5 179 "/>
<path style=" stroke:none;fill-rule:evenodd;fill:rgb(0%,0%,0%);fill-opacity:1;" d="M 209.5 150 C 209.5 149.601562 209.34375 149.21875 209.0625 148.9375 C 208.78125 148.65625 208.398438 148.5 208 148.5 C 207.601562 148.5 207.21875 148.65625 206.9375 148.9375 C 206.65625 149.21875 206.5 149.601562 206.5 150 C 206.5 150.398438 206.65625 150.78125 206.9375 151.0625 C 207.21875 151.34375 207.601562 151.5 208 151.5 C 208.398438 151.5 208.78125 151.34375 209.0625 151.0625 C 209.34375 150.78125 209.5 150.398438 209.5 150 Z M 209.5 150 "/>
<path style=" stroke:none;fill-rule:evenodd;fill:rgb(0%,0%,0%);fill-opacity:1;" d="M 209.5 122 C 209.5 121.601562 209.34375 121.21875 209.0625 120.9375 C 208.78125 120.65625 208.398438 120.5 208 120.5 C 207.601562 120.5 207.21875 120.65625 206.9375 120.9375 C 206.65625 121.21875 206.5 121.601562 206.5 122 C 206.5 122.398438 206.65625 122.78125 206.9375 123.0625 C 207.21875 123.34375 207.601562 123.5 208 123.5 C 208.398438 123.5 208.78125 123.34375 209.0625 123.0625 C 209.34375 122.78125 209.5 122.398438 209.5 122 Z M 209.5 122 "/>
<path style=" stroke:none;fill-rule:evenodd;fill:rgb(0%,0%,0%);fill-opacity:1;" d="M 209.5 93 C 209.5 92.601562 209.34375 92.21875 209.0625 91.9375 C 208.78125 91.65625 208.398438 91.5 208 91.5 C 207.601562 91.5 207.21875 91.65625 206.9375 91.9375 C 206.65625 92.21875 206.5 92.601562 206.5 93 C 206.5 93.398438 206.65625 93.78125 206.9375 94.0625 C 207.21875 94.34375 207.601562 94.5 208 94.5 C 208.398438 94.5 208.78125 94.34375 209.0625 94.0625 C 209.34375 93.78125 209.5 93.398438 209.5 93 Z M 209.5 93 "/>
<path style=" stroke:none;fill-rule:evenodd;fill:rgb(0%,0%,0%);fill-opacity:1;" d="M 209.5 64 C 209.5 63.601562 209.34375 63.21875 209.0625 62.9375 C 208.78125 62.65625 208.398438 62.5 208 62.5 C 207.601562 62.5 207.21875 62.65625 206.9375 62.9375 C 206.65625 63.21875 206.5 63.601562 206.5 64 C 206.5 64.398438 206.65625 64.78125 206.9375 65.0625 C 207.21875 65.34375 207.601562 65.5 208 65.5 C 208.398438 65.5 208.78125 65.34375 209.0625 65.0625 C 209.34375 64.78125 209.5 64.398438 209.5 64 Z M 209.5 64 "/>
<path style=" stroke:none;fill-rule:evenodd;fill:rgb(0%,0%,0%);fill-opacity:1;" d="M 209.5 36 C 209.5 35.601562 209.34375 35.21875 209.0625 34.9375 C 208.78125 34.65625 208.398438 34.5 208 34.5 C 207.601562 34.5 207.21875 34.65625 206.9375 34.9375 C 206.65625 35.21875 206.5 35.601562 206.5 36 C 206.5 36.398438 206.65625 36.78125 206.9375 37.0625 C 207.21875 37.34375 207.601562 37.5 208 37.5 C 208.398438 37.5 208.78125 37.34375 209.0625 37.0625 C 209.34375 36.78125 209.5 36.398438 209.5 36 Z M 209.5 36 "/>
<path style=" stroke:none;fill-rule:evenodd;fill:rgb(0%,0%,0%);fill-opacity:1;" d="M 209.5 7 C 209.5 6.601562 209.34375 6.21875 209.0625 5.9375 C 208.78125 5.65625 208.398438 5.5 208 5.5 C 207.601562 5.5 207.21875 5.65625 206.9375 5.9375 C 206.65625 6.21875 206.5 6.601562 206.5 7 C 206.5 7.398438 206.65625 7.78125 206.9375 8.0625 C 207.21875 8.34375 207.601562 8.5 208 8.5 C 208.398438 8.5 208.78125 8.34375 209.0625 8.0625 C 209.34375 7.78125 209.5 7.398438 209.5 7 Z M 209.5 7 "/>
<path style=" stroke:none;fill-rule:evenodd;fill:rgb(0%,0%,0%);fill-opacity:1;" d="M 238.5 352 C 238.5 351.601562 238.34375 351.21875 238.0625 350.9375 C 237.78125 350.65625 237.398438 350.5 237 350.5 C 236.601562 350.5 236.21875 350.65625 235.9375 350.9375 C 235.65625 351.21875 235.5 351.601562 235.5 352 C 235.5 352.398438 235.65625 352.78125 235.9375 353.0625 C 236.21875 353.34375 236.601562 353.5 237 353.5 C 237.398438 353.5 237.78125 353.34375 238.0625 353.0625 C 238.34375 352.78125 238.5 352.398438 238.5 352 Z M 238.5 352 "/>
<path style=" stroke:none;fill-rule:evenodd;fill:rgb(0%,0%,0%);fill-opacity:1;" d="M 238.5 323 C 238.5 322.601562 238.34375 322.21875 238.0625 321.9375 C 237.78125 321.65625 237.398438 321.5 237 321.5 C 236.601562 321.5 236.21875 321.65625 235.9375 321.9375 C 235.65625 322.21875 235.5 322.601562 235.5 323 C 235.5 323.398438 235.65625 323.78125 235.9375 324.0625 C 236.21875 324.34375 236.601562 324.5 237 324.5 C 237.398438 324.5 237.78125 324.34375 238.0625 324.0625 C 238.34375 323.78125 238.5 323.398438 238.5 323 Z M 238.5 323 "/>
<path style=" stroke:none;fill-rule:evenodd;fill:rgb(0%,0%,0%);fill-opacity:1;" d="M 238.5 294 C 238.5 293.601562 238.34375 293.21875 238.0625 292.9375 C 237.78125 292.65625 237.398438 292.5 237 292.5 C 236.601562 292.5 236.21875 292.65625 235.9375 292.9375 C 235.65625 293.21875 235.5 293.601562 235.5 294 C 235.5 294.398438 235.65625 294.78125 235.9375 295.0625 C 236.21875 295.34375 236.601562 295.5 237 295.5 C 237.398438 295.5 237.78125 295.34375 238.0625 295.0625 C 238.34375 294.78125 238.5 294.398438 238.5 294 Z M 238.5 294 "/>
<path style=" stroke:none;fill-rule:evenodd;fill:rgb(0%,0%,0%);fill-opacity:1;" d="M 238.5 265 C 238.5 264.601562 238.34375 264.21875 238.0625 263.9375 C 237.78125 263.65625 237.398438 263.5 237 263.5 C 236.601562 263.5 236.21875 263.65625 235.9375 263.9375 C 235.65625 264.21875 235.5 264.601562 235.5 265 C 235.5 265.398438 235.65625 265.78125 235.9375 266.0625 C 236.21875 266.34375 236.601562 266.5 237 266.5 C 237.398438 266.5 237.78125 266.34375 238.0625 266.0625 C 238.34375 265.78125 238.5 265.398438 238.5 265 Z M 238.5 265 "/>
<path style=" stroke:none;fill-rule:evenodd;fill:rgb(0%,0%,0%);fill-opacity:1;" d="M 238.5 237 C 238.5 236.601562 238.34375 236.21875 238.0625 235.9375 C 237.78125 235.65625 237.398438 235.5 237 235.5 C 236.601562 235.5 236.21875 235.65625 235.9375 235.9375 C 235.65625 236.21875 235.5 236.601562 235.5 237 C 235.5 237.398438 235.65625 237.78125 235.9375 238.0625 C 236.21875 238.34375 236.601562 238.5 237 238.5 C 237.398438 238.5 237.78125 238.34375 238.0625 238.0625 C 238.34375 237.78125 238.5 237.398438 238.5 237 Z M 238.5 237 "/>
<path style=" stroke:none;fill-rule:evenodd;fill:rgb(0%,0%,0%);fill-opacity:1;" d="M 238.5 208 C 238.5 207.601562 238.34375 207.21875 238.0625 206.9375 C 237.78125 206.65625 237.398438 206.5 237 206.5 C 236.601562 206.5 236.21875 206.65625 235.9375 206.9375 C 235.65625 207.21875 235.5 207.601562 235.5 208 C 235.5 208.398438 235.65625 208.78125 235.9375 209.0625 C 236.21875 209.34375 236.601562 209.5 237 209.5 C 237.398438 209.5 237.78125 209.34375 238.0625 209.0625 C 238.34375 208.78125 238.5 208.398438 238.5 208 Z M 238.5 208 "/>
<path style=" stroke:none;fill-rule:evenodd;fill:rgb(0%,0%,0%);fill-opacity:1;" d="M 238.5 179 C 238.5 178.601562 238.34375 178.21875 238.0625 177.9375 C 237.78125 177.65625 237.398438 177.5 237 177.5 C 236.601562 177.5 236.21875 177.65625 235.9375 177.9375 C 235.65625 178.21875 235.5 178.601562 235.5 179 C 235.5 179.398438 235.65625 179.78125 235.9375 180.0625 C 236.21875 180.34375 236.601562 180.5 237 180.5 C 237.398438 180.5 237.78125 180.34375 238.0625 180.0625 C 238.34375 179.78125 238.5 179.398438 238.5 179 Z M 238.5 179 "/>
<path style=" stroke:none;fill-rule:evenodd;fill:rgb(0%,0%,0%);fill-opacity:1;" d="M 238.5 150 C 238.5 149.601562 238.34375 149.21875 238.0625 148.9375 C 237.78125 148.65625 237.398438 148.5 237 148.5 C 236.601562 148.5 236.21875 148.65625 235.9375 148.9375 C 235.65625 149.21875 235.5 149.601562 235.5 150 C 235.5 150.398438 235.65625 150.78125 235.9375 151.0625 C 236.21875 151.34375 236.601562 151.5 237 151.5 C 237.398438 151.5 237.78125 151.34375 238.0625 151.0625 C 238.34375 150.78125 238.5 150.398438 238.5 150 Z M 238.5 150 "/>
<path style=" stroke:none;fill-rule:evenodd;fill:rgb(0%,0%,0%);fill-opacity:1;" d="M 238.5 122 C 238.5 121.601562 238.34375 121.21875 238.0625 120.9375 C 237.78125 120.65625 237.398438 120.5 237 120.5 C 236.601562 120.5 236.21875 120.65625 235.9375 120.9375 C 235.65625 121.21875 235.5 121.601562 235.5 122 C 235.5 122.398438 235.65625 122.78125 235.9375 123.0625 C 236.21875 123.34375 236.601562 123.5 237 123.5 C 237.398438 123.5 237.78125 123.34375 238.0625 123.0625 C 238.34375 122.78125 238.5 122.398438 238.5 122 Z M 238.5 122 "/>
<path style=" stroke:none;fill-rule:evenodd;fill:rgb(0%,0%,0%);fill-opacity:1;" d="M 238.5 93 C 238.5 92.601562 238.34375 92.21875 238.0625 91.9375 C 237.78125 91.65625 237.398438 91.5 237 91.5 C 236.601562 91.5 236.21875 91.65625 235.9375 91.9375 C 235.65625 92.21875 235.5 92.601562 235.5 93 C 235.5 93.398438 235.65625 93.78125 235.9375 94.0625 C 236.21875 94.34375 236.601562 94.5 237 94.5 C 237.398438 94.5 237.78125 94.34375 238.0625 94.0625 C 238.34375 93.78125 238.5 93.398438 238.5 93 Z M 238.5 93 "/>
<path style=" stroke:none;fill-rule:evenodd;fill:rgb(0%,0%,0%);fill-opacity:1;" d="M 238.5 64 C 238.5 63.601562 238.34375 63.21875 238.0625 62.9375 C 237.78125 62.65625 237.398438 62.5 237 62.5 C 236.601562 62.5 236.21875 62.65625 235.9375 62.9375 C 235.65625 63.21875 235.5 63.601562 235.5 64 C 235.5 64.398438 235.65625 64.78125 235.9375 65.0625 C 236.21875 65.34375 236.601562 65.5 237 65.5 C 237.398438 65.5 237.78125 65.34375 238.0625 65.0625 C 238.34375 64.78125 238.5 64.398438 238.5 64 Z M 238.5 64 "/>
<path style=" stroke:none;fill-rule:evenodd;fill:rgb(0%,0%,0%);fill-opacity:1;" d="M 238.5 36 C 238.5 35.601562 238.34375 35.21875 238.0625 34.9375 C 237.78125 34.65625 237.398438 34.5 237 34.5 C 236.601562 34.5 236.21875 34.65625 235.9375 34.9375 C 235.65625 35.21875 235.5 35.601562 235.5 36 C 235.5 36.398438 235.65625 36.78125 235.9375 37.0625 C 236.21875 37.34375 236.601562 37.5 237 37.5 C 237.398438 37.5 237.78125 37.34375 238.0625 37.0625 C 238.34375 36.78125 238.5 36.398438 238.5 36 Z M 238.5 36 "/>
<path style=" stroke:none;fill-rule:evenodd;fill:rgb(0%,0%,0%);fill-opacity:1;" d="M 238.5 7 C 238.5 6.601562 238.34375 6.21875 238.0625 5.9375 C 237.78125 5.65625 237.398438 5.5 237 5.5 C 236.601562 5.5 236.21875 5.65625 235.9375 5.9375 C 235.65625 6.21875 235.5 6.601562 235.5 7 C 235.5 7.398438 235.65625 7.78125 235.9375 8.0625 C 236.21875 8.34375 236.601562 8.5 237 8.5 C 237.398438 8.5 237.78125 8.34375 238.0625 8.0625 C 238.34375 7.78125 238.5 7.398438 238.5 7 Z M 238.5 7 "/>
<path style=" stroke:none;fill-rule:evenodd;fill:rgb(0%,0%,0%);fill-opacity:1;" d="M 267.5 352 C 267.5 351.601562 267.34375 351.21875 267.0625 350.9375 C 266.78125 350.65625 266.398438 350.5 266 350.5 C 265.601562 350.5 265.21875 350.65625 264.9375 350.9375 C 264.65625 351.21875 264.5 351.601562 264.5 352 C 264.5 352.398438 264.65625 352.78125 264.9375 353.0625 C 265.21875 353.34375 265.601562 353.5 266 353.5 C 266.398438 353.5 266.78125 353.34375 267.0625 353.0625 C 267.34375 352.78125 267.5 352.398438 267.5 352 Z M 267.5 352 "/>
<path style=" stroke:none;fill-rule:evenodd;fill:rgb(0%,0%,0%);fill-opacity:1;" d="M 267.5 323 C 267.5 322.601562 267.34375 322.21875 267.0625 321.9375 C 266.78125 321.65625 266.398438 321.5 266 321.5 C 265.601562 321.5 265.21875 321.65625 264.9375 321.9375 C 264.65625 322.21875 264.5 322.601562 264.5 323 C 264.5 323.398438 264.65625 323.78125 264.9375 324.0625 C 265.21875 324.34375 265.601562 324.5 266 324.5 C 266.398438 324.5 266.78125 324.34375 267.0625 324.0625 C 267.34375 323.78125 267.5 323.398438 267.5 323 Z M 267.5 323 "/>
<path style=" stroke:none;fill-rule:evenodd;fill:rgb(0%,0%,0%);fill-opacity:1;" d="M 267.5 294 C 267.5 293.601562 267.34375 293.21875 267.0625 292.9375 C 266.78125 292.65625 266.398438 292.5 266 292.5 C 265.601562 292.5 265.21875 292.65625 264.9375 292.9375 C 264.65625 293.21875 264.5 293.601562 264.5 294 C 264.5 294.398438 264.65625 294.78125 264.9375 295.0625 C 265.21875 295.34375 265.601562 295.5 266 295.5 C 266.398438 295.5 266.78125 295.34375 267.0625 295.0625 C 267.34375 294.78125 267.5 294.398438 267.5 294 Z M 267.5 294 "/>
<path style=" stroke:none;fill-rule:evenodd;fill:rgb(0%,0%,0%);fill-opacity:1;" d="M 267.5 265 C 267.5 264.601562 267.34375 264.21875 267.0625 263.9375 C 266.78125 263.65625 266.398438 263.5 266 263.5 C 265.601562 263.5 265.21875 263.65625 264.9375 263.9375 C 264.65625 264.21875 264.5 264.601562 264.5 265 C 264.5 265.398438 264.65625 265.78125 264.9375 266.0625 C 265.21875 266.34375 265.601562 266.5 266 266.5 C 266.398438 266.5 266.78125 266.34375 267.0625 266.0625 C 267.34375 265.78125 267.5 265.398438 267.5 265 Z M 267.5 265 "/>
<path style=" stroke:none;fill-rule:evenodd;fill:rgb(0%,0%,0%);fill-opacity:1;" d="M 267.5 237 C 267.5 236.601562 267.34375 236.21875 267.0625 235.9375 C 266.78125 235.65625 266.398438 235.5 266 235.5 C 265.601562 235.5 265.21875 235.65625 264.9375 235.9375 C 264.65625 236.21875 264.5 236.601562 264.5 237 C 264.5 237.398438 264.65625 237.78125 264.9375 238.0625 C 265.21875 238.34375 265.601562 238.5 266 238.5 C 266.398438 238.5 266.78125 238.34375 267.0625 238.0625 C 267.34375 237.78125 267.5 237.398438 267.5 237 Z M 267.5 237 "/>
<path style=" stroke:none;fill-rule:evenodd;fill:rgb(0%,0%,0%);fill-opacity:1;" d="M 267.5 208 C 267.5 207.601562 267.34375 207.21875 267.0625 206.9375 C 266.78125 206.65625 266.398438 206.5 266 206.5 C 265.601562 206.5 265.21875 206.65625 264.9375 206.9375 C 264.65625 207.21875 264.5 207.601562 264.5 208 C 264.5 208.398438 264.65625 208.78125 264.9375 209.0625 C 265.21875 209.34375 265.601562 209.5 266 209.5 C 266.398438 209.5 266.78125 209.34375 267.0625 209.0625 C 267.34375 208.78125 267.5 208.398438 267.5 208 Z M 267.5 208 "/>
<path style=" stroke:none;fill-rule:evenodd;fill:rgb(0%,0%,0%);fill-opacity:1;" d="M 267.5 179 C 267.5 178.601562 267.34375 178.21875 267.0625 177.9375 C 266.78125 177.65625 266.398438 177.5 266 177.5 C 265.601562 177.5 265.21875 177.65625 264.9375 177.9375 C 264.65625 178.21875 264.5 178.601562 264.5 179 C 264.5 179.398438 264.65625 179.78125 264.9375 180.0625 C 265.21875 180.34375 265.601562 180.5 266 180.5 C 266.398438 180.5 266.78125 180.34375 267.0625 180.0625 C 267.34375 179.78125 267.5 179.398438 267.5 179 Z M 267.5 179 "/>
<path style=" stroke:none;fill-rule:evenodd;fill:rgb(0%,0%,0%);fill-opacity:1;" d="M 267.5 150 C 267.5 149.601562 267.34375 149.21875 267.0625 148.9375 C 266.78125 148.65625 266.398438 148.5 266 148.5 C 265.601562 148.5 265.21875 148.65625 264.9375 148.9375 C 264.65625 149.21875 264.5 149.601562 264.5 150 C 264.5 150.398438 264.65625 150.78125 264.9375 151.0625 C 265.21875 151.34375 265.601562 151.5 266 151.5 C 266.398438 151.5 266.78125 151.34375 267.0625 151.0625 C 267.34375 150.78125 267.5 150.398438 267.5 150 Z M 267.5 150 "/>
<path style=" stroke:none;fill-rule:evenodd;fill:rgb(0%,0%,0%);fill-opacity:1;" d="M 267.5 122 C 267.5 121.601562 267.34375 121.21875 267.0625 120.9375 C 266.78125 120.65625 266.398438 120.5 266 120.5 C 265.601562 120.5 265.21875 120.65625 264.9375 120.9375 C 264.65625 121.21875 264.5 121.601562 264.5 122 C 264.5 122.398438 264.65625 122.78125 264.9375 123.0625 C 265.21875 123.34375 265.601562 123.5 266 123.5 C 266.398438 123.5 266.78125 123.34375 267.0625 123.0625 C 267.34375 122.78125 267.5 122.398438 267.5 122 Z M 267.5 122 "/>
<path style=" stroke:none;fill-rule:evenodd;fill:rgb(0%,0%,0%);fill-opacity:1;" d="M 267.5 93 C 267.5 92.601562 267.34375 92.21875 267.0625 91.9375 C 266.78125 91.65625 266.398438 91.5 266 91.5 C 265.601562 91.5 265.21875 91.65625 264.9375 91.9375 C 264.65625 92.21875 264.5 92.601562 264.5 93 C 264.5 93.398438 264.65625 93.78125 264.9375 94.0625 C 265.21875 94.34375 265.601562 94.5 266 94.5 C 266.398438 94.5 266.78125 94.34375 267.0625 94.0625 C 267.34375 93.78125 267.5 93.398438 267.5 93 Z M 267.5 93 "/>
<path style=" stroke:none;fill-rule:evenodd;fill:rgb(0%,0%,0%);fill-opacity:1;" d="M 267.5 64 C 267.5 63.601562 267.34375 63.21875 267.0625 62.9375 C 266.78125 62.65625 266.398438 62.5 266 62.5 C 265.601562 62.5 265.21875 62.65625 264.9375 62.9375 C 264.65625 63.21875 264.5 63.601562 264.5 64 C 264.5 64.398438 264.65625 64.78125 264.9375 65.0625 C 265.21875 65.34375 265.601562 65.5 266 65.5 C 266.398438 65.5 266.78125 65.34375 267.0625 65.0625 C 267.34375 64.78125 267.5 64.398438 267.5 64 Z M 267.5 64 "/>
<path style=" stroke:none;fill-rule:evenodd;fill:rgb(0%,0%,0%);fill-opacity:1;" d="M 267.5 36 C 267.5 35.601562 267.34375 35.21875 267.0625 34.9375 C 266.78125 34.65625 266.398438 34.5 266 34.5 C 265.601562 34.5 265.21875 34.65625 264.9375 34.9375 C 264.65625 35.21875 264.5 35.601562 264.5 36 C 264.5 36.398438 264.65625 36.78125 264.9375 37.0625 C 265.21875 37.34375 265.601562 37.5 266 37.5 C 266.398438 37.5 266.78125 37.34375 267.0625 37.0625 C 267.34375 36.78125 267.5 36.398438 267.5 36 Z M 267.5 36 "/>
<path style=" stroke:none;fill-rule:evenodd;fill:rgb(0%,0%,0%);fill-opacity:1;" d="M 267.5 7 C 267.5 6.601562 267.34375 6.21875 267.0625 5.9375 C 266.78125 5.65625 266.398438 5.5 266 5.5 C 265.601562 5.5 265.21875 5.65625 264.9375 5.9375 C 264.65625 6.21875 264.5 6.601562 264.5 7 C 264.5 7.398438 264.65625 7.78125 264.9375 8.0625 C 265.21875 8.34375 265.601562 8.5 266 8.5 C 266.398438 8.5 266.78125 8.34375 267.0625 8.0625 C 267.34375 7.78125 267.5 7.398438 267.5 7 Z M 267.5 7 "/>
<path style=" stroke:none;fill-rule:evenodd;fill:rgb(0%,0%,0%);fill-opacity:1;" d="M 295.5 352 C 295.5 351.601562 295.34375 351.21875 295.0625 350.9375 C 294.78125 350.65625 294.398438 350.5 294 350.5 C 293.601562 350.5 293.21875 350.65625 292.9375 350.9375 C 292.65625 351.21875 292.5 351.601562 292.5 352 C 292.5 352.398438 292.65625 352.78125 292.9375 353.0625 C 293.21875 353.34375 293.601562 353.5 294 353.5 C 294.398438 353.5 294.78125 353.34375 295.0625 353.0625 C 295.34375 352.78125 295.5 352.398438 295.5 352 Z M 295.5 352 "/>
<path style=" stroke:none;fill-rule:evenodd;fill:rgb(0%,0%,0%);fill-opacity:1;" d="M 295.5 323 C 295.5 322.601562 295.34375 322.21875 295.0625 321.9375 C 294.78125 321.65625 294.398438 321.5 294 321.5 C 293.601562 321.5 293.21875 321.65625 292.9375 321.9375 C 292.65625 322.21875 292.5 322.601562 292.5 323 C 292.5 323.398438 292.65625 323.78125 292.9375 324.0625 C 293.21875 324.34375 293.601562 324.5 294 324.5 C 294.398438 324.5 294.78125 324.34375 295.0625 324.0625 C 295.34375 323.78125 295.5 323.398438 295.5 323 Z M 295.5 323 "/>
<path style=" stroke:none;fill-rule:evenodd;fill:rgb(0%,0%,0%);fill-opacity:1;" d="M 295.5 294 C 295.5 293.601562 295.34375 293.21875 295.0625 292.9375 C 294.78125 292.65625 294.398438 292.5 294 292.5 C 293.601562 292.5 293.21875 292.65625 292.9375 292.9375 C 292.65625 293.21875 292.5 293.601562 292.5 294 C 292.5 294.398438 292.65625 294.78125 292.9375 295.0625 C 293.21875 295.34375 293.601562 295.5 294 295.5 C 294.398438 295.5 294.78125 295.34375 295.0625 295.0625 C 295.34375 294.78125 295.5 294.398438 295.5 294 Z M 295.5 294 "/>
<path style=" stroke:none;fill-rule:evenodd;fill:rgb(0%,0%,0%);fill-opacity:1;" d="M 295.5 265 C 295.5 264.601562 295.34375 264.21875 295.0625 263.9375 C 294.78125 263.65625 294.398438 263.5 294 263.5 C 293.601562 263.5 293.21875 263.65625 292.9375 263.9375 C 292.65625 264.21875 292.5 264.601562 292.5 265 C 292.5 265.398438 292.65625 265.78125 292.9375 266.0625 C 293.21875 266.34375 293.601562 266.5 294 266.5 C 294.398438 266.5 294.78125 266.34375 295.0625 266.0625 C 295.34375 265.78125 295.5 265.398438 295.5 265 Z M 295.5 265 "/>
<path style=" stroke:none;fill-rule:evenodd;fill:rgb(0%,0%,0%);fill-opacity:1;" d="M 295.5 237 C 295.5 236.601562 295.34375 236.21875 295.0625 235.9375 C 294.78125 235.65625 294.398438 235.5 294 235.5 C 293.601562 235.5 293.21875 235.65625 292.9375 235.9375 C 292.65625 236.21875 292.5 236.601562 292.5 237 C 292.5 237.398438 292.65625 237.78125 292.9375 238.0625 C 293.21875 238.34375 293.601562 238.5 294 238.5 C 294.398438 238.5 294.78125 238.34375 295.0625 238.0625 C 295.34375 237.78125 295.5 237.398438 295.5 237 Z M 295.5 237 "/>
<path style=" stroke:none;fill-rule:evenodd;fill:rgb(0%,0%,0%);fill-opacity:1;" d="M 295.5 208 C 295.5 207.601562 295.34375 207.21875 295.0625 206.9375 C 294.78125 206.65625 294.398438 206.5 294 206.5 C 293.601562 206.5 293.21875 206.65625 292.9375 206.9375 C 292.65625 207.21875 292.5 207.601562 292.5 208 C 292.5 208.398438 292.65625 208.78125 292.9375 209.0625 C 293.21875 209.34375 293.601562 209.5 294 209.5 C 294.398438 209.5 294.78125 209.34375 295.0625 209.0625 C 295.34375 208.78125 295.5 208.398438 295.5 208 Z M 295.5 208 "/>
<path style=" stroke:none;fill-rule:evenodd;fill:rgb(0%,0%,0%);fill-opacity:1;" d="M 295.5 179 C 295.5 178.601562 295.34375 178.21875 295.0625 177.9375 C 294.78125 177.65625 294.398438 177.5 294 177.5 C 293.601562 177.5 293.21875 177.65625 292.9375 177.9375 C 292.65625 178.21875 292.5 178.601562 292.5 179 C 292.5 179.398438 292.65625 179.78125 292.9375 180.0625 C 293.21875 180.34375 293.601562 180.5 294 180.5 C 294.398438 180.5 294.78125 180.34375 295.0625 180.0625 C 295.34375 179.78125 295.5 179.398438 295.5 179 Z M 295.5 179 "/>
<path style=" stroke:none;fill-rule:evenodd;fill:rgb(0%,0%,0%);fill-opacity:1;" d="M 295.5 150 C 295.5 149.601562 295.34375 149.21875 295.0625 148.9375 C 294.78125 148.65625 294.398438 148.5 294 148.5 C 293.601562 148.5 293.21875 148.65625 292.9375 148.9375 C 292.65625 149.21875 292.5 149.601562 292.5 150 C 292.5 150.398438 292.65625 150.78125 292.9375 151.0625 C 293.21875 151.34375 293.601562 151.5 294 151.5 C 294.398438 151.5 294.78125 151.34375 295.0625 151.0625 C 295.34375 150.78125 295.5 150.398438 295.5 150 Z M 295.5 150 "/>
<path style=" stroke:none;fill-rule:evenodd;fill:rgb(0%,0%,0%);fill-opacity:1;" d="M 295.5 122 C 295.5 121.601562 295.34375 121.21875 295.0625 120.9375 C 294.78125 120.65625 294.398438 120.5 294 120.5 C 293.601562 120.5 293.21875 120.65625 292.9375 120.9375 C 292.65625 121.21875 292.5 121.601562 292.5 122 C 292.5 122.398438 292.65625 122.78125 292.9375 123.0625 C 293.21875 123.34375 293.601562 123.5 294 123.5 C 294.398438 123.5 294.78125 123.34375 295.0625 123.0625 C 295.34375 122.78125 295.5 122.398438 295.5 122 Z M 295.5 122 "/>
<path style=" stroke:none;fill-rule:evenodd;fill:rgb(0%,0%,0%);fill-opacity:1;" d="M 295.5 93 C 295.5 92.601562 295.34375 92.21875 295.0625 91.9375 C 294.78125 91.65625 294.398438 91.5 294 91.5 C 293.601562 91.5 293.21875 91.65625 292.9375 91.9375 C 292.65625 92.21875 292.5 92.601562 292.5 93 C 292.5 93.398438 292.65625 93.78125 292.9375 94.0625 C 293.21875 94.34375 293.601562 94.5 294 94.5 C 294.398438 94.5 294.78125 94.34375 295.0625 94.0625 C 295.34375 93.78125 295.5 93.398438 295.5 93 Z M 295.5 93 "/>
<path style=" stroke:none;fill-rule:evenodd;fill:rgb(0%,0%,0%);fill-opacity:1;" d="M 295.5 64 C 295.5 63.601562 295.34375 63.21875 295.0625 62.9375 C 294.78125 62.65625 294.398438 62.5 294 62.5 C 293.601562 62.5 293.21875 62.65625 292.9375 62.9375 C 292.65625 63.21875 292.5 63.601562 292.5 64 C 292.5 64.398438 292.65625 64.78125 292.9375 65.0625 C 293.21875 65.34375 293.601562 65.5 294 65.5 C 294.398438 65.5 294.78125 65.34375 295.0625 65.0625 C 295.34375 64.78125 295.5 64.398438 295.5 64 Z M 295.5 64 "/>
<path style=" stroke:none;fill-rule:evenodd;fill:rgb(0%,0%,0%);fill-opacity:1;" d="M 295.5 36 C 295.5 35.601562 295.34375 35.21875 295.0625 34.9375 C 294.78125 34.65625 294.398438 34.5 294 34.5 C 293.601562 34.5 293.21875 34.65625 292.9375 34.9375 C 292.65625 35.21875 292.5 35.601562 292.5 36 C 292.5 36.398438 292.65625 36.78125 292.9375 37.0625 C 293.21875 37.34375 293.601562 37.5 294 37.5 C 294.398438 37.5 294.78125 37.34375 295.0625 37.0625 C 295.34375 36.78125 295.5 36.398438 295.5 36 Z M 295.5 36 "/>
<path style=" stroke:none;fill-rule:evenodd;fill:rgb(0%,0%,0%);fill-opacity:1;" d="M 295.5 7 C 295.5 6.601562 295.34375 6.21875 295.0625 5.9375 C 294.78125 5.65625 294.398438 5.5 294 5.5 C 293.601562 5.5 293.21875 5.65625 292.9375 5.9375 C 292.65625 6.21875 292.5 6.601562 292.5 7 C 292.5 7.398438 292.65625 7.78125 292.9375 8.0625 C 293.21875 8.34375 293.601562 8.5 294 8.5 C 294.398438 8.5 294.78125 8.34375 295.0625 8.0625 C 295.34375 7.78125 295.5 7.398438 295.5 7 Z M 295.5 7 "/>
<path style=" stroke:none;fill-rule:evenodd;fill:rgb(0%,0%,0%);fill-opacity:1;" d="M 324.5 352 C 324.5 351.601562 324.34375 351.21875 324.0625 350.9375 C 323.78125 350.65625 323.398438 350.5 323 350.5 C 322.601562 350.5 322.21875 350.65625 321.9375 350.9375 C 321.65625 351.21875 321.5 351.601562 321.5 352 C 321.5 352.398438 321.65625 352.78125 321.9375 353.0625 C 322.21875 353.34375 322.601562 353.5 323 353.5 C 323.398438 353.5 323.78125 353.34375 324.0625 353.0625 C 324.34375 352.78125 324.5 352.398438 324.5 352 Z M 324.5 352 "/>
<path style=" stroke:none;fill-rule:evenodd;fill:rgb(0%,0%,0%);fill-opacity:1;" d="M 324.5 323 C 324.5 322.601562 324.34375 322.21875 324.0625 321.9375 C 323.78125 321.65625 323.398438 321.5 323 321.5 C 322.601562 321.5 322.21875 321.65625 321.9375 321.9375 C 321.65625 322.21875 321.5 322.601562 321.5 323 C 321.5 323.398438 321.65625 323.78125 321.9375 324.0625 C 322.21875 324.34375 322.601562 324.5 323 324.5 C 323.398438 324.5 323.78125 324.34375 324.0625 324.0625 C 324.34375 323.78125 324.5 323.398438 324.5 323 Z M 324.5 323 "/>
<path style=" stroke:none;fill-rule:evenodd;fill:rgb(0%,0%,0%);fill-opacity:1;" d="M 324.5 294 C 324.5 293.601562 324.34375 293.21875 324.0625 292.9375 C 323.78125 292.65625 323.398438 292.5 323 292.5 C 322.601562 292.5 322.21875 292.65625 321.9375 292.9375 C 321.65625 293.21875 321.5 293.601562 321.5 294 C 321.5 294.398438 321.65625 294.78125 321.9375 295.0625 C 322.21875 295.34375 322.601562 295.5 323 295.5 C 323.398438 295.5 323.78125 295.34375 324.0625 295.0625 C 324.34375 294.78125 324.5 294.398438 324.5 294 Z M 324.5 294 "/>
<path style=" stroke:none;fill-rule:evenodd;fill:rgb(0%,0%,0%);fill-opacity:1;" d="M 324.5 265 C 324.5 264.601562 324.34375 264.21875 324.0625 263.9375 C 323.78125 263.65625 323.398438 263.5 323 263.5 C 322.601562 263.5 322.21875 263.65625 321.9375 263.9375 C 321.65625 264.21875 321.5 264.601562 321.5 265 C 321.5 265.398438 321.65625 265.78125 321.9375 266.0625 C 322.21875 266.34375 322.601562 266.5 323 266.5 C 323.398438 266.5 323.78125 266.34375 324.0625 266.0625 C 324.34375 265.78125 324.5 265.398438 324.5 265 Z M 324.5 265 "/>
<path style=" stroke:none;fill-rule:evenodd;fill:rgb(0%,0%,0%);fill-opacity:1;" d="M 324.5 237 C 324.5 236.601562 324.34375 236.21875 324.0625 235.9375 C 323.78125 235.65625 323.398438 235.5 323 235.5 C 322.601562 235.5 322.21875 235.65625 321.9375 235.9375 C 321.65625 236.21875 321.5 236.601562 321.5 237 C 321.5 237.398438 321.65625 237.78125 321.9375 238.0625 C 322.21875 238.34375 322.601562 238.5 323 238.5 C 323.398438 238.5 323.78125 238.34375 324.0625 238.0625 C 324.34375 237.78125 324.5 237.398438 324.5 237 Z M 324.5 237 "/>
<path style=" stroke:none;fill-rule:evenodd;fill:rgb(0%,0%,0%);fill-opacity:1;" d="M 324.5 208 C 324.5 207.601562 324.34375 207.21875 324.0625 206.9375 C 323.78125 206.65625 323.398438 206.5 323 206.5 C 322.601562 206.5 322.21875 206.65625 321.9375 206.9375 C 321.65625 207.21875 321.5 207.601562 321.5 208 C 321.5 208.398438 321.65625 208.78125 321.9375 209.0625 C 322.21875 209.34375 322.601562 209.5 323 209.5 C 323.398438 209.5 323.78125 209.34375 324.0625 209.0625 C 324.34375 208.78125 324.5 208.398438 324.5 208 Z M 324.5 208 "/>
<path style=" stroke:none;fill-rule:evenodd;fill:rgb(0%,0%,0%);fill-opacity:1;" d="M 324.5 179 C 324.5 178.601562 324.34375 178.21875 324.0625 177.9375 C 323.78125 177.65625 323.398438 177.5 323 177.5 C 322.601562 177.5 322.21875 177.65625 321.9375 177.9375 C 321.65625 178.21875 321.5 178.601562 321.5 179 C 321.5 179.398438 321.65625 179.78125 321.9375 180.0625 C 322.21875 180.34375 322.601562 180.5 323 180.5 C 323.398438 180.5 323.78125 180.34375 324.0625 180.0625 C 324.34375 179.78125 324.5 179.398438 324.5 179 Z M 324.5 179 "/>
<path style=" stroke:none;fill-rule:evenodd;fill:rgb(0%,0%,0%);fill-opacity:1;" d="M 324.5 150 C 324.5 149.601562 324.34375 149.21875 324.0625 148.9375 C 323.78125 148.65625 323.398438 148.5 323 148.5 C 322.601562 148.5 322.21875 148.65625 321.9375 148.9375 C 321.65625 149.21875 321.5 149.601562 321.5 150 C 321.5 150.398438 321.65625 150.78125 321.9375 151.0625 C 322.21875 151.34375 322.601562 151.5 323 151.5 C 323.398438 151.5 323.78125 151.34375 324.0625 151.0625 C 324.34375 150.78125 324.5 150.398438 324.5 150 Z M 324.5 150 "/>
<path style=" stroke:none;fill-rule:evenodd;fill:rgb(0%,0%,0%);fill-opacity:1;" d="M 324.5 122 C 324.5 121.601562 324.34375 121.21875 324.0625 120.9375 C 323.78125 120.65625 323.398438 120.5 323 120.5 C 322.601562 120.5 322.21875 120.65625 321.9375 120.9375 C 321.65625 121.21875 321.5 121.601562 321.5 122 C 321.5 122.398438 321.65625 122.78125 321.9375 123.0625 C 322.21875 123.34375 322.601562 123.5 323 123.5 C 323.398438 123.5 323.78125 123.34375 324.0625 123.0625 C 324.34375 122.78125 324.5 122.398438 324.5 122 Z M 324.5 122 "/>
<path style=" stroke:none;fill-rule:evenodd;fill:rgb(0%,0%,0%);fill-opacity:1;" d="M 324.5 93 C 324.5 92.601562 324.34375 92.21875 324.0625 91.9375 C 323.78125 91.65625 323.398438 91.5 323 91.5 C 322.601562 91.5 322.21875 91.65625 321.9375 91.9375 C 321.65625 92.21875 321.5 92.601562 321.5 93 C 321.5 93.398438 321.65625 93.78125 321.9375 94.0625 C 322.21875 94.34375 322.601562 94.5 323 94.5 C 323.398438 94.5 323.78125 94.34375 324.0625 94.0625 C 324.34375 93.78125 324.5 93.398438 324.5 93 Z M 324.5 93 "/>
<path style=" stroke:none;fill-rule:evenodd;fill:rgb(0%,0%,0%);fill-opacity:1;" d="M 324.5 64 C 324.5 63.601562 324.34375 63.21875 324.0625 62.9375 C 323.78125 62.65625 323.398438 62.5 323 62.5 C 322.601562 62.5 322.21875 62.65625 321.9375 62.9375 C 321.65625 63.21875 321.5 63.601562 321.5 64 C 321.5 64.398438 321.65625 64.78125 321.9375 65.0625 C 322.21875 65.34375 322.601562 65.5 323 65.5 C 323.398438 65.5 323.78125 65.34375 324.0625 65.0625 C 324.34375 64.78125 324.5 64.398438 324.5 64 Z M 324.5 64 "/>
<path style=" stroke:none;fill-rule:evenodd;fill:rgb(0%,0%,0%);fill-opacity:1;" d="M 324.5 36 C 324.5 35.601562 324.34375 35.21875 324.0625 34.9375 C 323.78125 34.65625 323.398438 34.5 323 34.5 C 322.601562 34.5 322.21875 34.65625 321.9375 34.9375 C 321.65625 35.21875 321.5 35.601562 321.5 36 C 321.5 36.398438 321.65625 36.78125 321.9375 37.0625 C 322.21875 37.34375 322.601562 37.5 323 37.5 C 323.398438 37.5 323.78125 37.34375 324.0625 37.0625 C 324.34375 36.78125 324.5 36.398438 324.5 36 Z M 324.5 36 "/>
<path style=" stroke:none;fill-rule:evenodd;fill:rgb(0%,0%,0%);fill-opacity:1;" d="M 324.5 7 C 324.5 6.601562 324.34375 6.21875 324.0625 5.9375 C 323.78125 5.65625 323.398438 5.5 323 5.5 C 322.601562 5.5 322.21875 5.65625 321.9375 5.9375 C 321.65625 6.21875 321.5 6.601562 321.5 7 C 321.5 7.398438 321.65625 7.78125 321.9375 8.0625 C 322.21875 8.34375 322.601562 8.5 323 8.5 C 323.398438 8.5 323.78125 8.34375 324.0625 8.0625 C 324.34375 7.78125 324.5 7.398438 324.5 7 Z M 324.5 7 "/>
<path style=" stroke:none;fill-rule:evenodd;fill:rgb(0%,0%,0%);fill-opacity:1;" d="M 353.5 352 C 353.5 351.601562 353.34375 351.21875 353.0625 350.9375 C 352.78125 350.65625 352.398438 350.5 352 350.5 C 351.601562 350.5 351.21875 350.65625 350.9375 350.9375 C 350.65625 351.21875 350.5 351.601562 350.5 352 C 350.5 352.398438 350.65625 352.78125 350.9375 353.0625 C 351.21875 353.34375 351.601562 353.5 352 353.5 C 352.398438 353.5 352.78125 353.34375 353.0625 353.0625 C 353.34375 352.78125 353.5 352.398438 353.5 352 Z M 353.5 352 "/>
<path style=" stroke:none;fill-rule:evenodd;fill:rgb(0%,0%,0%);fill-opacity:1;" d="M 353.5 323 C 353.5 322.601562 353.34375 322.21875 353.0625 321.9375 C 352.78125 321.65625 352.398438 321.5 352 321.5 C 351.601562 321.5 351.21875 321.65625 350.9375 321.9375 C 350.65625 322.21875 350.5 322.601562 350.5 323 C 350.5 323.398438 350.65625 323.78125 350.9375 324.0625 C 351.21875 324.34375 351.601562 324.5 352 324.5 C 352.398438 324.5 352.78125 324.34375 353.0625 324.0625 C 353.34375 323.78125 353.5 323.398438 353.5 323 Z M 353.5 323 "/>
<path style=" stroke:none;fill-rule:evenodd;fill:rgb(0%,0%,0%);fill-opacity:1;" d="M 353.5 294 C 353.5 293.601562 353.34375 293.21875 353.0625 292.9375 C 352.78125 292.65625 352.398438 292.5 352 292.5 C 351.601562 292.5 351.21875 292.65625 350.9375 292.9375 C 350.65625 293.21875 350.5 293.601562 350.5 294 C 350.5 294.398438 350.65625 294.78125 350.9375 295.0625 C 351.21875 295.34375 351.601562 295.5 352 295.5 C 352.398438 295.5 352.78125 295.34375 353.0625 295.0625 C 353.34375 294.78125 353.5 294.398438 353.5 294 Z M 353.5 294 "/>
<path style=" stroke:none;fill-rule:evenodd;fill:rgb(0%,0%,0%);fill-opacity:1;" d="M 353.5 265 C 353.5 264.601562 353.34375 264.21875 353.0625 263.9375 C 352.78125 263.65625 352.398438 263.5 352 263.5 C 351.601562 263.5 351.21875 263.65625 350.9375 263.9375 C 350.65625 264.21875 350.5 264.601562 350.5 265 C 350.5 265.398438 350.65625 265.78125 350.9375 266.0625 C 351.21875 266.34375 351.601562 266.5 352 266.5 C 352.398438 266.5 352.78125 266.34375 353.0625 266.0625 C 353.34375 265.78125 353.5 265.398438 353.5 265 Z M 353.5 265 "/>
<path style=" stroke:none;fill-rule:evenodd;fill:rgb(0%,0%,0%);fill-opacity:1;" d="M 353.5 237 C 353.5 236.601562 353.34375 236.21875 353.0625 235.9375 C 352.78125 235.65625 352.398438 235.5 352 235.5 C 351.601562 235.5 351.21875 235.65625 350.9375 235.9375 C 350.65625 236.21875 350.5 236.601562 350.5 237 C 350.5 237.398438 350.65625 237.78125 350.9375 238.0625 C 351.21875 238.34375 351.601562 238.5 352 238.5 C 352.398438 238.5 352.78125 238.34375 353.0625 238.0625 C 353.34375 237.78125 353.5 237.398438 353.5 237 Z M 353.5 237 "/>
<path style=" stroke:none;fill-rule:evenodd;fill:rgb(0%,0%,0%);fill-opacity:1;" d="M 353.5 208 C 353.5 207.601562 353.34375 207.21875 353.0625 206.9375 C 352.78125 206.65625 352.398438 206.5 352 206.5 C 351.601562 206.5 351.21875 206.65625 350.9375 206.9375 C 350.65625 207.21875 350.5 207.601562 350.5 208 C 350.5 208.398438 350.65625 208.78125 350.9375 209.0625 C 351.21875 209.34375 351.601562 209.5 352 209.5 C 352.398438 209.5 352.78125 209.34375 353.0625 209.0625 C 353.34375 208.78125 353.5 208.398438 353.5 208 Z M 353.5 208 "/>
<path style=" stroke:none;fill-rule:evenodd;fill:rgb(0%,0%,0%);fill-opacity:1;" d="M 353.5 179 C 353.5 178.601562 353.34375 178.21875 353.0625 177.9375 C 352.78125 177.65625 352.398438 177.5 352 177.5 C 351.601562 177.5 351.21875 177.65625 350.9375 177.9375 C 350.65625 178.21875 350.5 178.601562 350.5 179 C 350.5 179.398438 350.65625 179.78125 350.9375 180.0625 C 351.21875 180.34375 351.601562 180.5 352 180.5 C 352.398438 180.5 352.78125 180.34375 353.0625 180.0625 C 353.34375 179.78125 353.5 179.398438 353.5 179 Z M 353.5 179 "/>
<path style=" stroke:none;fill-rule:evenodd;fill:rgb(0%,0%,0%);fill-opacity:1;" d="M 353.5 150 C 353.5 149.601562 353.34375 149.21875 353.0625 148.9375 C 352.78125 148.65625 352.398438 148.5 352 148.5 C 351.601562 148.5 351.21875 148.65625 350.9375 148.9375 C 350.65625 149.21875 350.5 149.601562 350.5 150 C 350.5 150.398438 350.65625 150.78125 350.9375 151.0625 C 351.21875 151.34375 351.601562 151.5 352 151.5 C 352.398438 151.5 352.78125 151.34375 353.0625 151.0625 C 353.34375 150.78125 353.5 150.398438 353.5 150 Z M 353.5 150 "/>
<path style=" stroke:none;fill-rule:evenodd;fill:rgb(0%,0%,0%);fill-opacity:1;" d="M 353.5 122 C 353.5 121.601562 353.34375 121.21875 353.0625 120.9375 C 352.78125 120.65625 352.398438 120.5 352 120.5 C 351.601562 120.5 351.21875 120.65625 350.9375 120.9375 C 350.65625 121.21875 350.5 121.601562 350.5 122 C 350.5 122.398438 350.65625 122.78125 350.9375 123.0625 C 351.21875 123.34375 351.601562 123.5 352 123.5 C 352.398438 123.5 352.78125 123.34375 353.0625 123.0625 C 353.34375 122.78125 353.5 122.398438 353.5 122 Z M 353.5 122 "/>
<path style=" stroke:none;fill-rule:evenodd;fill:rgb(0%,0%,0%);fill-opacity:1;" d="M 353.5 93 C 353.5 92.601562 353.34375 92.21875 353.0625 91.9375 C 352.78125 91.65625 352.398438 91.5 352 91.5 C 351.601562 91.5 351.21875 91.65625 350.9375 91.9375 C 350.65625 92.21875 350.5 92.601562 350.5 93 C 350.5 93.398438 350.65625 93.78125 350.9375 94.0625 C 351.21875 94.34375 351.601562 94.5 352 94.5 C 352.398438 94.5 352.78125 94.34375 353.0625 94.0625 C 353.34375 93.78125 353.5 93.398438 353.5 93 Z M 353.5 93 "/>
<path style=" stroke:none;fill-rule:evenodd;fill:rgb(0%,0%,0%);fill-opacity:1;" d="M 353.5 64 C 353.5 63.601562 353.34375 63.21875 353.0625 62.9375 C 352.78125 62.65625 352.398438 62.5 352 62.5 C 351.601562 62.5 351.21875 62.65625 350.9375 62.9375 C 350.65625 63.21875 350.5 63.601562 350.5 64 C 350.5 64.398438 350.65625 64.78125 350.9375 65.0625 C 351.21875 65.34375 351.601562 65.5 352 65.5 C 352.398438 65.5 352.78125 65.34375 353.0625 65.0625 C 353.34375 64.78125 353.5 64.398438 353.5 64 Z M 353.5 64 "/>
<path style=" stroke:none;fill-rule:evenodd;fill:rgb(0%,0%,0%);fill-opacity:1;" d="M 353.5 36 C 353.5 35.601562 353.34375 35.21875 353.0625 34.9375 C 352.78125 34.65625 352.398438 34.5 352 34.5 C 351.601562 34.5 351.21875 34.65625 350.9375 34.9375 C 350.65625 35.21875 350.5 35.601562 350.5 36 C 350.5 36.398438 350.65625 36.78125 350.9375 37.0625 C 351.21875 37.34375 351.601562 37.5 352 37.5 C 352.398438 37.5 352.78125 37.34375 353.0625 37.0625 C 353.34375 36.78125 353.5 36.398438 353.5 36 Z M 353.5 36 "/>
<path style=" stroke:none;fill-rule:evenodd;fill:rgb(0%,0%,0%);fill-opacity:1;" d="M 353.5 7 C 353.5 6.601562 353.34375 6.21875 353.0625 5.9375 C 352.78125 5.65625 352.398438 5.5 352 5.5 C 351.601562 5.5 351.21875 5.65625 350.9375 5.9375 C 350.65625 6.21875 350.5 6.601562 350.5 7 C 350.5 7.398438 350.65625 7.78125 350.9375 8.0625 C 351.21875 8.34375 351.601562 8.5 352 8.5 C 352.398438 8.5 352.78125 8.34375 353.0625 8.0625 C 353.34375 7.78125 353.5 7.398438 353.5 7 Z M 353.5 7 "/>
</g>
</svg>
